<svg width="255" height="233" viewBox="0 0 255 233" fill="none" xmlns="http://www.w3.org/2000/svg">
<path d="M241.042 120.59C241.042 120.59 264.9 151.704 203.454 192.424C142.006 233.143 56.3402 246.616 39.293 202.766C22.2458 158.915 38.162 171.899 103.66 164.393C169.157 156.888 212.767 88.7835 223.305 96.2063C233.838 103.631 241.042 120.59 241.042 120.59Z" fill="#F9A332"/>
<path d="M92.1914 224.205C73.7001 224.205 58.018 219.842 48.0107 210.192C52.4382 208.102 55.9434 205.979 58.8722 204.207C62.2104 202.187 64.9143 200.551 66.5936 200.551C66.7733 200.551 66.9417 200.569 67.0975 200.609C67.9506 200.823 68.849 201.748 69.8435 203.433C72.7215 208.309 76.6505 210.975 80.948 210.975C81.1208 210.975 81.2938 210.971 81.4678 210.963C86.0171 210.742 90.2128 207.438 92.6919 202.125C94.1621 198.974 96.082 197.06 98.56 196.274C99.4787 195.982 100.504 195.836 101.63 195.836C105.767 195.836 111.293 197.798 118.113 201.699C118.14 201.714 118.163 201.727 118.189 201.742C121.025 203.427 124.206 204.448 127.964 204.545C128.272 204.554 128.575 204.558 128.874 204.558C139.269 204.558 144.174 199.804 147.138 196.932C147.91 196.183 149.077 195.053 149.47 195.022C149.474 195.022 149.819 195.073 150.601 195.855C147.113 199.942 139.949 207.863 129.004 207.863C124.308 207.863 118.916 206.403 112.822 202.558C110.144 200.868 107.402 200.163 104.925 200.163C97.8504 200.163 92.9293 205.922 97.8188 210.959C99.829 213.031 103.868 213.75 108.511 213.75C116.015 213.75 125.095 211.869 129.723 210.772C139.014 208.503 148.485 205.488 157.897 201.807C159.618 202.574 161.379 202.978 163.042 202.978C164.688 202.978 166.238 202.582 167.56 201.746C168.687 201.034 170.486 199.425 170.948 196.256C182.159 191.099 193.131 185.03 203.453 178.191C227.431 162.299 238.418 147.875 242.902 136.187C242.925 138.028 242.785 140.029 242.413 142.182C241.808 145.687 240.637 149.236 238.918 152.815C232.942 162.818 222.145 174.314 203.453 186.702C168.507 209.86 125.726 224.205 92.1914 224.205ZM168.993 186.429C168.884 186.183 168.769 185.933 168.65 185.679C168.263 184.859 167.911 183.994 167.597 183.089C167.652 183.089 167.702 183.089 167.756 183.089C179.706 183.089 184.253 177.179 189.762 170.02C191.709 167.489 193.721 164.873 196.304 162.116C200.962 157.142 208.094 156.839 214.992 156.546C219.529 156.354 223.877 156.169 227.184 154.535C219.146 162.516 208.565 154.528 202.234 164.553C195.033 175.954 188.63 183.956 175.029 185.556C172.818 185.816 170.816 186.104 168.993 186.429ZM232.72 145.382C232.754 144.767 232.754 144.123 232.725 143.449C232.484 138.021 232.455 134.317 233.045 132.627C233.362 131.713 233.775 131.473 235.954 130.523C237.387 129.898 239.223 129.097 241.515 127.666C241.846 128.672 242.151 129.81 242.394 131.073C233.406 133.232 236.91 135.426 232.72 145.382Z" fill="#BF6700"/>
<path d="M221.385 98.3492C220.763 98.3492 219.22 98.7058 215.847 101.073C211.916 103.834 206.803 108.392 200.881 113.667C179.188 132.999 146.404 162.214 103.967 167.077C88.4502 168.855 75.7479 169.487 65.5408 169.995C49.7841 170.781 39.3744 171.298 36.64 175.518C34.0228 179.553 36.8151 188.938 41.8108 201.788C45.916 212.349 54.4476 219.75 67.1679 223.789C100.104 234.244 156.791 220.108 201.961 190.174C225.723 174.427 239.711 157.832 242.414 142.181C244.531 129.918 239.122 122.531 238.891 122.224C238.759 122.049 238.641 121.848 238.556 121.648C238.462 121.426 231.5 105.288 221.748 98.4154C221.743 98.4133 221.645 98.3492 221.385 98.3492ZM92.2393 232.657C82.3324 232.659 73.3557 231.42 65.534 228.936C51.1784 224.38 41.5033 215.904 36.7766 203.745C30.7288 188.191 28.1942 178.617 32.1076 172.58C36.346 166.042 46.6201 165.53 65.2718 164.602C75.4022 164.097 88.0085 163.47 103.353 161.712C144.09 157.044 176.105 128.514 197.29 109.637C211.457 97.0107 219.258 90.0551 224.858 94.0004C235.257 101.33 242.362 116.876 243.404 119.252C244.6 120.971 249.993 129.613 247.77 142.892C244.852 160.357 230.441 177.779 204.946 194.676C182.764 209.375 156.756 220.949 131.714 227.266C117.478 230.856 104.183 232.657 92.2393 232.657Z" fill="#6D184E"/>
<path d="M28.0091 175.153C28.0091 175.153 12.4072 172.753 11.0068 183.354C9.60688 193.956 26.809 189.755 26.6091 197.957C26.409 206.157 26.209 216.959 43.8121 209.558C61.4142 202.157 66.2145 192.778 71.816 202.269C77.4162 211.759 86.4179 210.159 90.6179 201.157C94.8193 192.155 103.076 190.464 119.252 199.712C127.906 204.659 132.602 197.61 138.478 190.56C143.581 184.435 149.575 178.311 159.829 180.054C181.882 183.805 182.833 173.153 194.633 160.551C206.435 147.95 231.239 161.752 230.439 143.548C229.639 125.346 231.539 132.198 242.489 124.246C253.442 116.295 253.291 97.6919 231.838 99.3435C210.385 100.993 157.029 177.953 28.0091 175.153Z" fill="#48C75A"/>
<path d="M230.622 128.319C231.431 124.957 235.296 122.91 243.315 116.671C244.73 115.567 246.147 113.736 247.338 111.897C247.046 115.715 244.768 119.764 241.145 122.395C238.139 124.575 235.914 125.546 234.124 126.325C232.65 126.967 231.503 127.571 230.622 128.319Z" fill="#B6E9BD"/>
<path d="M174.383 177.647C181.447 173.818 184.811 165.712 192.646 156.746C202.519 145.445 220.9 152.667 228.02 146.351C227.81 147.599 227.38 148.571 226.718 149.291C224.642 151.553 219.86 151.757 214.797 151.971C207.345 152.287 198.898 152.647 192.962 158.986C190.23 161.904 188.054 164.733 186.134 167.228C182.227 172.304 179.365 176.026 174.383 177.647Z" fill="#B6E9BD"/>
<path d="M34.1304 209.744C32.8885 209.744 31.8941 209.498 31.1686 209.002C28.6714 207.299 28.7967 202.15 28.8974 198.012C29.0329 192.48 23.7695 190.842 19.9274 189.648C14.8474 188.068 12.8234 187.084 13.2766 183.655C13.5189 181.821 14.3049 180.427 15.6798 179.392C17.4979 178.025 20.1386 177.46 22.5435 177.279C29.3596 187.866 39.7759 193.751 51.9471 193.751C53.4897 193.751 55.0626 193.656 56.6571 193.465C71.7356 191.403 86.9002 188.185 102.037 183.843C102.626 184.648 103.206 185.445 103.778 186.234C105.314 188.348 106.803 190.401 108.309 192.318C105.875 191.611 103.648 191.259 101.615 191.259C100.017 191.259 98.5382 191.476 97.1755 191.91C93.4611 193.089 90.557 195.874 88.5446 200.189C86.7963 203.935 84.0684 206.252 81.2481 206.389C81.1678 206.392 81.0888 206.394 81.0085 206.394C78.3677 206.394 75.8151 204.54 73.7878 201.105C72.1165 198.273 70.3458 196.704 68.2158 196.168C67.6768 196.033 67.1378 195.969 66.5943 195.969C63.6437 195.969 60.5465 197.842 56.5021 200.289C53.0071 202.405 48.6578 205.037 42.9241 207.448C39.2956 208.973 36.326 209.744 34.1304 209.744ZM167.969 178.548C167.465 178.548 166.944 178.536 166.405 178.509C165.353 172.846 165.534 166.158 167.197 159.17C186.875 150.069 205.235 139.388 222.016 127.264C230.162 121.172 234.916 112.925 235.997 103.636C236.135 103.607 236.269 103.58 236.405 103.554C237.578 110.508 236.396 119.585 227.037 128.148C208.235 145.348 187.031 149.95 177.429 159.752C171.644 165.658 171.016 173.231 171.43 178.32C170.372 178.47 169.225 178.548 167.969 178.548Z" fill="#539256"/>
<path d="M24.4627 177.208C21.6614 177.208 18.0002 177.647 15.6792 179.393C14.3045 180.428 13.5183 181.821 13.2759 183.655C12.823 187.085 14.8467 188.069 19.9269 189.648C23.7688 190.843 29.0323 192.48 28.8967 198.013C28.7962 202.151 28.6706 207.299 31.168 209.002C33.1782 210.374 37.2429 209.836 42.9233 207.448C48.657 205.038 53.0062 202.405 56.5014 200.29C61.2904 197.391 64.7527 195.298 68.215 196.169C70.3451 196.704 72.1157 198.274 73.787 201.106C75.8752 204.644 78.5216 206.505 81.2472 206.389C84.0677 206.253 86.7956 203.935 88.5437 200.189C90.5562 195.875 93.4602 193.089 97.1747 191.911C102.816 190.116 110.409 192.02 120.387 197.725C126.4 201.162 129.648 197.703 135.34 190.767C140.855 184.043 147.718 175.673 160.212 177.797C175.942 180.475 179.561 175.769 186.133 167.228C188.053 164.733 190.229 161.905 192.962 158.987C198.897 152.648 207.345 152.289 214.797 151.972C219.859 151.757 224.641 151.554 226.716 149.292C227.796 148.114 228.267 146.268 228.15 143.65C227.587 130.825 228.256 128.882 234.125 126.326C235.913 125.545 238.141 124.575 241.145 122.394C246.104 118.792 248.543 112.54 246.817 107.849C245.12 103.231 239.864 101.018 232.013 101.626C226.757 102.03 218.16 108.399 207.274 116.463C191.801 127.926 170.608 143.628 141.409 156.275C106.942 171.206 68.7653 178.33 27.9589 177.442C27.8605 177.44 27.7622 177.431 27.6638 177.417C26.9598 177.31 25.8107 177.208 24.4627 177.208ZM34.1071 214.312C31.9115 214.312 30.0799 213.802 28.5882 212.784C24.0333 209.678 24.1924 203.149 24.3203 197.901C24.3632 196.126 22.9212 195.374 18.5664 194.02C14.2527 192.679 7.73373 190.651 8.73729 183.055C9.14364 179.978 10.5581 177.511 12.9405 175.725C18.2974 171.708 26.8718 172.687 28.1961 172.868C120.79 174.834 173.216 135.995 204.55 112.786C216.92 103.621 225.092 97.5671 231.661 97.0602C245.765 95.9796 249.964 103.14 251.116 106.268C253.562 112.919 250.499 121.26 243.835 126.097C240.425 128.573 237.841 129.699 235.953 130.523C233.775 131.472 233.363 131.714 233.044 132.628C232.455 134.317 232.485 138.02 232.725 143.449C232.895 147.345 232.035 150.268 230.091 152.387C226.733 156.048 221.028 156.29 214.991 156.546C208.094 156.839 200.961 157.142 196.305 162.116C193.721 164.873 191.709 167.489 189.761 170.02C183.129 178.64 177.89 185.448 159.442 182.312C149.571 180.632 144.136 187.26 138.877 193.67C133.671 200.021 127.765 207.217 118.113 201.699C109.433 196.736 102.854 194.912 98.56 196.274C96.0818 197.06 94.162 198.974 92.6919 202.125C90.2127 207.438 86.017 210.742 81.4676 210.962C76.9681 211.186 72.8378 208.506 69.8432 203.433C68.8489 201.747 67.9506 200.823 67.0974 200.608C65.486 200.205 62.5672 201.97 58.8721 204.207C55.2493 206.4 50.7407 209.129 44.6986 211.669C40.5029 213.433 36.9921 214.312 34.1071 214.312Z" fill="#6D184E"/>
<path d="M195.069 61.5345C192.287 62.6473 189.896 64.403 187.933 66.6513C175.987 74.8756 149.964 91.4355 116.947 104.484C84.0503 117.819 53.7877 123.789 39.4662 126.078C36.4942 125.808 33.5527 126.187 30.7708 127.3C18.0809 132.38 13.5187 150.803 20.5816 168.446C27.6441 186.09 41.672 192.958 56.3471 191.196C89.003 186.731 118.19 177.329 142.061 167.22C166.314 158.066 193.929 144.732 220.644 125.431C232.483 116.58 237.897 101.931 230.835 84.2848C223.772 66.641 207.759 56.4569 195.069 61.5345Z" fill="#DB2839"/>
<path d="M51.8546 189.182C38.7557 189.182 28.2705 181.496 22.7063 167.596C22.2825 166.537 21.9007 165.471 21.5605 164.402C22.4328 164.1 23.3279 163.801 24.2397 163.513C23.5933 166.464 23.4838 169.499 25.1324 172.005C26.7732 174.499 29.7382 175.915 34.1962 176.334C34.8493 176.395 35.4867 176.424 36.1092 176.424C45.3628 176.424 51.3179 169.938 55.7407 165.121C58.4494 162.172 61.0076 159.385 63.106 159.385C63.1219 159.385 63.1377 159.385 63.1524 159.385C64.3784 159.409 65.8304 160.401 67.469 162.332C73.2748 169.181 80.8685 172.905 88.9638 172.904C89.3276 172.904 89.6936 172.897 90.0599 172.882C91.0384 172.841 92.0068 172.745 92.9629 172.596C95.2069 175.02 97.2229 177.483 99.0987 179.919C84.7353 183.959 70.3573 186.97 56.074 188.924C54.64 189.096 53.2332 189.182 51.8546 189.182ZM62.3749 165.042C62.019 165.042 61.7049 165.23 61.4134 165.653C60.2573 167.329 57.7882 169.671 55.1892 171.92C53.4785 173.4 53.9891 176.142 56.0944 176.969C59.8584 178.448 63.871 179.162 67.9876 179.162C69.4464 179.162 70.9188 179.073 72.3969 178.896C72.4419 178.889 72.4872 178.883 72.5324 178.876C75.389 178.484 76.058 174.659 73.5188 173.294C67.0474 169.815 64.1727 165.042 62.3749 165.042ZM168.929 153.299C171.676 145.528 176.28 137.643 183.074 130.604C184.118 130.691 185.178 130.743 186.243 130.743C187.17 130.743 188.099 130.703 189.018 130.61C186.635 133.345 184.554 136.007 182.803 138.407C181.282 140.492 182.94 143.126 185.154 143.126C185.572 143.126 186.013 143.031 186.455 142.819C192.794 139.787 199.234 136.47 205.72 132.844C194.107 140.324 181.815 147.158 168.929 153.299ZM203.886 116.841C204.021 116.366 204.138 115.9 204.239 115.445C215.067 109.767 224.096 106.596 231.265 104.739C231.168 105.305 231.055 105.864 230.926 106.42C220.717 107.038 211.606 111.274 203.886 116.841Z" fill="#A92142"/>
<path d="M37.6367 128.283C35.5361 128.283 33.5191 128.665 31.6216 129.425C26.1864 131.602 22.2337 136.675 20.4912 143.712C18.6808 151.022 19.4674 159.503 22.7071 167.595C28.8565 182.957 41.0165 190.729 56.0749 188.924C84.3521 185.057 112.994 177.043 141.169 165.112C141.196 165.1 141.223 165.088 141.252 165.078C169.879 154.274 196.139 140.309 219.305 123.576C231.419 114.517 234.858 100.498 228.708 85.1356C222.128 68.6915 207.416 59.056 195.919 63.6613L195.07 61.5348L195.919 63.6613C193.538 64.6126 191.432 66.1256 189.656 68.1568C189.53 68.2998 189.389 68.4262 189.231 68.5361C176.698 77.1644 150.751 93.5857 117.79 106.612C84.9623 119.92 54.8523 125.937 39.8279 128.339C39.6391 128.368 39.4469 128.374 39.2583 128.358C38.7124 128.308 38.1723 128.283 37.6367 128.283ZM51.9471 193.751C36.9948 193.752 24.6904 184.869 18.4561 169.297C14.8639 160.321 14.0081 150.844 16.0469 142.611C18.1531 134.105 23.0799 127.912 29.92 125.174C32.8906 123.985 36.0727 123.516 39.3802 123.773C54.3032 121.373 83.8618 115.425 116.089 102.361C148.444 89.5752 173.946 73.4834 186.404 64.9235C188.62 62.453 191.248 60.6001 194.218 59.4083C208.059 53.8703 225.44 64.6458 232.959 83.434C239.836 100.614 235.745 116.998 222.016 127.266C198.506 144.249 171.902 158.4 142.91 169.345C114.379 181.425 85.359 189.54 56.6569 193.465C55.0624 193.656 53.4895 193.751 51.9471 193.751Z" fill="#6D184E"/>
<path d="M24.8089 146.55C24.8089 146.55 9.40663 152.75 5.60633 163.352C3.34848 169.649 9.84299 166.136 19.7228 162.623C26.4757 160.222 34.8093 157.821 43.0109 158.552C50.4995 159.218 53.3708 156.973 55.4556 154.728C58.9948 150.915 60.2659 147.101 78.0161 157.551C106.221 174.154 108.821 201.757 128.023 202.257C135.714 202.458 140.131 199.979 143.129 197.501C147.613 193.79 148.91 190.08 153.226 195.357C160.428 204.158 174.079 202.557 166.578 186.655C159.077 170.752 163.828 135.747 197.834 116.345C231.837 96.9428 250.04 101.143 251.641 98.3434C253.242 95.5421 245.639 81.1391 221.436 80.7404C197.233 80.3396 136.425 142.149 24.8089 146.55Z" fill="#FCAF15"/>
<path d="M128.834 199.978C128.587 199.978 128.338 199.975 128.083 199.969C119.242 199.738 114.31 192.947 107.483 183.544C104.715 179.731 101.653 175.515 97.9346 171.29C102.727 169.495 106.955 166.261 110.083 161.882C113.042 157.741 115.604 156.158 118.77 156.158C121.839 156.158 125.473 157.646 130.58 159.739C133.808 161.059 137.465 162.558 141.723 163.931C144.496 164.822 147.217 165.262 149.815 165.262C154.435 165.262 158.668 163.873 162.115 161.169C161.646 162.049 161.229 162.936 160.859 163.823C156.716 166.041 152.643 166.866 148.726 166.866C143.08 166.866 137.761 165.153 133.039 163.44C128.316 161.725 124.19 160.012 120.926 160.012C119.109 160.012 117.559 160.543 116.323 161.902C111.91 166.746 107.557 171.583 104.897 173.075C112.797 183.828 117.622 192.873 128.502 193.155C128.768 193.162 129.028 193.166 129.286 193.166C136.629 193.166 140.793 190.403 143.6 187.641C146.405 184.877 147.854 182.115 149.766 182.115C150.726 182.115 151.803 182.811 153.227 184.551C155.795 187.69 159.182 189.503 162.139 189.816C163.449 193.742 163.228 196.544 162.097 198.318C159.863 197.985 157.137 196.52 154.999 193.907C153.739 192.366 152.001 190.581 149.733 190.451C149.647 190.446 149.559 190.443 149.472 190.443C147.263 190.443 145.653 191.995 143.954 193.643C141.176 196.336 137.397 199.978 128.834 199.978ZM7.65527 164.434C7.68607 164.34 7.72103 164.235 7.76129 164.123C9.14745 160.257 12.3496 156.987 15.6686 154.466C17.7501 154.422 19.9061 154.259 22.0407 154.097C23.3616 153.997 24.6092 153.901 25.833 153.835C25.9538 153.829 26.0624 153.826 26.1596 153.826C26.4736 153.826 26.6725 153.856 26.7856 153.883C26.8974 154.666 26.277 156.692 25.7663 158.278C21.5728 159.446 17.697 160.905 14.3589 162.163C12.017 163.045 9.22765 164.096 7.65527 164.434Z" fill="#D18126"/>
<path d="M43.29 158.571C55.5467 159.558 55.1819 152.601 59.7849 151.076C51.071 149.123 53.3948 157.571 43.29 158.571Z" fill="#F8CE36"/>
<path d="M5.37598 166.258C7.32203 169.266 22.1263 159.357 37.7853 158.481C24.975 157.702 12.0056 164.258 5.37598 166.258Z" fill="#F8CE36"/>
<path d="M163.041 189.866C162.746 189.866 162.443 189.85 162.137 189.817C161.809 188.834 161.384 187.78 160.852 186.655C158.231 181.096 157.284 172.413 160.859 163.824C161.167 163.658 161.477 163.485 161.786 163.304C160.515 172.352 161.423 181.09 164.508 187.632C164.81 188.272 165.078 188.893 165.309 189.494C164.619 189.743 163.852 189.866 163.041 189.866Z" fill="#FED78A"/>
<path d="M163.051 198.392C162.746 198.392 162.426 198.367 162.096 198.319C163.225 196.546 163.448 193.742 162.136 189.817C162.442 189.85 162.744 189.867 163.04 189.867C163.851 189.867 164.618 189.744 165.309 189.494C166.913 193.635 166.868 196.768 165.116 197.877C164.569 198.22 163.861 198.392 163.051 198.392ZM160.857 163.823C161.226 162.937 161.644 162.05 162.112 161.169C162.117 161.164 162.122 161.161 162.127 161.158C162 161.874 161.886 162.59 161.785 163.305C161.477 163.485 161.166 163.659 160.857 163.823Z" fill="#E8C093"/>
<path d="M169.996 140.087C169.77 137.925 169.312 135.708 168.614 133.467C167.592 130.184 168.185 129.448 168.212 129.417C168.479 129.11 169.19 128.993 170.132 128.993C171.931 128.993 174.569 129.417 176.544 129.735C176.828 129.781 177.117 129.826 177.412 129.873C174.405 133.29 171.97 136.744 169.996 140.087Z" fill="#D18126"/>
<path d="M61.6467 148.51C65.2085 148.51 70.4212 150.424 79.1775 155.579C93.1478 163.802 101.096 174.749 107.483 183.545C114.309 192.947 119.241 199.738 128.082 199.97C137.179 200.188 141.096 196.414 143.953 193.643C145.718 191.932 147.389 190.322 149.734 190.451C152 190.582 153.739 192.367 154.999 193.907C158.292 197.931 162.974 199.228 165.116 197.876C167.122 196.607 166.891 192.682 164.507 187.632C160.149 178.39 160.136 164.765 164.475 152.072C168.22 141.119 176.852 125.68 196.698 114.356C221.19 100.383 237.782 98.4304 245.755 97.493C247.134 97.3306 248.658 97.1509 249.496 96.9604C249.325 96.1789 248.721 94.6136 246.991 92.6089C244.582 89.8161 237.264 83.291 221.397 83.0291C214.034 82.8862 202.391 89.3593 186.263 98.2918C152.107 117.2 100.529 145.758 25.3185 148.82C23.0945 149.79 10.8674 155.459 7.76091 164.124C7.72064 164.236 7.68557 164.34 7.65504 164.435C9.22722 164.097 12.0165 163.046 14.3588 162.163C22.0256 159.275 32.5301 155.324 43.2143 156.27C50.47 156.92 52.4192 154.718 54.4815 152.389C56.4578 150.156 58.3437 148.51 61.6467 148.51ZM128.875 204.558C128.576 204.558 128.271 204.554 127.963 204.545C116.863 204.257 110.799 195.905 103.778 186.235C97.3207 177.343 90.003 167.264 76.8554 159.524C69.7035 155.314 64.8379 153.206 61.9812 153.079C60.1348 153.009 59.4387 153.695 57.9088 155.423C55.5709 158.065 52.3661 161.678 42.8086 160.831C33.1616 159.97 23.2268 163.715 15.9723 166.447C9.58032 168.855 6.0584 170.183 3.91209 168.071C2.11627 166.304 3.1208 163.5 3.45117 162.579C7.55134 151.142 23.2867 144.695 23.9533 144.427C24.1975 144.329 24.4562 144.273 24.7184 144.262C99.0678 141.331 150.206 113.02 184.044 94.2845C200.796 85.0121 212.9 78.316 221.473 78.4524C238.643 78.736 248.829 85.982 252.635 92.6695C253.544 94.2694 254.885 97.2808 253.629 99.4782C252.588 101.299 250.483 101.546 246.29 102.039C238.615 102.942 222.649 104.821 198.969 118.335C167.469 136.306 161.048 169.561 168.649 185.679C173.693 196.374 169.569 200.478 167.56 201.746C163.102 204.563 156.027 202.393 151.455 196.806C150.065 195.108 149.476 195.023 149.47 195.021C149.078 195.053 147.911 196.183 147.14 196.931C144.174 199.804 139.271 204.558 128.875 204.558Z" fill="#6D184E"/>
<path d="M145.802 176.079C145.802 176.079 138.821 189.061 128.502 187.479C120.673 186.279 133.755 187.806 137.153 178.329C141.077 167.376 147.822 173.078 145.802 176.079Z" fill="#F8CE36"/>
<path d="M34.41 123.046C34.41 123.046 6.80593 124.547 3.50545 139.848C0.205181 155.151 14.6071 152.151 25.709 151.55C36.8102 150.95 15.2068 172.253 34.41 174.053C42.4377 174.806 47.7903 170.21 52.1577 165.615C58.2371 159.218 62.4047 152.82 69.2151 160.852C80.9163 174.653 99.2188 173.154 108.22 160.552C117.222 147.951 124.722 156.052 142.425 161.752C160.128 167.453 172.13 152.451 166.429 134.148C163.598 125.061 169.716 126.329 177.659 127.594C185.717 128.879 195.652 130.164 200.032 120.647C208.733 101.743 190.131 98.4434 212.335 93.9431C234.538 89.4407 244.139 87.9421 240.539 75.7909C236.939 63.6376 228.537 54.6371 200.332 66.6392C172.13 78.6393 146.625 131.148 34.41 123.046Z" fill="#48C75A"/>
<path d="M29.9771 160.137C31.167 156.468 32.1782 153.301 30.429 151.029C29.5206 149.846 28.0774 149.25 26.1351 149.25C25.9566 149.25 25.7734 149.254 25.5858 149.264C24.3124 149.332 22.9822 149.433 21.6952 149.532C19.3753 149.707 16.9357 149.892 14.6746 149.892C14.4137 149.892 14.1546 149.89 13.8989 149.886C15.443 144.366 18.3144 138.981 13.1837 138.981C13.0421 138.981 12.8942 138.983 12.7401 138.993C10.5563 139.11 8.24564 139.319 5.9668 139.466C7.14762 135.525 10.351 132.673 14.2078 130.605C14.649 132.856 15.1605 135.08 15.7402 137.278C24.9067 141.918 34.7909 145.075 45.1983 146.842C41.0353 150.416 36.6994 157.186 29.9771 160.137ZM76.0302 158.056C73.4437 158.056 70.8232 157.627 68.2605 156.742C66.8919 155.695 65.519 155.078 64.1188 154.877C61.3097 153.299 58.6396 151.115 56.2461 148.293C56.2135 148.254 56.1806 148.216 56.1478 148.178C59.4147 148.426 62.7244 148.551 66.0682 148.551C76.2788 148.551 86.823 147.404 97.5511 145.184C96.7918 145.976 96.0268 146.909 95.2515 147.994C90.5982 154.51 83.4588 158.056 76.0302 158.056ZM136.844 150.42C134.529 150.42 132.055 150.029 129.458 149.193C121.31 146.57 115.322 143.437 110.356 142.049C118.405 139.78 126.514 136.936 134.625 133.547C134.658 133.533 134.692 133.519 134.726 133.505C134.734 133.501 134.744 133.497 134.754 133.493C134.781 133.482 134.801 133.474 134.827 133.462C134.837 133.458 134.847 133.454 134.859 133.45C134.883 133.44 134.909 133.428 134.934 133.418C134.942 133.414 134.95 133.412 134.958 133.408C134.99 133.394 135.024 133.38 135.057 133.368L135.059 133.366C135.095 133.352 135.131 133.335 135.165 133.321C135.167 133.319 135.169 133.319 135.171 133.319C135.204 133.305 135.234 133.291 135.268 133.277C135.272 133.275 135.28 133.273 135.286 133.269C135.314 133.257 135.345 133.245 135.375 133.233C135.379 133.231 135.385 133.229 135.389 133.227C135.421 133.213 135.455 133.198 135.49 133.184L135.492 133.182C135.564 133.152 135.633 133.122 135.705 133.092C135.707 133.092 135.711 133.09 135.713 133.09C135.746 133.076 135.778 133.061 135.81 133.047C135.814 133.045 135.816 133.045 135.82 133.043C135.963 132.983 136.104 132.924 136.245 132.862L136.249 132.86C136.572 132.723 136.892 132.586 137.212 132.447L137.218 132.445C137.359 132.384 137.5 132.322 137.643 132.262L137.647 132.258C137.789 132.197 137.928 132.137 138.071 132.076C138.075 132.072 138.075 132.072 138.079 132.07C138.22 132.008 138.357 131.949 138.498 131.887C138.502 131.885 138.504 131.885 138.508 131.883C138.538 131.869 138.572 131.855 138.602 131.841C138.609 131.838 138.609 131.838 138.613 131.836C138.715 131.792 138.822 131.744 138.925 131.699C138.929 131.697 138.933 131.695 138.937 131.691C138.967 131.679 138.997 131.667 139.026 131.653C139.03 131.651 139.038 131.649 139.042 131.645C139.078 131.631 139.106 131.617 139.14 131.603H139.142C139.211 131.571 139.281 131.54 139.35 131.51C139.356 131.506 139.362 131.504 139.368 131.502C139.394 131.49 139.424 131.476 139.451 131.466C139.459 131.462 139.465 131.46 139.471 131.456C139.497 131.444 139.529 131.432 139.555 131.419C139.561 131.415 139.568 131.413 139.576 131.409C139.642 131.381 139.707 131.351 139.773 131.321C139.781 131.317 139.793 131.311 139.803 131.309C139.825 131.299 139.85 131.286 139.874 131.276C139.884 131.27 139.894 131.268 139.904 131.262C139.928 131.252 139.948 131.242 139.972 131.232C139.985 131.226 139.995 131.222 140.005 131.218C140.031 131.206 140.059 131.194 140.085 131.182C140.089 131.18 140.097 131.176 140.103 131.174C140.136 131.16 140.17 131.143 140.202 131.129C140.21 131.125 140.218 131.121 140.226 131.119C140.248 131.107 140.275 131.097 140.299 131.087C140.309 131.081 140.323 131.075 140.335 131.069C140.355 131.061 140.373 131.051 140.394 131.043C140.41 131.037 140.422 131.031 140.438 131.023C140.456 131.014 140.472 131.008 140.49 131C140.504 130.992 140.52 130.986 140.535 130.98C140.551 130.972 140.567 130.964 140.583 130.958C140.613 130.944 140.647 130.928 140.678 130.916C140.69 130.91 140.706 130.902 140.718 130.896C140.738 130.888 140.754 130.879 140.774 130.871C140.786 130.865 140.798 130.859 140.811 130.853C140.831 130.845 140.851 130.835 140.869 130.827C140.881 130.823 140.893 130.817 140.903 130.813C140.925 130.801 140.946 130.793 140.968 130.783C140.97 130.783 140.972 130.781 140.974 130.781C141.054 130.742 141.137 130.706 141.22 130.668C141.222 130.668 141.226 130.666 141.23 130.664C141.256 130.652 141.284 130.64 141.31 130.628L141.312 130.626C145.72 128.615 150.01 126.483 154.168 124.237C157.394 138.67 149.534 150.42 136.844 150.42ZM173.392 115.922C171.813 115.922 170.209 115.793 168.63 115.604C176.191 110.622 183.18 105.212 189.498 99.4097C189.293 101.874 188.61 104.735 187.066 108.087C184.195 114.323 178.941 115.922 173.392 115.922ZM207.123 79.8066C210.558 75.0841 213.598 70.1803 216.205 65.1113C216.036 64.7466 215.865 64.3819 215.693 64.0193C218.159 63.5257 220.424 63.2779 222.483 63.2779C224.431 63.2779 226.196 63.4995 227.77 63.9447C230.399 73.974 223.39 76.4178 207.123 79.8066Z" fill="#539256"/>
<path d="M88.9655 168.327C88.893 168.327 88.8192 168.326 88.7441 168.326C92.8015 166.545 96.4368 163.652 99.228 159.745C102.933 154.557 106.4 152.684 110.353 152.684C111.216 152.684 112.106 152.773 113.025 152.939C110.784 154.104 108.586 156.103 106.356 159.222C102.427 164.724 96.4174 168.036 89.8692 168.307C89.5675 168.32 89.2672 168.327 88.9655 168.327Z" fill="#A4E3AD"/>
<path d="M151.222 160.649C160.139 156.536 163.564 145.282 160.91 131.765C159.858 126.405 162.191 125.071 166.154 125.071C166.299 125.071 166.444 125.071 166.59 125.075C165.887 125.383 165.271 125.822 164.752 126.42C162.689 128.798 163.473 132.358 164.243 134.828C166.882 143.298 165.469 151.581 160.557 156.446C158.025 158.953 154.837 160.368 151.222 160.649ZM186.415 126.161C185.918 126.161 185.409 126.149 184.892 126.124C189.604 125.425 193.894 123.166 196.521 117.457C205.742 97.426 186.03 93.9282 209.559 89.1584C225.713 85.884 235.567 84.1072 238.925 79.1449C239.16 81.203 238.712 82.3055 238.292 83.0006C235.992 86.8272 227.258 88.5916 214.041 91.262L211.879 91.6984C204.34 93.227 200.974 94.6894 199.467 97.093C198.077 99.3042 198.67 101.629 199.295 104.093C200.222 107.731 201.374 112.259 197.955 119.689C195.656 124.68 191.615 126.161 186.415 126.161Z" fill="#A4E3AD"/>
<path d="M26.134 149.25C28.0766 149.25 29.5196 149.846 30.4281 151.029C32.1896 153.318 31.1524 156.515 29.9512 160.217C28.8529 163.6 27.6077 167.436 28.958 169.489C29.775 170.73 31.6802 171.499 34.6238 171.774C42.7179 172.531 47.8458 166.95 52.3692 162.023C55.8157 158.27 59.0612 154.703 63.2443 154.807C65.8773 154.859 68.4017 156.352 70.9612 159.371C76.0957 165.427 82.8114 168.603 89.8693 168.307C96.4177 168.035 102.427 164.724 106.357 159.222C114.29 148.117 121.85 151.216 132.315 155.502C135.466 156.793 139.035 158.255 143.128 159.574C150.073 161.809 156.262 160.699 160.557 156.446C165.468 151.581 166.88 143.298 164.243 134.828C163.473 132.359 162.689 128.8 164.753 126.419C167.199 123.597 171.865 124.346 177.27 125.215C186.839 126.75 194.441 127.321 197.953 119.688C201.375 112.259 200.221 107.729 199.295 104.091C198.668 101.63 198.076 99.3036 199.465 97.0923C200.974 94.69 204.339 93.2277 211.88 91.6982L214.041 91.2618C227.258 88.5909 235.991 86.8286 238.292 83.0017C238.867 82.0471 239.496 80.3309 238.345 76.4411C236.53 70.3169 233.842 66.5949 229.883 64.7297C223.83 61.8785 214.188 63.2296 201.23 68.7454C194.548 71.5883 187.802 76.9803 179.993 83.2262C167.801 92.9696 152.63 105.101 129.869 113.959C103.255 124.317 72.0244 128.039 34.4012 125.341C32.3841 125.481 8.52731 127.424 5.74318 140.331C4.99019 143.824 5.23062 146.309 6.45861 147.716C8.88817 150.505 15.6918 149.989 21.6943 149.533C22.9815 149.435 24.3114 149.334 25.5849 149.265C25.7725 149.254 25.9555 149.25 26.134 149.25ZM36.1097 176.424C35.4872 176.424 34.8498 176.395 34.1966 176.334C29.7387 175.915 26.7737 174.499 25.1328 172.005C22.5747 168.115 24.2493 162.952 25.5963 158.803C26.125 157.172 26.9092 154.755 26.785 153.884C26.6359 153.849 26.3432 153.807 25.8323 153.837C24.6085 153.902 23.361 153.997 22.0401 154.098C14.6201 154.659 6.94558 155.242 3.00794 150.725C0.7477 148.134 0.178493 144.416 1.26802 139.366C4.89493 122.55 33.088 120.826 34.2858 120.76C34.3819 120.756 34.479 120.756 34.5751 120.765C118.161 126.795 152.244 99.5449 177.134 79.649C185.205 73.1954 192.177 67.6208 199.438 64.5325C213.85 58.3999 224.447 57.1096 231.834 60.5881C237.058 63.0513 240.522 67.6733 242.734 75.1403C243.984 79.3616 243.814 82.7038 242.215 85.362C238.873 90.9156 229.868 92.7346 214.947 95.7495L212.79 96.1859C207.201 97.3189 204.025 98.4434 203.343 99.5281C203.013 100.051 203.278 101.173 203.733 102.963C204.719 106.84 206.211 112.7 202.113 121.604C196.866 132.998 184.636 131.035 176.544 129.734C173.535 129.253 168.989 128.519 168.213 129.417C168.185 129.446 167.592 130.185 168.613 133.466C171.811 143.728 170.002 153.534 163.777 159.699C158.291 165.136 150.251 166.677 141.723 163.931C137.464 162.559 133.807 161.061 130.58 159.74C120.203 155.488 115.908 153.728 110.083 161.882C105.327 168.542 98.028 172.55 90.0604 172.882C81.5559 173.233 73.5363 169.488 67.4693 162.332C65.831 160.401 64.3789 159.41 63.1528 159.385C63.1381 159.385 63.1224 159.385 63.1064 159.385C61.0082 159.385 58.4498 162.172 55.7412 165.121C51.3183 169.938 45.3634 176.424 36.1097 176.424Z" fill="#6D184E"/>
<path d="M134.626 133.548C171.644 118.077 201.156 94.3884 216.203 65.1109C199.482 28.9585 163.166 3.72404 120.877 3.04208C62.1261 2.09665 13.248 49.2931 12.2236 108.043C12.0473 118.166 13.2846 127.968 15.7396 137.278C49.0384 154.134 91.8363 151.427 134.626 133.548Z" fill="#F9A332"/>
<path d="M135.439 4.26503H135.437H135.439ZM135.329 4.24957C135.326 4.24957 135.326 4.24737 135.324 4.24737C135.326 4.24737 135.326 4.24957 135.329 4.24957ZM135.271 4.24075C135.269 4.24075 135.271 4.24073 135.269 4.23852L135.271 4.24075ZM135.218 4.2319C135.216 4.2319 135.214 4.23191 135.209 4.2297C135.214 4.23191 135.216 4.2319 135.218 4.2319ZM135.158 4.22306H135.156H135.158ZM134.991 4.19878C134.988 4.19657 134.988 4.19658 134.986 4.19658C134.988 4.19658 134.988 4.19657 134.991 4.19878ZM134.715 4.15681C134.712 4.15681 134.71 4.15681 134.708 4.15681C134.71 4.15681 134.712 4.15681 134.715 4.15681ZM134.666 4.15019C134.659 4.15019 134.655 4.14799 134.651 4.14799C134.655 4.14799 134.659 4.15019 134.666 4.15019ZM134.611 4.14137C134.604 4.14137 134.598 4.13915 134.593 4.13915C134.6 4.14135 134.602 4.14137 134.611 4.14137ZM134.56 4.13472C134.549 4.13252 134.542 4.13253 134.531 4.13033C134.54 4.13253 134.551 4.13252 134.56 4.13472ZM134.505 4.1259C134.494 4.1259 134.485 4.12369 134.474 4.12148C134.485 4.12369 134.492 4.1237 134.505 4.1259ZM134.445 4.11706C134.434 4.11706 134.427 4.11486 134.416 4.11486C134.425 4.11486 134.434 4.11706 134.445 4.11706ZM134.386 4.11044C134.374 4.10823 134.37 4.10823 134.359 4.10602C134.368 4.10602 134.374 4.10823 134.386 4.11044ZM134.33 4.1016C134.319 4.09939 134.308 4.09941 134.297 4.0972C134.308 4.09941 134.317 4.09939 134.33 4.1016ZM134.271 4.09278C134.262 4.09278 134.251 4.09057 134.24 4.08836C134.253 4.09057 134.26 4.09278 134.271 4.09278ZM134.213 4.08394C134.204 4.08394 134.193 4.08174 134.185 4.08174C134.193 4.08174 134.204 4.08394 134.213 4.08394ZM134.154 4.07731C134.143 4.07511 134.136 4.0751 134.127 4.07289C134.136 4.0751 134.145 4.07511 134.154 4.07731ZM134.096 4.06847C134.085 4.06626 134.072 4.06628 134.061 4.06407C134.074 4.06628 134.083 4.06626 134.096 4.06847ZM134.039 4.06185C134.023 4.05743 134.01 4.05745 133.992 4.05303C134.01 4.05745 134.023 4.05743 134.039 4.06185ZM133.981 4.05303C133.962 4.05082 133.946 4.04861 133.926 4.04419C133.944 4.0464 133.964 4.05082 133.981 4.05303ZM133.913 4.04419C133.895 4.03977 133.882 4.03976 133.864 4.03535C133.88 4.03755 133.897 4.04198 133.913 4.04419ZM133.849 4.03535C133.836 4.03314 133.822 4.03093 133.805 4.02873C133.822 4.03093 133.833 4.03314 133.849 4.03535ZM133.787 4.02653C133.776 4.02432 133.761 4.02211 133.747 4.0199C133.763 4.02211 133.774 4.02432 133.787 4.02653ZM133.725 4.01768C133.712 4.01547 133.703 4.01326 133.69 4.01326C133.701 4.01326 133.714 4.01547 133.725 4.01768ZM133.668 4.00886C133.655 4.00665 133.643 4.00665 133.63 4.00444C133.643 4.00665 133.655 4.00665 133.668 4.00886ZM133.61 4.00222C133.597 4.00001 133.582 3.99781 133.571 3.9956C133.582 3.99781 133.599 4.00001 133.61 4.00222ZM133.555 3.9934C133.54 3.99119 133.526 3.99119 133.511 3.98898C133.526 3.99119 133.54 3.99119 133.555 3.9934ZM133.493 3.98678C133.48 3.98457 133.467 3.98234 133.451 3.98014C133.467 3.98234 133.48 3.98457 133.493 3.98678ZM133.436 3.97794C133.42 3.97573 133.407 3.97352 133.394 3.97131C133.407 3.97352 133.42 3.97573 133.436 3.97794ZM133.376 3.96909C133.361 3.96909 133.345 3.9669 133.332 3.96469C133.345 3.9669 133.363 3.96909 133.376 3.96909ZM133.319 3.96247C133.303 3.96026 133.29 3.95806 133.27 3.95585C133.288 3.95806 133.303 3.96026 133.319 3.96247ZM133.259 3.95365C133.239 3.95144 133.224 3.94922 133.204 3.94701C133.222 3.94922 133.242 3.95144 133.259 3.95365ZM133.204 3.94701C133.184 3.9448 133.164 3.9426 133.144 3.94039C133.164 3.9426 133.182 3.9448 133.204 3.94701ZM133.144 3.94039C133.023 3.92272 132.906 3.90727 132.784 3.89402C132.904 3.90727 133.023 3.92272 133.144 3.94039ZM132.78 3.8918C132.76 3.88959 132.745 3.88739 132.725 3.88518C132.74 3.88739 132.762 3.88959 132.78 3.8918ZM132.72 3.88518C132.7 3.88297 132.683 3.88077 132.663 3.87856C132.683 3.88077 132.703 3.88297 132.72 3.88518ZM132.663 3.87636C132.621 3.87194 132.583 3.86751 132.544 3.86309C132.583 3.86751 132.621 3.87194 132.663 3.87636ZM132.539 3.86309C132.522 3.85868 132.504 3.85648 132.482 3.85427C132.504 3.85648 132.519 3.85868 132.539 3.86309ZM132.482 3.85427C132.462 3.85206 132.444 3.84984 132.424 3.84763C132.442 3.84984 132.464 3.85206 132.482 3.85427ZM132.422 3.84763C129.152 3.44128 125.839 3.1829 122.487 3.07911C125.839 3.1829 129.154 3.44128 132.422 3.84763ZM122.484 3.07911C122.464 3.07911 122.445 3.07911 122.424 3.07911C122.444 3.07911 122.465 3.07911 122.484 3.07911ZM122.422 3.07911C122.402 3.0769 122.384 3.07691 122.363 3.07691C122.383 3.07691 122.403 3.0769 122.422 3.07911ZM122.361 3.07691C122.341 3.0747 122.324 3.07469 122.304 3.07469C122.32 3.07469 122.344 3.0747 122.361 3.07691ZM122.297 3.07469C122.281 3.07469 122.259 3.07249 122.244 3.07249C122.26 3.07249 122.28 3.07469 122.297 3.07469ZM122.235 3.07249C122.219 3.07249 122.197 3.07249 122.182 3.07029C122.198 3.07249 122.218 3.07249 122.235 3.07249ZM122.173 3.07029C122.153 3.07029 122.139 3.07029 122.118 3.07029C122.137 3.07029 122.154 3.07029 122.173 3.07029ZM122.114 3.07029C122.095 3.06808 122.075 3.06806 122.057 3.06806C122.074 3.06806 122.097 3.06808 122.114 3.07029ZM122.052 3.06806C121.928 3.06365 121.807 3.06145 121.684 3.05924C121.807 3.06145 121.928 3.06365 122.052 3.06806ZM121.676 3.05702C121.658 3.05702 121.639 3.05702 121.621 3.05702C121.641 3.05702 121.657 3.05702 121.676 3.05702ZM121.618 3.05702C121.596 3.05702 121.582 3.05482 121.562 3.05482C121.581 3.05482 121.598 3.05702 121.618 3.05702ZM121.55 3.05482C121.534 3.05482 121.517 3.05482 121.501 3.05482C121.518 3.05482 121.533 3.05482 121.55 3.05482ZM121.487 3.05482C121.472 3.05261 121.457 3.0526 121.441 3.0526C121.456 3.0526 121.473 3.05261 121.487 3.05482ZM121.425 3.0526C121.411 3.0526 121.396 3.0526 121.381 3.0526C121.395 3.0526 121.411 3.0526 121.425 3.0526ZM121.363 3.0504C121.35 3.0504 121.336 3.0504 121.324 3.0504C121.338 3.0504 121.349 3.0504 121.363 3.0504ZM121.3 3.0504C121.288 3.0504 121.275 3.05041 121.263 3.0482C121.275 3.05041 121.289 3.0504 121.3 3.0504ZM121.24 3.0482C121.228 3.0482 121.214 3.0482 121.202 3.0482C121.213 3.0482 121.228 3.0482 121.24 3.0482ZM121.18 3.0482C121.168 3.0482 121.154 3.04598 121.141 3.04598C121.155 3.04598 121.166 3.0482 121.18 3.0482ZM121.119 3.04598C121.106 3.04598 121.095 3.04598 121.083 3.04598C121.095 3.04598 121.107 3.04598 121.119 3.04598ZM121.058 3.04598C121.046 3.04598 121.033 3.04599 121.021 3.04378C121.032 3.04599 121.046 3.04598 121.058 3.04598ZM120.998 3.04378C120.982 3.04378 120.967 3.04378 120.952 3.04378C120.969 3.04378 120.981 3.04378 120.998 3.04378ZM120.938 3.04378C120.918 3.04378 120.899 3.04377 120.877 3.04156C120.897 3.04377 120.919 3.04378 120.938 3.04378ZM120.877 3.04156C120.824 3.04156 120.769 3.04157 120.716 3.03936C120.77 3.04157 120.823 3.04156 120.877 3.04156ZM118.321 3.03052C118.462 3.03052 118.602 3.02832 118.742 3.02832C118.757 3.02832 118.773 3.02832 118.789 3.02832C118.632 3.03053 118.478 3.03052 118.321 3.03052Z" fill="#FFF6AF"/>
<path d="M22.96 63.3328C40.2195 27.9873 76.4122 3.51381 117.92 3.04121C118.054 3.0368 118.186 3.03458 118.32 3.03237C118.478 3.03237 118.631 3.03017 118.788 3.03017C118.8 3.03017 118.81 3.03017 118.821 3.03017C118.935 3.03017 119.049 3.03017 119.165 3.03017C119.68 3.03017 120.197 3.03459 120.715 3.04121C120.768 3.04121 120.823 3.04342 120.877 3.04342C120.898 3.04342 120.917 3.04343 120.938 3.04564C120.942 3.04564 120.946 3.04564 120.951 3.04564C120.966 3.04564 120.982 3.04564 120.997 3.04564C121.004 3.04564 121.012 3.04564 121.02 3.04564C121.033 3.04564 121.045 3.04563 121.057 3.04784C121.064 3.04784 121.074 3.04784 121.082 3.04784C121.095 3.04784 121.105 3.04784 121.118 3.04784C121.125 3.04784 121.133 3.04784 121.14 3.04784C121.153 3.04784 121.167 3.04785 121.179 3.05006C121.187 3.05006 121.193 3.05006 121.201 3.05006C121.213 3.05006 121.227 3.05006 121.239 3.05006C121.247 3.05006 121.255 3.05006 121.262 3.05006C121.274 3.05006 121.287 3.05005 121.299 3.05226C121.307 3.05226 121.316 3.05226 121.323 3.05226C121.335 3.05226 121.349 3.05226 121.362 3.05226C121.367 3.05226 121.375 3.05226 121.381 3.05226C121.395 3.05226 121.41 3.05445 121.425 3.05445C121.432 3.05445 121.434 3.05445 121.44 3.05445C121.456 3.05445 121.471 3.05445 121.487 3.05445C121.491 3.05445 121.496 3.05445 121.5 3.05445C121.516 3.05666 121.533 3.05668 121.549 3.05668C121.551 3.05668 121.559 3.05668 121.561 3.05668C121.582 3.05668 121.595 3.05667 121.617 3.05888H121.62C121.638 3.05888 121.657 3.05888 121.675 3.05888C121.678 3.05888 121.68 3.05888 121.683 3.05888C121.807 3.06329 121.927 3.0655 122.051 3.06992C122.053 3.06992 122.054 3.06992 122.056 3.06992C122.074 3.06992 122.095 3.06992 122.113 3.06992C122.115 3.06992 122.115 3.06992 122.117 3.06992C122.138 3.07213 122.152 3.07214 122.173 3.07214C122.175 3.07214 122.178 3.07214 122.182 3.07214C122.196 3.07214 122.218 3.07434 122.234 3.07434C122.236 3.07434 122.241 3.07434 122.243 3.07434C122.258 3.07434 122.28 3.07433 122.296 3.07654C122.3 3.07654 122.298 3.07654 122.303 3.07654C122.323 3.07654 122.34 3.07655 122.36 3.07876C122.362 3.07876 122.359 3.07655 122.362 3.07876C122.383 3.07876 122.401 3.07876 122.421 3.07876H122.423C122.444 3.08097 122.463 3.08096 122.483 3.08096C122.486 3.08096 122.482 3.08096 122.486 3.08096C125.838 3.18476 129.15 3.44313 132.421 3.84948H132.423C132.443 3.85169 132.461 3.85392 132.481 3.85612C132.503 3.85833 132.52 3.86054 132.54 3.86274L132.545 3.86494C132.582 3.86936 132.62 3.87379 132.662 3.87821C132.682 3.88263 132.699 3.88261 132.719 3.88703C132.721 3.88703 132.721 3.88703 132.724 3.88703C132.743 3.88924 132.759 3.89144 132.779 3.89365C132.781 3.89365 132.781 3.89365 132.783 3.89365C132.905 3.90911 133.024 3.92458 133.143 3.94004C133.163 3.94445 133.183 3.94665 133.203 3.94886C133.223 3.95107 133.238 3.95329 133.258 3.9555C133.26 3.9555 133.269 3.9577 133.271 3.9577C133.289 3.95991 133.302 3.96212 133.32 3.96432C133.324 3.96432 133.324 3.96434 133.331 3.96655C133.344 3.96655 133.36 3.96873 133.375 3.97094C133.382 3.97315 133.386 3.97316 133.393 3.97316C133.406 3.97537 133.419 3.97758 133.435 3.97979C133.439 3.97979 133.446 3.98199 133.45 3.98199C133.468 3.9842 133.479 3.98641 133.492 3.98641C133.497 3.98862 133.505 3.98863 133.51 3.98863C133.525 3.99084 133.539 3.99304 133.554 3.99525C133.558 3.99525 133.565 3.99745 133.569 3.99745C133.58 3.99966 133.596 4.00186 133.609 4.00407C133.616 4.00407 133.622 4.00408 133.629 4.00629C133.642 4.0085 133.653 4.0085 133.667 4.01071C133.675 4.01292 133.68 4.01291 133.689 4.01291C133.702 4.01512 133.711 4.01733 133.724 4.01953C133.731 4.01953 133.739 4.02176 133.748 4.02176C133.759 4.02396 133.775 4.02615 133.786 4.02615C133.79 4.02836 133.801 4.02837 133.806 4.03057C133.821 4.03278 133.834 4.03279 133.85 4.035C133.854 4.0372 133.859 4.0372 133.863 4.0372C133.881 4.03941 133.896 4.04163 133.912 4.04384C133.916 4.04384 133.923 4.04604 133.925 4.04604C133.945 4.04825 133.96 4.05046 133.98 4.05488C133.985 4.05488 133.987 4.05488 133.991 4.05488C134.009 4.05709 134.022 4.05929 134.04 4.0615C134.044 4.06371 134.053 4.06371 134.06 4.06592C134.071 4.06592 134.084 4.06812 134.097 4.07032C134.106 4.07253 134.117 4.07254 134.126 4.07474C134.137 4.07474 134.144 4.07697 134.152 4.07697C134.161 4.07917 134.175 4.08136 134.183 4.08136C134.194 4.08357 134.203 4.08578 134.212 4.08578C134.221 4.08799 134.23 4.088 134.241 4.09021C134.25 4.09241 134.261 4.09242 134.27 4.09463C134.278 4.09684 134.289 4.09684 134.296 4.09905C134.307 4.09905 134.318 4.10124 134.329 4.10345C134.338 4.10345 134.349 4.10566 134.358 4.10787C134.369 4.10787 134.373 4.11009 134.384 4.11009C134.393 4.1123 134.406 4.11449 134.415 4.11449C134.426 4.1167 134.433 4.11891 134.444 4.11891C134.453 4.12112 134.464 4.12333 134.475 4.12333C134.484 4.12554 134.493 4.12555 134.504 4.12775C134.512 4.12996 134.521 4.12997 134.53 4.13218C134.541 4.13438 134.548 4.13437 134.559 4.13657C134.568 4.13657 134.583 4.13879 134.592 4.141C134.596 4.141 134.603 4.14322 134.61 4.14322C134.623 4.14542 134.636 4.14763 134.649 4.14984C134.654 4.14984 134.658 4.14983 134.665 4.15204C134.678 4.15425 134.694 4.15645 134.707 4.15866C134.709 4.15866 134.711 4.15866 134.713 4.15866C134.802 4.17191 134.897 4.18518 134.985 4.19843C134.987 4.19843 134.987 4.19843 134.989 4.19843C135.027 4.20505 135.065 4.20947 135.102 4.21609C135.12 4.2183 135.137 4.22049 135.155 4.22491H135.159C135.175 4.22712 135.193 4.22934 135.21 4.23155C135.212 4.23155 135.215 4.23375 135.217 4.23375C135.235 4.23596 135.248 4.23817 135.268 4.24037C135.27 4.24037 135.268 4.24037 135.27 4.24037C135.29 4.24479 135.303 4.24701 135.323 4.24921C135.325 4.24921 135.325 4.24921 135.327 4.24921C135.345 4.25363 135.365 4.25583 135.38 4.25804C135.4 4.26025 135.418 4.26467 135.436 4.26688H135.438C168.888 9.39038 197.229 30.0191 212.906 58.5826C194.707 33.1638 166.389 15.49 133.843 11.4287C133.154 15.3619 126.657 18.447 118.741 18.447C110.964 18.447 104.558 15.4701 103.681 11.6363C84.4894 14.3151 66.7429 21.7861 51.7344 32.8061C51.7613 32.7553 51.7885 32.7067 51.8145 32.6559V32.6581C51.6575 32.8017 51.5014 32.9474 51.3455 33.0932C40.1731 41.3681 30.5321 51.6217 22.96 63.3328Z" fill="#FCD199"/>
<path d="M134.624 133.548C134.658 133.534 134.692 133.521 134.725 133.506C134.692 133.521 134.656 133.534 134.624 133.548ZM134.753 133.494C134.778 133.484 134.8 133.475 134.825 133.465C134.799 133.475 134.78 133.484 134.753 133.494ZM134.857 133.45C134.881 133.44 134.909 133.429 134.931 133.419C134.907 133.429 134.882 133.44 134.857 133.45ZM134.957 133.409C134.991 133.394 135.02 133.381 135.054 133.368C135.023 133.381 134.99 133.396 134.957 133.409ZM135.059 133.366C135.094 133.352 135.128 133.337 135.164 133.322C135.129 133.337 135.094 133.352 135.059 133.366ZM135.17 133.319C135.201 133.306 135.235 133.293 135.266 133.278C135.233 133.293 135.202 133.306 135.17 133.319ZM135.285 133.271C135.316 133.259 135.342 133.247 135.373 133.234C135.343 133.246 135.314 133.259 135.285 133.271ZM135.387 133.227C135.421 133.214 135.454 133.2 135.487 133.186C135.455 133.2 135.421 133.214 135.387 133.227ZM135.49 133.184C135.564 133.153 135.631 133.124 135.703 133.093C135.633 133.124 135.562 133.153 135.49 133.184ZM135.712 133.09C135.744 133.077 135.777 133.062 135.809 133.049C135.775 133.062 135.746 133.077 135.712 133.09ZM135.819 133.045C135.962 132.985 136.102 132.924 136.245 132.864C136.102 132.924 135.962 132.985 135.819 133.045ZM136.248 132.861C136.571 132.723 136.889 132.587 137.212 132.449C136.891 132.587 136.569 132.725 136.248 132.861ZM137.217 132.446C137.359 132.384 137.499 132.324 137.641 132.262C137.5 132.322 137.358 132.386 137.217 132.446ZM137.646 132.259C137.786 132.199 137.927 132.137 138.068 132.076C137.927 132.137 137.786 132.199 137.646 132.259ZM138.077 132.071C138.215 132.011 138.358 131.948 138.497 131.888C138.356 131.95 138.218 132.01 138.077 132.071ZM138.507 131.883C138.537 131.87 138.57 131.856 138.601 131.841C138.572 131.856 138.537 131.87 138.507 131.883ZM138.61 131.838C138.713 131.792 138.82 131.745 138.923 131.7C138.82 131.745 138.714 131.792 138.61 131.838ZM138.936 131.694C138.968 131.679 138.993 131.669 139.024 131.654C138.996 131.668 138.965 131.681 138.936 131.694ZM139.042 131.647C139.076 131.632 139.106 131.619 139.14 131.605C139.106 131.619 139.077 131.632 139.042 131.647ZM139.14 131.603C139.209 131.572 139.28 131.541 139.349 131.512C139.28 131.541 139.209 131.572 139.14 131.603ZM139.366 131.503C139.394 131.492 139.423 131.478 139.45 131.467C139.423 131.478 139.394 131.492 139.366 131.503ZM139.469 131.458C139.498 131.445 139.525 131.433 139.554 131.42C139.528 131.433 139.497 131.445 139.469 131.458ZM139.573 131.411C139.641 131.381 139.705 131.352 139.771 131.323C139.705 131.352 139.641 131.381 139.573 131.411ZM139.802 131.309C139.826 131.298 139.848 131.287 139.873 131.277C139.849 131.287 139.824 131.299 139.802 131.309ZM139.904 131.264C139.926 131.254 139.949 131.243 139.971 131.233C139.948 131.243 139.927 131.252 139.904 131.264ZM140.003 131.218C140.03 131.207 140.056 131.195 140.083 131.183C140.058 131.193 140.028 131.208 140.003 131.218ZM140.102 131.174C140.133 131.16 140.169 131.144 140.2 131.13C140.168 131.145 140.134 131.16 140.102 131.174ZM140.225 131.12C140.25 131.108 140.272 131.098 140.297 131.088C140.274 131.098 140.249 131.11 140.225 131.12ZM140.334 131.07C140.353 131.061 140.372 131.053 140.392 131.044C140.372 131.053 140.353 131.061 140.334 131.07ZM140.436 131.025C140.454 131.017 140.47 131.008 140.489 131.001C140.47 131.008 140.454 131.016 140.436 131.025ZM140.533 130.981C140.548 130.973 140.566 130.966 140.582 130.959C140.564 130.966 140.55 130.973 140.533 130.981ZM140.676 130.916C140.69 130.909 140.704 130.904 140.717 130.897C140.705 130.903 140.689 130.91 140.676 130.916ZM140.773 130.872C140.784 130.868 140.799 130.86 140.809 130.854C140.798 130.86 140.784 130.866 140.773 130.872ZM140.868 130.828C140.88 130.823 140.892 130.818 140.902 130.813C140.892 130.818 140.88 130.823 140.868 130.828ZM140.965 130.784C140.968 130.784 140.971 130.782 140.972 130.781C140.971 130.782 140.968 130.784 140.965 130.784ZM141.218 130.669C141.22 130.668 141.223 130.668 141.228 130.665C141.225 130.666 141.22 130.668 141.218 130.669ZM141.309 130.628L141.312 130.627L141.309 130.628Z" fill="#5B6D54"/>
<path d="M66.0869 148.543C57.8968 148.543 49.9213 147.804 42.2474 146.291C38.4607 145.355 34.7509 144.229 31.135 142.89C24.4691 140.422 19.6948 134.509 18.6111 127.484C17.6936 121.532 17.2664 115.421 17.3749 109.189C17.898 79.1801 30.9134 52.1952 51.3462 33.0925C51.476 32.9952 51.6049 32.9 51.7349 32.8048C43.9899 47.2503 39.463 63.669 39.1591 81.1086C39.1535 81.4367 39.1488 81.7649 39.1466 82.0931C38.9918 100.39 51.9993 116.109 69.9775 119.521C77.4017 120.929 85.1005 121.615 93.0025 121.615C114.825 121.615 138.196 116.375 161.561 106.613C178.143 99.6826 193.213 91.0975 206.157 81.1065C190.956 101.404 168.365 118.281 141.313 130.626L141.309 130.628C141.283 130.64 141.257 130.652 141.228 130.664C141.224 130.666 141.222 130.668 141.218 130.668C141.135 130.707 141.056 130.743 140.973 130.78C140.971 130.782 140.969 130.784 140.967 130.784C140.945 130.794 140.924 130.802 140.904 130.812C140.892 130.816 140.88 130.822 140.87 130.826C140.849 130.836 140.831 130.845 140.811 130.855C140.801 130.859 140.785 130.867 140.772 130.871C140.752 130.879 140.738 130.887 140.718 130.895C140.704 130.903 140.691 130.907 140.677 130.915C140.645 130.928 140.614 130.944 140.582 130.958C140.566 130.964 140.55 130.972 140.533 130.98C140.519 130.986 140.503 130.992 140.489 131.001C140.471 131.009 140.454 131.015 140.438 131.023C140.424 131.029 140.408 131.035 140.394 131.043C140.373 131.051 140.353 131.061 140.335 131.069C140.323 131.075 140.311 131.08 140.298 131.088C140.272 131.098 140.25 131.108 140.226 131.118C140.215 131.122 140.209 131.126 140.201 131.13C140.171 131.142 140.134 131.159 140.104 131.175C140.096 131.177 140.092 131.179 140.084 131.181C140.057 131.195 140.031 131.205 140.005 131.217C139.995 131.221 139.982 131.227 139.972 131.233C139.95 131.244 139.928 131.254 139.903 131.264C139.893 131.268 139.883 131.272 139.873 131.276C139.849 131.286 139.826 131.296 139.802 131.308C139.794 131.312 139.782 131.317 139.772 131.323C139.705 131.351 139.64 131.381 139.575 131.41C139.567 131.414 139.561 131.416 139.555 131.42C139.527 131.432 139.5 131.444 139.47 131.456C139.464 131.46 139.458 131.462 139.452 131.464C139.423 131.477 139.395 131.491 139.369 131.503C139.361 131.505 139.356 131.507 139.35 131.511C139.282 131.541 139.211 131.572 139.142 131.602H139.14C139.107 131.618 139.077 131.63 139.042 131.647C139.038 131.649 139.03 131.651 139.024 131.655C138.994 131.667 138.97 131.679 138.937 131.693C138.931 131.695 138.929 131.697 138.923 131.699C138.822 131.744 138.714 131.793 138.611 131.837C138.607 131.839 138.607 131.839 138.603 131.841C138.57 131.853 138.538 131.87 138.508 131.882C138.504 131.884 138.502 131.886 138.498 131.886C138.358 131.949 138.216 132.009 138.078 132.07C138.076 132.072 138.07 132.074 138.07 132.076C137.928 132.137 137.789 132.198 137.647 132.258C137.645 132.261 137.645 132.26 137.643 132.26C137.499 132.323 137.361 132.382 137.217 132.445C137.215 132.447 137.213 132.447 137.213 132.447C136.891 132.587 136.571 132.722 136.249 132.86L136.245 132.862C136.103 132.923 135.961 132.984 135.82 133.044C135.815 133.044 135.813 133.046 135.809 133.049C135.777 133.063 135.745 133.075 135.712 133.089C135.71 133.091 135.706 133.093 135.704 133.093C135.631 133.123 135.564 133.152 135.491 133.182C135.491 133.184 135.491 133.184 135.487 133.184C135.455 133.198 135.422 133.213 135.388 133.227C135.384 133.229 135.38 133.231 135.374 133.233C135.343 133.247 135.317 133.257 135.285 133.269C135.279 133.271 135.273 133.275 135.266 133.277C135.236 133.292 135.202 133.306 135.171 133.318C135.169 133.318 135.167 133.32 135.165 133.32C135.129 133.336 135.094 133.35 135.06 133.365C135.056 133.367 135.056 133.367 135.056 133.367C135.021 133.381 134.993 133.393 134.959 133.407C134.948 133.411 134.94 133.415 134.932 133.417C134.91 133.427 134.882 133.439 134.859 133.45C134.849 133.454 134.837 133.458 134.827 133.464C134.801 133.474 134.778 133.482 134.754 133.494C134.744 133.496 134.734 133.502 134.726 133.504C134.691 133.521 134.659 133.533 134.624 133.547C111.264 143.309 87.9051 148.543 66.0869 148.543Z" fill="#BF6700"/>
<path d="M51.3457 33.091C51.5016 32.945 51.6576 32.8011 51.8147 32.6572V32.6552C51.7885 32.7059 51.7616 32.7545 51.7344 32.8052C51.6045 32.9005 51.4756 32.9957 51.3457 33.091Z" fill="#D19982"/>
<path d="M66.6677 43.8994C65.5603 47.3812 63.6473 49.9294 62.4291 49.5428C61.2111 49.1541 61.1207 45.9708 62.228 42.487C63.3342 39.0052 65.2484 36.457 66.4666 36.8436C67.6079 37.2082 67.773 40.033 66.8428 43.3164L66.6677 43.8994Z" fill="#FCE69F"/>
<path d="M84.7451 46.1425C84.1203 49.7447 82.5699 52.5279 81.3099 52.3092C80.0511 52.0905 79.5291 48.9475 80.1539 45.3473C80.7799 41.7451 82.3303 38.962 83.5891 39.1807C84.77 39.3854 85.3157 42.1626 84.8399 45.5422L84.7451 46.1425Z" fill="#FCE69F"/>
<path d="M108.083 45.4191C108.592 49.0389 107.97 52.1638 106.704 52.3407C105.437 52.5196 103.978 49.687 103.469 46.0671C102.961 42.4492 103.585 39.3243 104.849 39.1474C106.036 38.9804 107.407 41.4553 107.99 44.8187L108.083 45.4191Z" fill="#FCE69F"/>
<path d="M127.6 37.9351C129.534 41.0358 130.23 44.1446 129.147 44.821C128.063 45.4975 125.578 43.5006 123.646 40.3999C121.71 37.2992 121.013 34.1904 122.097 33.5139C123.114 32.88 125.372 34.5873 127.267 37.4247L127.6 37.9351Z" fill="#FCE69F"/>
<path d="M142.567 25.5235C145.16 28.1016 146.548 30.9687 145.645 31.8756C144.743 32.7803 141.872 31.4043 139.281 28.8262C136.69 26.2481 135.3 23.381 136.202 22.4742C137.048 21.626 139.635 22.7716 142.131 25.1005L142.567 25.5235Z" fill="#FCE69F"/>
<path d="M69.0745 103.002C67.858 103.002 66.875 102.017 66.875 100.802C66.875 99.5856 67.858 98.601 69.0745 98.601C70.2895 98.601 71.2741 99.5856 71.2741 100.802C71.2741 102.017 70.2895 103.002 69.0745 103.002Z" fill="#BF6700"/>
<path d="M104.562 82.0993C103.348 82.0993 102.362 81.1139 102.362 79.8992C102.362 78.6827 103.348 77.6973 104.562 77.6973C105.777 77.6973 106.763 78.6827 106.763 79.8992C106.763 81.1139 105.777 82.0993 104.562 82.0993Z" fill="#BF6700"/>
<path d="M111.834 104.997C110.617 104.997 109.634 104.012 109.634 102.798C109.634 101.583 110.617 100.598 111.834 100.598C113.048 100.598 114.033 101.583 114.033 102.798C114.033 104.012 113.048 104.997 111.834 104.997Z" fill="#E99335"/>
<path d="M133.066 78.0639C131.851 78.0639 130.867 77.0788 130.867 75.8628C130.867 74.6487 131.851 73.6635 133.066 73.6635C134.282 73.6635 135.268 74.6487 135.268 75.8628C135.268 77.0788 134.282 78.0639 133.066 78.0639Z" fill="#E99335"/>
<path d="M155.781 96.0713C154.566 96.0713 153.58 95.0859 153.58 93.8724C153.58 92.6556 154.566 91.6718 155.781 91.6718C156.997 91.6718 157.983 92.6556 157.983 93.8724C157.983 95.0859 156.997 96.0713 155.781 96.0713Z" fill="#BF6700"/>
<path d="M158.724 62.7786C157.509 62.7786 156.524 61.7937 156.524 60.5789C156.524 59.3623 157.509 58.3774 158.724 58.3774C159.941 58.3774 160.924 59.3623 160.924 60.5789C160.924 61.7937 159.941 62.7786 158.724 62.7786Z" fill="#BF6700"/>
<path d="M174.54 43.9234C173.325 43.9234 172.339 42.9391 172.339 41.7246C172.339 40.5101 173.325 39.5237 174.54 39.5237C175.754 39.5237 176.741 40.5101 176.741 41.7246C176.741 42.9391 175.754 43.9234 174.54 43.9234Z" fill="#BF6700"/>
<path d="M69.5146 80.1508C68.2999 80.1508 67.3145 79.1657 67.3145 77.9497C67.3145 76.7355 68.2999 75.7504 69.5146 75.7504C70.7304 75.7504 71.7159 76.7355 71.7159 77.9497C71.7159 79.1657 70.7304 80.1508 69.5146 80.1508Z" fill="#E99335"/>
<path d="M196.122 64.6472C194.907 64.6472 193.923 63.6628 193.923 62.448C193.923 61.2333 194.907 60.247 196.122 60.247C197.339 60.247 198.323 61.2333 198.323 62.448C198.323 63.6628 197.339 64.6472 196.122 64.6472Z" fill="#BF6700"/>
<path d="M181.855 88.6761C180.641 88.6761 179.654 87.6898 179.654 86.475C179.654 85.2603 180.641 84.2757 181.855 84.2757C183.07 84.2757 184.055 85.2603 184.055 86.475C184.055 87.6898 183.07 88.6761 181.855 88.6761Z" fill="#E99335"/>
<path d="M119.132 5.31837C62.274 5.31837 15.5065 51.0667 14.5122 108.084C14.4069 114.133 14.8217 120.208 15.7461 126.141C16.6997 132.265 20.8717 137.401 26.636 139.546C56.5549 150.675 94.592 147.794 133.742 131.435C166.984 117.544 192.795 97.6719 208.381 73.9632C211.942 68.5512 212.096 61.4946 208.773 55.9892C189.996 24.8523 157.123 5.91478 120.841 5.33174C120.271 5.32283 119.7 5.31837 119.132 5.31837ZM66.0335 150.841C51.3118 150.841 37.5664 148.497 25.0391 143.837C17.7247 141.115 12.4302 134.603 11.2218 126.844C10.2578 120.655 9.82474 114.315 9.93467 108.004C10.4407 78.9835 22.2944 51.8167 43.3124 31.5105C64.3249 11.211 91.8845 0.271332 120.914 0.754227C139.728 1.05687 158.207 6.23299 174.358 15.7218C190.04 24.9369 203.297 38.0441 212.694 53.6236C216.92 60.6312 216.729 69.6015 212.209 76.4778C196.118 100.952 169.594 121.416 135.506 135.658C115.759 143.911 96.347 148.856 77.8079 150.357C73.819 150.68 69.8924 150.841 66.0335 150.841Z" fill="#6D184E"/>
<path d="M184.849 218.342C183.531 225.457 176.693 230.153 169.579 228.834C162.466 227.514 157.767 220.678 159.089 213.563C159.863 209.384 161.538 210.333 164.272 211.282C166.19 211.949 168.627 212.614 171.639 211.508C180.239 208.35 186.168 211.229 184.849 218.342Z" fill="#FCAF15"/>
<path d="M169.555 228.83H169.554H169.555ZM178.319 219.783C178.64 218.985 178.885 218.145 179.049 217.267C179.658 213.983 178.708 211.616 176.678 210.314C177.127 210.271 177.56 210.25 177.98 210.25C182.9 210.25 185.778 213.141 184.862 218.263C185.155 216.627 185.048 215.226 184.624 214.063C183.133 216.355 180.894 218.463 178.319 219.783ZM184.853 218.316C184.853 218.314 184.855 218.311 184.855 218.307C184.855 218.311 184.853 218.313 184.853 218.316ZM184.859 218.292C184.859 218.283 184.86 218.275 184.862 218.265C184.86 218.275 184.859 218.283 184.859 218.292Z" fill="#FED78A"/>
<path d="M169.578 228.835C169.571 228.832 169.564 228.831 169.556 228.83C169.563 228.831 169.571 228.832 169.578 228.835ZM184.012 221.114C184.385 220.242 184.668 219.314 184.849 218.342C184.851 218.335 184.852 218.326 184.854 218.317C184.852 218.326 184.851 218.333 184.849 218.342C184.668 219.314 184.385 220.242 184.012 221.114Z" fill="#D18126"/>
<path d="M159.09 213.563C159.09 213.559 159.09 213.554 159.092 213.55C159.09 213.554 159.09 213.559 159.09 213.563Z" fill="#6D184E"/>
<path d="M169.555 228.83C162.454 227.5 157.769 220.67 159.088 213.564C159.088 213.56 159.089 213.556 159.089 213.551C159.494 211.388 160.139 210.608 161.05 210.487C162.367 215.124 165.965 220.088 171.027 221.027C171.631 221.139 172.233 221.192 172.835 221.192C174.732 221.192 176.601 220.662 178.319 219.783C176.403 224.538 171.846 227.736 166.742 227.956C167.627 228.342 168.564 228.643 169.555 228.83ZM184.854 218.307C184.856 218.303 184.857 218.297 184.857 218.292C184.857 218.297 184.856 218.303 184.854 218.307ZM184.863 218.266C184.863 218.266 184.863 218.265 184.863 218.263C184.863 218.265 184.863 218.266 184.863 218.266Z" fill="#D18126"/>
<path d="M172.065 229.056C177.27 229.022 181.977 225.877 184.012 221.114C181.977 225.878 177.27 229.023 172.065 229.056Z" fill="#D3B392"/>
<path d="M171.983 229.056C171.191 229.056 170.385 228.983 169.579 228.834C169.57 228.832 169.563 228.831 169.556 228.83H169.555C168.566 228.643 167.628 228.342 166.742 227.956C171.848 227.736 176.402 224.538 178.32 219.783C180.895 218.463 183.134 216.355 184.624 214.063C185.048 215.226 185.156 216.627 184.864 218.263C184.864 218.264 184.864 218.265 184.864 218.265C184.861 218.274 184.861 218.282 184.859 218.292C184.857 218.297 184.857 218.303 184.855 218.307C184.855 218.311 184.854 218.314 184.854 218.316C184.852 218.325 184.85 218.334 184.848 218.342C184.67 219.314 184.385 220.242 184.013 221.114C181.977 225.877 177.269 229.022 172.067 229.056C172.037 229.056 172.011 229.056 171.983 229.056Z" fill="#D29D78"/>
<path d="M161.642 212.811C161.559 213.028 161.447 213.393 161.338 213.982C160.812 216.822 161.422 219.695 163.056 222.076C164.692 224.456 167.157 226.056 169.996 226.584C172.836 227.109 175.709 226.5 178.09 224.864C180.471 223.23 182.07 220.764 182.598 217.926C182.856 216.534 182.892 214.646 181.604 213.558C179.938 212.153 176.423 212.191 172.427 213.658C168.325 215.165 165.073 214.002 162.92 213.233C162.513 213.087 161.996 212.902 161.642 212.811ZM172.001 231.348C171.058 231.348 170.108 231.261 169.159 231.084C165.12 230.335 161.612 228.057 159.283 224.668C156.955 221.281 156.086 217.189 156.836 213.147C157.129 211.572 157.676 209.643 159.333 208.689C161.049 207.7 162.862 208.35 164.463 208.922C166.351 209.597 168.304 210.295 170.85 209.36C176.553 207.265 181.548 207.521 184.556 210.06C186.874 212.016 187.777 215.106 187.098 218.761C186.35 222.803 184.071 226.31 180.683 228.638C178.089 230.42 175.082 231.348 172.001 231.348Z" fill="#6D184E"/>
<path d="M201.885 128.112C202.81 128.537 203.891 128.429 204.768 127.915C208.39 125.787 219.959 118.754 221.907 114.607C224.079 109.981 195.347 125.109 201.885 128.112Z" fill="#E5525F"/>
</svg>
