<svg width="24" height="24" viewBox="0 0 230 232" fill="none" xmlns="http://www.w3.org/2000/svg">
<g clip-path="url(#clip0_77_1642)">
<path fill-rule="evenodd" clip-rule="evenodd" d="M4.19165 43.9193L158.304 46.6022L225.793 3.52771L69.8249 2.68286L4.19165 43.9193Z" fill="#F8B84E" stroke="#F8B84E" stroke-width="2.56"/>
<path fill-rule="evenodd" clip-rule="evenodd" d="M158.273 201.206L157.533 46.8454L228.594 3.36646L227.122 159.24L158.273 201.206Z" fill="#F8AC36" stroke="#F8AC36" stroke-width="2.56"/>
<path d="M158.106 201.8L228.875 158.638M227.657 158.446L227.644 5.37085M227.654 157.993V160.681" stroke="#F8AC36" stroke-width="5.12"/>
<path d="M230.196 2.35522H69.1824" stroke="#F8B84E" stroke-width="5.12"/>
<path d="M-0.257568 45.1534L67.1728 4.03468L70.5187 2.01733" stroke="#F8B84E" stroke-width="5.17376"/>
<path fill-rule="evenodd" clip-rule="evenodd" d="M230.199 -0.199463L156.571 44.6901L159.233 49.0626L230.201 5.79601L230.199 -0.199463Z" fill="#F8AC36"/>
<path d="M227.654 158.134V160.822" stroke="#F8AC36" stroke-width="5.12"/>
<path d="M53.8147 45.5068H0.960938V201.424H156.87V45.5068H80.92H53.8147Z" fill="#FCD062" stroke="#FCD062" stroke-width="5.12" stroke-linecap="square"/>
<path d="M128.946 2.34509L59.8948 44.4059V102.044L75.8948 86.5077L92.1201 102.044L91.6951 41.6488L156.389 2.34009L128.946 2.34509Z" fill="#E5E9E9" stroke="#E5E9E9" stroke-width="5.12" stroke-linecap="square"/>
<path d="M159.42 227.817C189.167 227.817 213.282 203.702 213.282 173.955C213.282 144.207 189.167 120.092 159.42 120.092C129.672 120.092 105.557 144.207 105.557 173.955C105.557 203.702 129.672 227.817 159.42 227.817Z" fill="#37B19F" stroke="#37B19F" stroke-width="5.12" stroke-linecap="round" stroke-linejoin="round"/>
<path fill-rule="evenodd" clip-rule="evenodd" d="M194.072 152.73L142.048 188.068L126.119 164.644L121.888 167.524L140.693 195.18L171.134 174.5L196.952 156.964L194.072 152.73Z" fill="#E5E9E9"/>
</g>
<defs>
<clipPath id="clip0_77_1642">
<rect width="230" height="232" fill="white"/>
</clipPath>
</defs>
</svg>
