<svg width="240" height="240" viewBox="0 0 240 240" fill="none" xmlns="http://www.w3.org/2000/svg">
<g clip-path="url(#clip0_6_235)">
<path d="M228.005 187.999V195.999C228.005 218.16 210.164 236 188.004 236H52.0012C29.8408 236 12.0004 218.16 12.0004 195.999V187.999H228.005Z" fill="#FCB860"/>
<path d="M216.004 188.007V196.007C216.004 213.686 205.566 228.881 190.535 235.875C211.501 234.57 228.005 217.305 228.005 195.999V188.007H216.004Z" fill="#FBB04F"/>
<path d="M24.0007 139.999H216.004C227.085 139.999 236.005 131.078 236.005 119.998C236.005 108.918 227.085 99.9976 216.004 99.9976H24.0007C12.9205 99.9976 4.00031 108.918 4.00031 119.998C4.00031 131.078 12.9205 139.999 24.0007 139.999Z" fill="#B38051"/>
<path d="M200.004 187.999C192.004 187.987 188.004 195.999 180.004 195.999C172.004 195.999 168.003 187.988 160.003 188.005C152.003 188.001 148.003 196.011 140.003 196.011C132.003 196.011 128.003 187.999 120.003 188.005C112.002 188.001 108.002 196.011 100.002 196.011C92.0021 196.011 88.0019 187.999 80.0018 188.005C72.0016 187.989 68.0016 195.999 60.0014 195.999C52.0012 195.999 48.0012 187.988 40.0009 187.999C32.0009 187.987 28.0007 195.969 20.0005 196.004C11.1364 196.01 4.00024 188.874 4.00024 180.009C4.00024 171.145 11.1364 164.009 20.0006 164.009H220.004C228.869 164.009 236.005 171.145 236.005 180.009C236.005 188.874 228.869 196.01 220.005 196.004C212.004 195.999 208.004 187.988 200.004 187.999Z" fill="#59E78B"/>
<path d="M12.0004 99.9971C12.0004 51.9962 48.0011 3.99512 120.003 3.99512C192.004 3.99512 228.005 51.9962 228.005 99.9971H12.0004Z" fill="#FCB860"/>
<path d="M216.004 163.998C222.653 163.998 228.005 158.646 228.005 151.998C228.005 145.35 222.653 139.998 216.004 139.998H24.0007C17.3525 139.998 12.0004 145.35 12.0004 151.998C12.0004 158.646 17.3525 163.998 24.0007 163.998H216.004Z" fill="#FC6067"/>
<path d="M36.001 99.9976L120.003 155.999L204.004 99.9976H36.001Z" fill="#F7F065"/>
<path d="M204.004 99.9976C215.084 99.9976 224.005 108.918 224.005 119.998C224.005 131.078 215.084 139.998 204.004 139.998H220.005C231.085 139.998 240.005 131.078 240.005 119.998C240.005 108.918 231.085 99.9976 220.005 99.9976H204.004Z" fill="#A77649"/>
<path d="M146.151 6.32324C192.266 21.2717 215.998 60.622 216.004 99.9971H228.005C228.005 58.2124 200.712 16.4449 146.151 6.32324Z" fill="#FBB04F"/>
<path d="M215.872 164.006C220.776 167.653 224.005 173.439 224.005 179.999C224.005 186.242 221.081 191.777 216.567 195.436C217.644 195.761 218.765 196.007 220.005 196.007C228.869 196.012 236.005 188.87 236.005 180.006C236.005 171.142 228.869 164.006 220.005 164.006L215.872 164.006Z" fill="#41E37A"/>
<path d="M204.004 139.998C210.652 139.998 216.004 145.35 216.004 151.998C216.004 158.647 210.652 163.998 204.004 163.998H220.005C226.653 163.998 232.005 158.647 232.005 151.998C232.005 145.35 226.653 139.998 220.005 139.998H204.004Z" fill="#FB4F56"/>
<path d="M185.996 99.9976C160.999 116.665 136 133.331 111.002 149.998L120.003 155.999L204.004 99.9976H185.996Z" fill="#F4EC42"/>
<path d="M52.0012 240H188.012C212.319 240 232.075 220.303 232.005 195.999C236.846 192.355 240.005 186.564 240.005 179.999C240.005 172.003 235.243 165.129 228.434 161.936C230.632 159.194 232.005 155.768 232.005 152.006C232.005 147.753 230.295 143.897 227.559 141.022C234.968 136.927 240.005 129.036 240.005 119.997C240.005 112.919 236.902 106.561 232.005 102.161V100.012C232.005 50.0115 193.782 -0.00488281 120.003 -0.00488281C46.2233 -0.005034 8.00815 50.0115 8.00815 100.012V102.161C3.10979 106.561 0.000183105 112.918 0.000183105 119.997C0.000183105 129.038 5.042 136.928 12.4536 141.022C9.71826 143.897 8.00815 147.753 8.00815 152.006C8.00815 155.768 9.38101 159.194 11.5785 161.936C4.76884 165.129 0.000183105 172.003 0.000183105 179.999C0.000183105 186.564 3.15842 192.351 8.00034 195.999C7.93004 220.306 27.6939 240 52.0012 240ZM120.003 8.00324C188.869 8.00324 222.599 52.253 223.88 97.3485C221.408 96.4852 218.758 95.9897 215.997 95.9897H24.0085C21.2473 95.9897 18.6053 96.4852 16.1333 97.3485C17.4143 52.253 51.1358 8.00324 120.003 8.00324ZM96.0021 23.9955C93.7929 23.9955 92.002 25.7864 92.002 27.9956C92.002 30.2049 93.7929 31.9958 96.0021 31.9958C98.2113 31.9958 100.002 30.2049 100.002 27.9956C100.002 25.7864 98.2113 23.9955 96.0021 23.9955ZM144.003 23.9955C141.794 23.9955 140.003 25.7864 140.003 27.9956C140.003 30.2049 141.794 31.9958 144.003 31.9958C146.212 31.9958 148.003 30.2049 148.003 27.9956C148.003 25.7864 146.212 23.9955 144.003 23.9955ZM72.0016 47.9963C69.7924 47.9963 68.0015 49.7868 68.0015 51.996C68.0015 54.2053 69.7924 55.9962 72.0016 55.9962C74.2108 55.9962 76.0017 54.2053 76.0017 51.996C76.0017 49.7868 74.2108 47.9963 72.0016 47.9963ZM120.003 47.9963C117.793 47.9963 116.002 49.7868 116.002 51.996C116.002 54.2053 117.793 55.9962 120.003 55.9962C122.212 55.9962 124.003 54.2053 124.003 51.996C124.003 49.7868 122.212 47.9963 120.003 47.9963ZM168.003 47.9963C165.794 47.9963 164.003 49.7868 164.003 51.996C164.003 54.2053 165.794 55.9962 168.003 55.9962C170.213 55.9962 172.004 54.2053 172.004 51.996C172.004 49.7868 170.213 47.9963 168.003 47.9963ZM48.0011 71.9967C45.7919 71.9967 44.001 73.7876 44.001 75.9969C44.001 78.2061 45.7919 79.9965 48.0011 79.9965C50.2103 79.9965 52.0012 78.2061 52.0012 75.9969C52.0012 73.7876 50.2103 71.9967 48.0011 71.9967ZM96.0021 71.9967C93.7929 71.9967 92.002 73.7876 92.002 75.9969C92.002 78.2061 93.7929 79.9965 96.0021 79.9965C98.2113 79.9965 100.002 78.2061 100.002 75.9969C100.002 73.7876 98.2113 71.9967 96.0021 71.9967ZM144.003 71.9967C141.794 71.9967 140.003 73.7876 140.003 75.9969C140.003 78.2061 141.794 79.9965 144.003 79.9965C146.212 79.9965 148.003 78.2061 148.003 75.9969C148.003 73.7876 146.212 71.9967 144.003 71.9967ZM192.004 71.9967C189.795 71.9967 188.004 73.7876 188.004 75.9969C188.004 78.2061 189.795 79.9965 192.004 79.9965C194.213 79.9965 196.004 78.2061 196.004 75.9969C196.004 73.7876 194.213 71.9967 192.004 71.9967ZM24.0085 103.997H34.7977L82.8065 136.006H24.0085C15.0751 136.006 8.00815 128.931 8.00815 119.997C8.00815 111.064 15.0751 103.997 24.0085 103.997ZM49.2043 103.997H190.801L120.003 151.178L49.2043 103.997ZM205.207 103.997H215.997C224.93 103.997 232.005 111.064 232.005 119.997C232.005 128.931 224.93 136.006 215.997 136.006H157.206L205.207 103.997ZM196.012 168.014H220.02C226.74 168.017 232.005 173.281 232.005 179.999C232.005 186.713 226.74 192.022 220.008 192.011C213.823 191.999 209.38 183.987 200.004 183.991C190.628 183.995 186.185 192.006 180.004 192.006C173.823 192.006 169.379 183.995 160.003 183.991C150.627 183.987 146.184 191.999 140.003 191.999C133.822 191.999 129.379 183.995 120.003 183.991C110.627 183.987 106.183 191.991 100.002 191.991C93.8211 191.991 89.3778 183.987 80.0018 183.991C70.6258 183.995 66.1824 191.999 60.0014 191.999C53.8203 191.999 49.377 183.995 40.001 183.991C30.6249 183.987 26.1856 191.987 20.0084 191.991L19.9693 192.021C13.2647 192.012 8.00811 186.707 8.00811 179.998C8.00811 173.28 13.275 168.013 19.9927 168.013H160.019C165.354 168.013 165.354 160.013 160.019 160.013H24.0085C19.5072 160.013 16.0083 156.506 16.0083 152.005C16.0083 147.504 19.5072 144.005 24.0085 144.005H94.8067L117.792 159.333C119.133 160.225 120.879 160.225 122.221 159.333L145.206 144.004H215.997C220.498 144.004 224.005 147.503 224.005 152.005C224.005 156.506 220.498 160.016 215.997 160.012L196.004 159.997C190.46 159.993 190.675 168.014 196.012 168.014ZM180.004 168.014C185.338 168.014 185.338 160.035 180.004 160.014L176.004 159.999C170.474 159.984 170.649 168.014 175.989 168.014L180.004 168.014ZM140.003 199.999C149.556 199.999 153.867 191.995 160.003 191.999C166.14 192.003 170.451 200.007 180.004 200.007C189.556 200.007 193.867 192.003 200.004 191.999C206.141 191.995 210.452 199.999 219.989 199.999L220.019 199.991C221.322 199.992 222.589 199.855 223.824 199.616C222.037 217.908 206.805 232 188.011 232H52.0014C33.2069 232 17.9671 217.908 16.1804 199.616C17.4153 199.857 18.6895 199.993 19.9929 199.992H20.0163C29.5534 199.992 33.8644 191.987 40.0011 191.991C46.1378 191.995 50.4487 199.999 60.0014 199.999C69.5542 199.999 73.8651 191.995 80.0018 191.991C86.1386 191.987 90.4495 199.992 100.002 199.992C109.555 199.992 113.866 191.991 120.003 191.995C126.139 191.999 130.45 199.999 140.003 199.999Z" fill="black"/>
</g>
<defs>
<clipPath id="clip0_6_235">
<rect width="240" height="240" fill="white"/>
</clipPath>
</defs>
</svg>
