<svg width="285" height="253" viewBox="0 0 285 253" fill="none" xmlns="http://www.w3.org/2000/svg">
<path d="M124.011 44.0166C124.011 30.7612 113.266 20.0162 100.01 20.0162C96.6258 20.0281 93.2817 20.7538 90.1978 22.1487C86.0917 11.2444 75.6617 4.02243 64.0098 4.01562C52.3636 4.02757 41.9415 11.2497 37.8374 22.1487C34.7487 20.7517 31.3991 20.0248 28.0091 20.0162C14.754 20.0162 4.00861 30.7612 4.00861 44.0166V80.0169H124.011V44.0166Z" fill="#59E78B"/>
<path d="M68.6427 4.42969C76.0126 7.12696 83.9136 12.2004 88.9478 23.9769C101.985 21.4799 112.011 37.4262 112.011 44.0163V80.0093H124.011V44.0163C124.011 30.7609 113.266 20.0159 100.011 20.0159C96.6258 20.0279 93.2817 20.7538 90.1979 22.1489C86.6458 12.7161 78.3565 6.06444 68.6427 4.42969Z" fill="#41E37A"/>
<path d="M92.0103 64.0166C92.0103 71.4428 89.0602 78.5651 83.8091 83.8162C78.558 89.0673 71.436 92.0172 64.0098 92.0172C56.5836 92.0172 49.4615 89.0673 44.2104 83.8162C38.9593 78.5651 36.0092 71.4428 36.0092 64.0166C36.0092 60.3395 36.7335 56.6983 38.1406 53.3011C39.5478 49.904 41.6103 46.8172 44.2104 44.2171C46.8104 41.617 49.8972 39.5548 53.2944 38.1477C56.6916 36.7405 60.3327 36.0161 64.0098 36.0161C67.6869 36.0161 71.328 36.7405 74.7251 38.1477C78.1223 39.5548 81.2091 41.617 83.8092 44.2171C86.4093 46.8172 88.4718 49.904 89.8789 53.3011C91.2861 56.6983 92.0103 60.3395 92.0103 64.0166Z" fill="#FC6067"/>
<path d="M124.011 180.019L124.011 228.02C124.011 232.452 120.443 236.02 116.011 236.02C76.01 236.02 52.0095 236.02 12.0087 236.02C7.57666 236.02 4.00862 232.452 4.00858 228.02L4.00854 180.019H124.011Z" fill="#FBB04F"/>
<path d="M64.0098 36.0161C63.8196 36.0243 63.6295 36.0345 63.4395 36.0466C73.293 41.5019 79.9945 51.9928 79.9945 64.0236C79.9945 76.0504 73.2955 86.5328 63.4473 91.9927C63.6347 92.0047 63.8222 92.015 64.0098 92.0232C71.436 92.0232 78.558 89.0733 83.8092 83.8222C89.0603 78.5711 92.0104 71.4488 92.0104 64.0226C92.0104 60.3455 91.2861 56.7043 89.879 53.3071C88.4718 49.91 86.4093 46.8232 83.8092 44.2231C81.2091 41.623 78.1224 39.5604 74.7252 38.1532C71.328 36.746 67.6869 36.0161 64.0098 36.0161Z" fill="#FB4F56"/>
<path d="M124.011 228.02L124.011 52.0164C124.011 47.5844 120.443 44.0161 116.011 44.0161C69.4738 44.0161 52.0095 93.4814 52.0095 140.019C52.0095 186.555 69.4738 236.02 116.011 236.021C120.443 236.021 124.011 232.452 124.011 228.02Z" fill="#FCB860"/>
<path d="M71.1271 67.3918C57.6755 86.1156 52.0095 113.534 52.0095 140.018C52.0095 166.502 57.6755 193.921 71.1271 212.644C71.3875 212.204 71.6818 211.786 71.9318 211.34C83.5863 190.529 88.0259 164.778 88.0259 140.026C88.0259 115.274 83.5862 89.5223 71.9318 68.7118C71.6794 68.2613 71.3895 67.8348 71.1271 67.3918ZM116.011 44.0161C114.649 44.0161 113.315 44.0615 112.003 44.1522L112.011 228.023C112.011 230.905 110.943 233.545 109.214 235.617C111.413 235.862 113.666 236.024 116.011 236.024C120.443 236.024 124.011 232.456 124.011 228.023V52.0164C124.011 47.5844 120.443 44.0161 116.011 44.0161Z" fill="#FBB04F"/>
<path d="M4.00854 228.02V52.0164C4.00858 47.5844 7.57665 44.0161 12.0087 44.0161C58.5456 44.0161 76.01 93.4814 76.01 140.019C76.01 186.555 58.5456 236.02 12.0087 236.021C7.57665 236.021 4.00858 232.452 4.00854 228.02Z" fill="#FCB860"/>
<path d="M128.01 228.02C128.018 166.695 128.002 105.349 128.002 44.0325C128.002 22.7557 106.813 12.1645 92.3292 17.118C86.8786 6.63401 76.0353 0.00710565 64.0168 0C52.0038 0.0119435 41.1754 6.65362 35.728 17.1332C16.4644 11.8209 0 26.4596 0 44.032V228.02C4.68671e-05 234.599 5.44464 240.004 12.0237 240.005L115.803 240.013C122.589 240.021 128.01 234.599 128.01 228.02ZM64.0176 8.00812C74.0181 8.01205 82.9392 14.2121 86.4634 23.5708C87.2885 25.7095 89.5905 26.7436 91.8307 25.7818C103.817 20.6361 117.186 27.3009 119.698 40.6649C113.555 38.4713 96.7529 41.939 90.2409 45.7013C84.3194 37.161 74.5889 32.0163 64.0098 32.0163C53.4436 32.0163 43.6906 37.1745 37.7671 45.6962C30.0366 41.1359 11.7002 38.5034 8.30557 40.6727C10.9837 26.612 25.5069 20.7324 36.1733 25.7818C38.2157 26.7493 40.7557 25.7364 41.5797 23.5708C45.1021 14.2165 54.0226 8.0181 64.0176 8.00812ZM64.0096 40.0162C71.7474 40.0162 78.8127 43.6067 83.2834 49.7199C75.422 55.1105 69.0484 62.4757 64.0018 70.9857C58.9051 62.3774 52.3614 54.9965 44.7045 49.7272C49.177 43.638 56.2886 40.0162 64.0096 40.0162ZM68.4552 200.48C76.5939 182.589 80.0257 160.999 80.0257 140.026C79.9108 134.809 72.1414 134.809 72.0256 140.026C72.0256 162.794 67.6509 186.212 57.9628 203.511C48.2746 220.811 33.8756 232.004 12.0244 232.004C9.73936 232.004 8.00089 230.305 8.00089 228.02V52.0004C8.00089 49.7151 9.73936 48.0163 12.0243 48.0164C28.2294 48.0166 40.189 54.212 49.3999 64.4309C58.6108 74.6495 64.8857 89.0783 68.4159 105.127C69.2792 110.752 77.7946 108.875 76.213 103.408C74.3714 95.0362 71.8205 86.982 68.455 79.564C78.0252 60.5732 93.2868 48.0164 116.011 48.0164C118.282 48.0164 119.982 49.7134 120.003 51.9774C120.023 110.637 120.011 169.345 120.011 228.02C120.011 230.303 118.3 232.016 115.796 232.012C93.5246 232.012 77.9637 219.344 68.4552 200.48ZM28.0091 76.017C25.7999 76.017 24.009 77.808 24.009 80.0171C24.009 82.2264 25.7999 84.0173 28.0091 84.0173C30.2182 84.0173 32.0092 82.2264 32.0092 80.0171C32.0092 77.808 30.2182 76.017 28.0091 76.017ZM100.01 76.017C97.8013 76.017 96.0104 77.808 96.0104 80.0171C96.0104 82.2264 97.8013 84.0173 100.01 84.0173C102.22 84.0173 104.011 82.2264 104.011 80.0171C104.011 77.808 102.22 76.017 100.01 76.017ZM52.0095 96.0172C49.8004 96.0172 48.0095 97.8081 48.0095 100.017C48.0095 102.226 49.8004 104.017 52.0095 104.017C54.2187 104.017 56.0096 102.226 56.0096 100.017C56.0096 97.8081 54.2187 96.0172 52.0095 96.0172ZM28.0091 116.018C25.7999 116.018 24.009 117.809 24.009 120.018C24.009 122.227 25.7999 124.018 28.0091 124.018C30.2182 124.018 32.0092 122.227 32.0092 120.018C32.0092 117.809 30.2182 116.018 28.0091 116.018ZM100.01 116.018C97.8013 116.018 96.0104 117.809 96.0104 120.018C96.0104 122.227 97.8013 124.018 100.01 124.018C102.22 124.018 104.011 122.227 104.011 120.018C104.011 117.809 102.22 116.018 100.01 116.018ZM70.9552 120.713C71.0973 121.992 71.232 123.291 71.3456 124.581C71.9659 129.709 79.6018 129.035 79.3145 123.877C79.1951 122.53 79.0506 121.175 78.9004 119.83C77.9008 113.948 70.3813 115.905 70.9552 120.713ZM52.0095 136.018C49.8004 136.018 48.0095 137.809 48.0095 140.018C48.0095 142.228 49.8004 144.018 52.0095 144.018C54.2187 144.018 56.0096 142.228 56.0096 140.018C56.0096 137.809 54.2187 136.018 52.0095 136.018ZM28.0091 156.018C25.7999 156.018 24.009 157.809 24.009 160.019C24.009 162.228 25.7999 164.019 28.0091 164.019C30.2182 164.019 32.0092 162.228 32.0092 160.019C32.0092 157.809 30.2182 156.018 28.0091 156.018ZM100.01 156.018C97.8013 156.018 96.0104 157.809 96.0104 160.019C96.0104 162.228 97.8013 164.019 100.01 164.019C102.22 164.019 104.011 162.228 104.011 160.019C104.011 157.809 102.22 156.018 100.01 156.018ZM52.0095 176.019C49.8004 176.019 48.0095 177.81 48.0095 180.019C48.0095 182.228 49.8004 184.019 52.0095 184.019C54.2187 184.019 56.0096 182.228 56.0096 180.019C56.0096 177.81 54.2187 176.019 52.0095 176.019ZM28.0091 196.019C25.7999 196.019 24.009 197.81 24.009 200.019C24.009 202.229 25.7999 204.02 28.0091 204.02C30.2182 204.02 32.0092 202.229 32.0092 200.019C32.0092 197.81 30.2182 196.019 28.0091 196.019ZM100.01 196.019C97.8013 196.019 96.0104 197.81 96.0104 200.019C96.0104 202.229 97.8013 204.02 100.01 204.02C102.22 204.02 104.011 202.229 104.011 200.019C104.011 197.81 102.22 196.019 100.01 196.019ZM64.0254 209.051C69.6315 218.684 76.8061 226.507 85.9555 232.004H42.0562C51.2319 226.51 58.4202 218.547 64.0254 209.051Z" fill="black"/>
<path d="M234.158 98.245L245.232 54.1439H250.768L261.842 98.245H234.158Z" fill="#FC6067"/>
<path d="M245.232 54.1439L243.901 59.4472L253.429 97.3712H261.62L250.768 54.1439H245.232Z" fill="#FB4F56"/>
<path d="M228.621 98.2452C225.554 98.2452 223.084 101.055 223.084 104.545V117.146H272.916V104.545C272.916 101.055 270.446 98.2452 267.379 98.2452H228.621Z" fill="#E7EBEF"/>
<path d="M262.431 98.2452C263.768 99.9301 264.605 102.135 264.605 104.557V117.133H272.916V104.545C272.916 101.055 270.446 98.2452 267.379 98.2452H262.431Z" fill="#DBE1E7"/>
<path d="M220.316 117.145H275.684C278.751 117.145 281.221 119.955 281.221 123.446V230.548C281.221 234.038 278.751 236.848 275.684 236.848H220.316C217.249 236.848 214.779 234.038 214.779 230.548V123.446C214.779 119.955 217.249 117.145 220.316 117.145Z" fill="#FC6067"/>
<path d="M267.379 176.997C267.379 179.893 266.878 182.76 265.904 185.435C264.93 188.111 263.502 190.541 261.703 192.589C259.904 194.637 257.767 196.261 255.416 197.369C253.065 198.477 250.545 199.048 248 199.048C245.455 199.048 242.935 198.477 240.584 197.369C238.233 196.261 236.097 194.637 234.297 192.589C232.498 190.541 231.07 188.111 230.096 185.435C229.122 182.76 228.621 179.893 228.621 176.997C228.621 171.149 230.663 165.54 234.297 161.405C237.931 157.27 242.86 154.946 248 154.946C253.14 154.946 258.069 157.27 261.703 161.405C265.337 165.54 267.379 171.149 267.379 176.997Z" fill="#E7EBEF"/>
<path d="M270.747 117.145C272.084 118.822 272.926 121.017 272.926 123.433V230.542C272.926 232.962 272.082 235.166 270.742 236.848H275.684C278.751 236.848 281.221 234.038 281.221 230.548V123.446C281.221 119.955 278.751 117.145 275.684 117.145H270.747Z" fill="#FB4F56"/>
<path d="M242.571 53.2825L232.071 95.0887H228.616C224.063 95.0887 220.321 99.3762 220.321 104.557V113.995C215.768 113.995 212 118.252 212 123.433V230.542C212 235.723 215.768 240.005 220.321 240.005H275.679C280.232 240.005 284 235.723 284 230.542V123.433C284 118.252 280.232 113.995 275.679 113.995V104.557C275.679 99.3762 271.937 95.0887 267.384 95.0887H263.929L253.423 53.2825C253.084 51.9339 252.001 51.0035 250.768 51H245.099C243.831 51.1262 242.88 52.0321 242.571 53.2825ZM247.313 57.3061H248.681L258.176 95.0887H237.824L247.313 57.3061ZM228.616 101.389H267.384C268.966 101.389 270.142 102.758 270.142 104.557V113.995H225.858V104.557C225.858 102.758 227.034 101.389 228.616 101.389ZM220.321 120.296H275.679C277.26 120.296 278.458 121.634 278.458 123.433V230.542C278.458 232.342 277.26 233.704 275.679 233.704H220.321C218.74 233.704 217.537 232.342 217.537 230.542V123.433C217.537 121.634 218.74 120.296 220.321 120.296ZM248.011 151.808C235.812 151.808 225.858 163.11 225.858 176.991C225.858 190.871 235.812 202.197 248.011 202.197C260.21 202.197 270.142 190.871 270.142 176.991C270.142 163.11 260.21 151.808 248.011 151.808ZM248.011 158.109C257.217 158.109 264.605 166.515 264.605 176.991C264.605 187.466 257.217 195.891 248.011 195.891C238.804 195.891 231.395 187.466 231.395 176.991C231.395 166.515 238.804 158.109 248.011 158.109Z" fill="black"/>
<path d="M241.25 200.999V208.999C241.25 231.16 225.268 249 205.417 249H83.5835C63.7318 249 47.7502 231.16 47.7502 208.999V200.999H241.25Z" fill="#FCB860"/>
<path d="M230.5 201.007V209.007C230.5 226.686 221.149 241.881 207.684 248.875C226.466 247.57 241.25 230.305 241.25 208.999V201.007H230.5Z" fill="#FBB04F"/>
<path d="M58.5002 152.999H230.5C240.426 152.999 248.417 144.078 248.417 132.998C248.417 121.918 240.426 112.998 230.5 112.998H58.5002C48.5743 112.998 40.5835 121.918 40.5835 132.998C40.5835 144.078 48.5743 152.999 58.5002 152.999Z" fill="#B38051"/>
<path d="M216.167 200.999C209 200.987 205.417 208.999 198.25 208.999C191.083 208.999 187.5 200.988 180.333 201.005C173.167 201.001 169.583 209.011 162.417 209.011C155.25 209.011 151.667 200.999 144.5 201.005C137.333 201.001 133.75 209.011 126.583 209.011C119.417 209.011 115.833 200.999 108.667 201.005C101.5 200.989 97.9168 208.999 90.7502 208.999C83.5834 208.999 80.0002 200.988 72.8334 200.999C65.6669 200.987 62.0835 208.969 54.9168 209.004C46.9762 209.01 40.5835 201.874 40.5835 193.009C40.5835 184.145 46.9762 177.009 54.9168 177.009H234.083C242.024 177.009 248.417 184.145 248.417 193.009C248.417 201.874 242.024 209.01 234.083 209.004C226.917 208.999 223.333 200.988 216.167 200.999Z" fill="#59E78B"/>
<path d="M47.7502 112.997C47.7502 64.9962 80.0002 16.9951 144.5 16.9951C209 16.9951 241.25 64.9962 241.25 112.997H47.7502Z" fill="#FCB860"/>
<path d="M230.5 176.998C236.456 176.998 241.25 171.646 241.25 164.998C241.25 158.35 236.456 152.998 230.5 152.998H58.5002C52.5447 152.998 47.7502 158.35 47.7502 164.998C47.7502 171.646 52.5447 176.998 58.5002 176.998H230.5Z" fill="#FC6067"/>
<path d="M69.2502 112.998L144.5 168.999L219.75 112.998H69.2502Z" fill="#F7F065"/>
<path d="M219.75 112.998C229.676 112.998 237.667 121.918 237.667 132.998C237.667 144.078 229.676 152.998 219.75 152.998H234.083C244.009 152.998 252 144.078 252 132.998C252 121.918 244.009 112.998 234.083 112.998H219.75Z" fill="#A77649"/>
<path d="M167.925 19.3232C209.235 34.2717 230.494 73.622 230.5 112.997H241.25C241.25 71.2124 216.801 29.4449 167.925 19.3232Z" fill="#FBB04F"/>
<path d="M230.381 177.006C234.775 180.653 237.667 186.439 237.667 192.999C237.667 199.242 235.047 204.777 231.004 208.436C231.969 208.761 232.973 209.007 234.083 209.007C242.024 209.012 248.417 201.87 248.417 193.006C248.417 184.142 242.024 177.006 234.083 177.006L230.381 177.006Z" fill="#41E37A"/>
<path d="M219.75 152.998C225.706 152.998 230.5 158.35 230.5 164.998C230.5 171.647 225.706 176.998 219.75 176.998H234.083C240.039 176.998 244.833 171.647 244.833 164.998C244.833 158.35 240.039 152.998 234.083 152.998H219.75Z" fill="#FB4F56"/>
<path d="M203.618 112.998C181.225 129.665 158.831 146.331 136.438 162.998L144.5 168.999L219.75 112.998H203.618Z" fill="#F4EC42"/>
<path d="M83.5835 253H205.424C227.198 253 244.896 233.303 244.833 208.999C249.17 205.355 252 199.564 252 192.999C252 185.003 247.734 178.129 241.635 174.936C243.603 172.194 244.833 168.768 244.833 165.006C244.833 160.753 243.301 156.897 240.851 154.022C247.488 149.927 252 142.036 252 132.997C252 125.919 249.22 119.561 244.833 115.161V113.012C244.833 63.0115 210.593 12.9951 144.5 12.9951C78.4075 12.995 44.1738 63.0115 44.1738 113.012V115.161C39.7858 119.561 37.0002 125.918 37.0002 132.997C37.0002 142.038 41.5167 149.928 48.1561 154.022C45.7058 156.897 44.1738 160.753 44.1738 165.006C44.1738 168.768 45.4037 172.194 47.3722 174.936C41.272 178.129 37.0002 185.003 37.0002 192.999C37.0002 199.564 39.8294 205.351 44.1668 208.999C44.1039 233.306 61.8087 253 83.5835 253ZM144.5 21.0032C206.192 21.0032 236.407 65.253 237.555 110.348C235.34 109.485 232.966 108.99 230.493 108.99H58.5072C56.0337 108.99 53.6669 109.485 51.4525 110.348C52.6 65.253 82.8082 21.0032 144.5 21.0032ZM123 36.9955C121.021 36.9955 119.417 38.7864 119.417 40.9956C119.417 43.2049 121.021 44.9958 123 44.9958C124.979 44.9958 126.583 43.2049 126.583 40.9956C126.583 38.7864 124.979 36.9955 123 36.9955ZM166 36.9955C164.021 36.9955 162.417 38.7864 162.417 40.9956C162.417 43.2049 164.021 44.9958 166 44.9958C167.979 44.9958 169.583 43.2049 169.583 40.9956C169.583 38.7864 167.979 36.9955 166 36.9955ZM101.5 60.9963C99.5211 60.9963 97.9168 62.7868 97.9168 64.996C97.9168 67.2053 99.5211 68.9962 101.5 68.9962C103.479 68.9962 105.083 67.2053 105.083 64.996C105.083 62.7868 103.479 60.9963 101.5 60.9963ZM144.5 60.9963C142.521 60.9963 140.917 62.7868 140.917 64.996C140.917 67.2053 142.521 68.9962 144.5 68.9962C146.479 68.9962 148.083 67.2053 148.083 64.996C148.083 62.7868 146.479 60.9963 144.5 60.9963ZM187.5 60.9963C185.521 60.9963 183.917 62.7868 183.917 64.996C183.917 67.2053 185.521 68.9962 187.5 68.9962C189.479 68.9962 191.083 67.2053 191.083 64.996C191.083 62.7868 189.479 60.9963 187.5 60.9963ZM80.0001 84.9967C78.0211 84.9967 76.4168 86.7876 76.4168 88.9969C76.4168 91.2061 78.0211 92.9965 80.0001 92.9965C81.9792 92.9965 83.5835 91.2061 83.5835 88.9969C83.5835 86.7876 81.9792 84.9967 80.0001 84.9967ZM123 84.9967C121.021 84.9967 119.417 86.7876 119.417 88.9969C119.417 91.2061 121.021 92.9965 123 92.9965C124.979 92.9965 126.583 91.2061 126.583 88.9969C126.583 86.7876 124.979 84.9967 123 84.9967ZM166 84.9967C164.021 84.9967 162.417 86.7876 162.417 88.9969C162.417 91.2061 164.021 92.9965 166 92.9965C167.979 92.9965 169.583 91.2061 169.583 88.9969C169.583 86.7876 167.979 84.9967 166 84.9967ZM209 84.9967C207.021 84.9967 205.417 86.7876 205.417 88.9969C205.417 91.2061 207.021 92.9965 209 92.9965C210.979 92.9965 212.583 91.2061 212.583 88.9969C212.583 86.7876 210.979 84.9967 209 84.9967ZM58.5072 116.997H68.1724L111.179 149.006H58.5072C50.5045 149.006 44.1738 141.931 44.1738 132.997C44.1738 124.064 50.5045 116.997 58.5072 116.997ZM81.0779 116.997H207.922L144.5 164.178L81.0779 116.997ZM220.828 116.997H230.493C238.496 116.997 244.833 124.064 244.833 132.997C244.833 141.931 238.496 149.006 230.493 149.006H177.828L220.828 116.997ZM212.59 181.014H234.097C240.117 181.017 244.833 186.281 244.833 192.999C244.833 199.713 240.117 205.022 234.087 205.011C228.546 204.999 224.566 196.987 216.167 196.991C207.768 196.995 203.787 205.006 198.25 205.006C192.713 205.006 188.733 196.995 180.333 196.991C171.934 196.987 167.954 204.999 162.417 204.999C156.88 204.999 152.899 196.995 144.5 196.991C136.101 196.987 132.121 204.991 126.583 204.991C121.046 204.991 117.066 196.987 108.667 196.991C100.268 196.995 96.2872 204.999 90.7501 204.999C85.213 204.999 81.2327 196.995 72.8335 196.991C64.4343 196.987 60.4575 204.987 54.9238 204.991L54.8888 205.021C48.8827 205.012 44.1738 199.707 44.1738 192.998C44.1738 186.28 48.892 181.013 54.9098 181.013H180.347C185.126 181.013 185.126 173.013 180.347 173.013H58.5072C54.4749 173.013 51.3405 169.506 51.3405 165.005C51.3405 160.504 54.4749 157.005 58.5072 157.005H121.929L142.519 172.333C143.721 173.225 145.286 173.225 146.488 172.333L167.078 157.004H230.493C234.525 157.004 237.667 160.503 237.667 165.005C237.667 169.506 234.525 173.016 230.493 173.012L212.583 172.997C207.617 172.993 207.809 181.014 212.59 181.014ZM198.25 181.014C203.029 181.014 203.029 173.035 198.25 173.014L194.667 172.999C189.713 172.984 189.87 181.014 194.653 181.014L198.25 181.014ZM162.417 212.999C170.974 212.999 174.836 204.995 180.333 204.999C185.831 205.003 189.693 213.007 198.25 213.007C206.808 213.007 210.669 205.003 216.167 204.999C221.664 204.995 225.526 212.999 234.069 212.999L234.096 212.991C235.264 212.992 236.399 212.855 237.505 212.616C235.904 230.908 222.259 245 205.423 245H83.5836C66.7473 245 53.0952 230.908 51.4946 212.616C52.6009 212.857 53.7424 212.993 54.91 212.992H54.9309C63.4744 212.992 67.3362 204.987 72.8336 204.991C78.3309 204.995 82.1928 212.999 90.7502 212.999C99.3077 212.999 103.169 204.995 108.667 204.991C114.164 204.987 118.026 212.992 126.584 212.992C135.141 212.992 139.003 204.991 144.5 204.995C149.998 204.999 153.859 212.999 162.417 212.999Z" fill="black"/>
</svg>
