<svg width="240" height="240" viewBox="0 0 240 240" fill="none" xmlns="http://www.w3.org/2000/svg">
<g clip-path="url(#clip0_7_276)">
<path d="M120.002 3.99512C55.9362 3.99512 4.00026 55.931 4.00026 119.997C4.00026 184.064 55.9362 236 120.002 236C184.069 236 236.005 184.064 236.005 119.997C236.005 55.931 184.069 3.99512 120.002 3.99512ZM120.002 91.9968C123.68 91.9968 127.321 92.7212 130.718 94.1284C134.115 95.5355 137.202 97.5982 139.802 100.198C142.402 102.798 144.464 105.885 145.872 109.282C147.279 112.679 148.003 116.32 148.003 119.997C148.003 123.674 147.279 127.316 145.872 130.713C144.465 134.11 142.402 137.197 139.802 139.797C137.202 142.397 134.115 144.46 130.718 145.867C127.321 147.274 123.68 147.998 120.002 147.998C116.325 147.998 112.684 147.274 109.287 145.867C105.89 144.46 102.803 142.397 100.203 139.797C97.603 137.197 95.5405 134.11 94.1333 130.713C92.7262 127.316 92.0019 123.674 92.0019 119.997C92.002 112.571 94.952 105.449 100.203 100.198C105.454 94.9472 112.576 91.9968 120.002 91.9968Z" fill="#FCB860"/>
<path d="M120.002 3.99512C55.9362 3.99512 4.00026 55.931 4.00026 119.997C4.06073 149.688 15.4899 178.229 35.9539 199.741C41.8103 195.001 45.4046 187.999 56.0012 187.999C72.0015 187.999 72.0015 203.999 88.0019 203.999C104.002 203.999 104.002 187.999 120.002 187.999C136.003 187.999 136.003 203.999 152.003 203.999C168.003 203.999 168.003 187.999 184.004 187.999C194.639 187.999 198.219 195.055 204.114 199.796C224.568 178.26 235.982 149.699 236.005 119.997C236.005 55.931 184.069 3.99512 120.002 3.99512ZM120.002 91.9968C123.68 91.9968 127.321 92.7212 130.718 94.1284C134.115 95.5355 137.202 97.5982 139.802 100.198C142.402 102.798 144.464 105.885 145.872 109.282C147.279 112.679 148.003 116.32 148.003 119.997C148.003 123.674 147.279 127.316 145.872 130.713C144.465 134.11 142.402 137.197 139.802 139.797C137.202 142.397 134.115 144.46 130.718 145.867C127.321 147.274 123.68 147.998 120.002 147.998C116.325 147.998 112.684 147.274 109.287 145.867C105.89 144.46 102.803 142.397 100.203 139.797C97.603 137.197 95.5405 134.11 94.1333 130.713C92.7262 127.316 92.0019 123.674 92.0019 119.997C92.002 112.571 94.952 105.449 100.203 100.198C105.454 94.9472 112.576 91.9968 120.002 91.9968Z" fill="#FC6067"/>
<path d="M141.37 5.99512C189.319 21.7167 224.005 66.8207 224.005 119.997C224.005 173.174 189.319 218.278 141.37 234C195.223 223.966 236.005 176.759 236.005 119.997C236.005 63.2354 195.223 16.0292 141.37 5.99512Z" fill="#FBB04F"/>
<path d="M141.401 6.00293C189.335 21.7339 224.005 66.8312 224.005 119.997C224.005 148.027 214.348 173.799 198.215 194.233C200.17 196.1 201.995 198.093 204.114 199.796C224.568 178.26 235.982 149.699 236.005 119.997C236.005 63.2465 195.238 16.0496 141.401 6.00293Z" fill="#FB4F56"/>
<path d="M120.002 0.00244141C53.7744 0.00244141 7.62939e-05 53.7767 7.62939e-05 120.005C7.62939e-05 186.233 53.7744 240.007 120.002 240.007C164.612 240.007 203.598 215.644 224.27 179.475C226.932 174.829 219.963 170.837 217.301 175.483C213.486 182.158 208.982 188.384 203.926 194.108C199.186 189.546 194.643 183.99 184.019 183.99C166.083 183.99 165.558 199.991 152.011 199.991C138.464 199.991 137.939 183.99 120.002 183.99C102.066 183.99 101.541 199.991 87.9941 199.991C74.4472 199.991 73.9218 183.99 55.9857 183.99C45.3421 183.99 40.8042 189.571 36.0555 194.139C18.6068 174.393 8.00814 148.458 8.00814 120.005C8.00814 58.1004 58.098 8.00272 120.002 8.00272C181.907 8.00272 232.005 58.1004 232.005 120.005C232.005 126.679 231.411 133.205 230.294 139.552C229.236 144.902 237.351 146.327 238.177 140.936C239.374 134.133 240.005 127.145 240.005 120.005C240.005 53.7771 186.231 0.00244141 120.002 0.00244141ZM97.1818 25.1595L85.158 37.1751C81.1519 40.9534 87.0727 46.8417 90.8301 42.8159L102.822 30.8312C107.087 26.5695 100.353 21.9898 97.1818 25.1595ZM137.198 30.8469L149.191 42.8316C152.948 46.8574 158.869 40.9691 154.863 37.1908L142.839 25.1752C138.957 21.2958 133.371 27.0218 137.198 30.8469ZM111.104 58.7381L123.096 70.7306C126.854 74.7564 132.774 68.8681 128.768 65.0898L116.745 53.0737C112.859 49.1907 107.233 54.8676 111.104 58.7381ZM65.1343 66.7697L77.1266 78.7618C80.8839 82.7876 86.8047 76.8993 82.7986 73.121L70.7749 61.1054C66.8894 57.2224 61.5347 63.1702 65.1343 66.7697ZM169.16 61.1677L157.144 73.1838C153.138 76.962 159.051 82.8503 162.808 78.8246L174.8 66.8398C179.065 62.578 172.331 57.9969 169.16 61.1677ZM193.145 82.7777L205.129 94.7624C208.886 98.7881 214.807 92.8998 210.801 89.1216L198.785 77.1055C194.901 73.2217 189.316 78.9486 193.145 82.7777ZM41.1572 77.1682L29.1336 89.1917C25.1275 92.97 31.0481 98.8583 34.8055 94.8325L46.7979 82.84C51.0611 78.5769 44.328 73.9975 41.1572 77.1682ZM120.002 87.9963C102.376 87.9963 87.9941 102.379 87.9941 120.005C87.9941 137.631 102.376 152.013 120.002 152.013C137.629 152.013 152.011 137.631 152.011 120.005C152.011 102.379 137.629 87.9963 120.002 87.9963ZM120.002 95.9966C133.305 95.9966 144.011 106.702 144.011 120.005C144.011 133.307 133.305 144.013 120.002 144.013C106.7 144.013 95.9943 133.307 95.9943 120.005C95.9943 106.702 106.7 95.9966 120.002 95.9966ZM69.2593 109.067L57.2435 121.083C53.2374 124.861 59.1581 130.75 62.9155 126.724L74.9 114.731C79.1666 110.462 72.4295 105.897 69.2593 109.067ZM165.105 114.739L177.097 126.724C180.855 130.75 186.775 124.861 182.769 121.083L170.746 109.067C166.864 105.188 161.764 111.4 165.105 114.739ZM33.2039 142.841L45.1885 154.834C48.9458 158.859 54.8666 152.971 50.8605 149.193L38.8447 137.177C34.9572 133.29 29.725 139.36 33.2039 142.841ZM201.168 137.169L189.152 149.193C185.146 152.971 191.059 158.859 194.816 154.834L206.809 142.841C211.072 138.578 204.338 133.998 201.168 137.169ZM226.215 155.67C225.763 157.015 225.271 158.363 224.77 159.686C222.489 164.834 230.528 167.887 232.239 162.521C232.776 161.103 233.294 159.651 233.778 158.209C235.329 152.421 227.413 151.199 226.215 155.67ZM93.2285 161.115L81.2127 173.131C77.2066 176.909 83.1196 182.798 86.8768 178.772L98.8693 166.779C103.131 162.517 96.405 157.939 93.2285 161.115ZM141.144 166.788L153.128 178.772C156.885 182.798 162.806 176.909 158.8 173.131L146.784 161.115C142.9 157.232 137.602 163.246 141.144 166.788ZM55.9857 191.991C69.5789 191.991 69.7052 207.999 87.9941 207.999C106.283 207.999 106.409 191.991 120.002 191.991C133.596 191.991 133.722 207.999 152.011 207.999C170.3 207.999 170.426 191.991 184.019 191.991C190.821 191.991 194.299 195.987 198.324 199.991C178.137 219.773 150.529 232.007 120.002 232.007C89.4737 232.007 61.8344 219.805 41.6416 200.03C45.6816 196.014 49.1635 191.991 55.9857 191.991Z" fill="black"/>
</g>
<defs>
<clipPath id="clip0_7_276">
<rect width="240" height="240" fill="white"/>
</clipPath>
</defs>
</svg>
