<svg width="240" height="240" viewBox="0 0 240 240" fill="none" xmlns="http://www.w3.org/2000/svg">
<g clip-path="url(#clip0_8_312)">
<path d="M120.003 3.99512H12.0004C7.56831 3.99512 4.00024 7.56344 4.00024 11.9954V228C4.00024 232.432 7.56831 236 12.0004 236H120.003V3.99512Z" fill="#FC6067"/>
<path d="M120.002 3.99512V236H228.005C232.437 236 236.005 232.432 236.005 228V11.9954C236.005 7.56344 232.437 3.99512 228.005 3.99512H120.002Z" fill="#E7EBEF"/>
<path d="M62.0013 27.9951C36.0008 27.9951 32.0007 47.1316 32.0007 55.9956V75.9963C32.0007 84.8606 39.1369 91.9964 48.001 91.9964H76.0016C84.8658 91.9964 92.0019 84.8606 92.0019 75.9963V55.9956C92.0019 47.1316 88.0018 27.995 62.0013 27.9951ZM177.972 146.24L140.003 211.999H216.004C215.991 198.665 212.469 185.569 205.794 174.027C199.118 162.485 189.523 152.902 177.972 146.24Z" fill="#FCB860"/>
<path d="M169.98 160.084L140.003 211.999H200.004C199.984 190.575 188.539 170.788 169.98 160.084Z" fill="#FDD5A6"/>
<path d="M220.864 3.99512C222.795 6.1256 224.005 8.91941 224.005 11.9954V227.992C224.005 231.066 222.792 233.861 220.864 236H228.005C232.437 236 236.005 232.432 236.005 228V11.9954C236.005 7.56344 232.437 3.99512 228.005 3.99512H220.864Z" fill="#DBE1E7"/>
<path d="M64.267 28.1045C68.4525 30.2719 71.6931 33.131 74.0015 36.3313C78.9568 43.2013 79.9938 50.962 79.9938 55.9957V75.9807C79.9938 82.5391 76.7699 88.3381 71.8687 91.9965H76.0016C84.8657 91.9965 92.0019 84.8606 92.0019 75.9964V55.9957C92.0019 47.403 88.1818 29.2137 64.267 28.1045ZM146.925 200.007L140.003 211.999H216.004C215.968 207.98 215.613 203.97 214.942 200.007H146.925Z" fill="#FBB04F"/>
<path d="M146.925 200.007L140.003 211.999H200.004C200 207.924 199.578 203.912 198.778 200.007H146.925Z" fill="#FDCC93"/>
<path d="M32.0008 55.9956H92.002C96.434 55.9956 100.002 59.5638 100.002 63.9959C100.002 68.428 96.434 71.9962 92.002 71.9962H32.0008C27.5687 71.9962 24.0006 68.428 24.0006 63.9959C24.0006 59.5638 27.5687 55.9956 32.0008 55.9956Z" fill="#B38051"/>
<path d="M84.8534 55.9956C86.7861 58.1261 88.0019 60.9199 88.0019 63.9959C88.0019 67.0719 86.7861 69.8658 84.8534 71.9962H92.002C96.4341 71.9962 100.002 68.428 100.002 63.9959C100.002 59.5638 96.4341 55.9956 92.002 55.9956H84.8534Z" fill="#A77649"/>
<path d="M11.9925 0.0102539C5.4136 0.0102539 0.00012207 5.41606 0.00012207 11.995V227.991C0.00012207 234.57 5.41361 240.015 11.9925 240.015H228.02C234.599 240.015 240.005 234.57 240.005 227.991V96.0044C239.888 90.7881 232.12 90.7881 232.005 96.0044V227.991C232.005 230.277 230.306 232.015 228.02 232.015H123.987V7.97916H228.02C230.305 7.97916 232.005 9.70984 232.005 11.995V60.0114C232.121 65.2277 239.889 65.2277 240.005 60.0114V11.995C240.005 5.41606 234.599 0.0102539 228.02 0.0102539H11.9925ZM11.9925 7.97916H115.987V232.015H11.9925C9.70731 232.015 8.00809 230.277 8.00809 227.991V11.995C8.00809 9.70984 9.70732 7.97916 11.9925 7.97916ZM62.0092 23.9876C48.0275 23.9876 38.9717 29.4616 34.0164 36.3313C30.0257 41.864 28.6092 47.9002 28.1882 52.6991C23.4627 54.3146 19.9927 58.7581 19.9927 63.9959C19.9927 69.1618 23.3671 73.6221 27.9929 75.2932C27.9929 88.899 38.722 96.0044 48.0167 96.0044H76.0094C86.3102 96.0044 95.9942 88.4523 95.9942 75.3398C100.629 73.678 104.002 69.1739 104.002 63.9959C104.002 58.7521 100.541 54.3021 95.8145 52.6912C95.4001 47.8936 93.9904 41.8608 90.0019 36.3313C85.0466 29.4616 75.9908 23.9874 62.0092 23.9876ZM139.995 23.9876C134.542 23.8666 134.542 32.108 139.995 31.9874H183.988C189.205 31.8664 189.205 24.1029 183.988 23.9876H139.995ZM199.996 23.9876C194.544 23.8666 194.544 32.108 199.996 31.9874H215.997C221.213 31.8664 221.213 24.1029 215.997 23.9876H199.996ZM62.0092 31.9874C74.028 31.9874 79.9647 36.1123 83.5096 41.0267C86.0012 44.4809 87.1612 48.5483 87.6581 52.0112H36.329C36.8259 48.5483 37.9936 44.4811 40.4853 41.0267C44.0302 36.1123 49.9903 31.9874 62.0092 31.9874ZM139.995 47.9879C134.656 47.9879 134.656 55.9956 139.995 55.9956H183.988C189.327 55.9956 189.327 47.9879 183.988 47.9879H139.995ZM199.996 47.9879C194.658 47.9879 194.658 55.9956 199.996 55.9956H215.997C221.335 55.9956 221.335 47.9879 215.997 47.9879H199.996ZM32.0086 60.0114H92.0097C94.295 60.0114 95.9942 61.7106 95.9942 63.9959C95.9942 66.281 94.295 67.9803 92.0097 67.9803H32.0086C29.7233 67.9803 27.9929 66.281 27.9929 63.9959C27.9929 61.7106 29.7233 60.0114 32.0086 60.0114ZM139.808 71.9962C134.278 72.2517 134.656 80.2595 139.995 80.0043H183.988C189.327 80.0043 189.327 71.9962 183.988 71.9962H139.808ZM199.801 71.9962C194.271 72.2517 194.658 80.2595 199.996 80.0043H215.997C221.335 80.0043 221.335 71.9962 215.997 71.9962H199.801ZM236.005 71.9962C234.005 72.0415 232.005 73.4007 232.005 75.9806V80.0043C232.121 85.2206 239.889 85.2206 240.005 80.0043V75.9806C240.005 73.2469 238.005 71.9579 236.005 71.9962ZM35.993 75.9806H87.994C87.994 82.698 82.7268 88.0041 76.0094 88.0041H48.0167C41.2993 88.0041 35.993 82.6982 35.993 75.9806ZM139.808 96.0044C134.406 96.3703 134.774 104.138 139.995 104.005H183.988C189.441 104.126 189.441 95.8839 183.988 96.0044H139.808ZM199.801 96.0044C194.4 96.3703 194.775 104.138 199.996 104.005H215.997C221.449 104.126 221.449 95.8839 215.997 96.0044H199.801ZM23.7975 112.012C18.3788 112.396 18.7849 120.168 24.0084 120.013H68.0093C73.4624 120.134 73.4624 111.891 68.0093 112.012H23.7975ZM83.8065 112.012C78.1413 112.174 78.5639 120.415 84.0096 120.013H100.018C105.471 120.134 105.471 111.891 100.018 112.012H83.8065ZM184.433 119.997C184.285 119.994 184.136 119.999 183.988 120.012H139.808C134.709 120.621 135.052 127.844 139.995 127.981H183.988C189.473 128.462 189.938 120.129 184.433 119.997ZM216.215 120.005L199.809 120.013C194.71 120.622 195.053 127.845 199.996 127.982H215.997C221.482 128.463 221.942 120.129 216.215 120.005ZM24.0084 135.982C18.6697 135.982 18.6697 143.99 24.0084 143.99H68.0093C73.3479 143.99 73.3479 135.982 68.0093 135.982H24.0084ZM84.0096 135.982C78.6709 135.982 78.6709 143.99 84.0096 143.99H100.018C105.356 143.99 105.356 135.982 100.018 135.982H84.0096ZM178.222 142.294C176.612 142.081 175.411 142.698 174.511 144.256L136.542 210.015C135.014 212.676 136.927 215.994 139.995 216.007H215.997C218.221 216.019 220.029 214.216 220.02 211.991C219.991 183.432 204.713 157.047 179.972 142.779C179.34 142.526 178.759 142.365 178.222 142.294ZM179.418 151.802C198.367 164.275 210.56 185.362 211.918 208.007H203.871C202.606 188.037 192.043 169.796 175.363 158.74L179.418 151.802ZM24.0083 159.99C18.5552 159.869 18.5552 168.111 24.0083 167.99H68.0092C73.4623 168.111 73.4623 159.869 68.0092 159.99H24.0083ZM84.0095 159.99C78.5564 159.869 78.5564 168.111 84.0095 167.99H100.018C105.471 168.111 105.471 159.869 100.018 159.99H84.0095ZM171.371 165.662C185.595 175.275 194.622 190.884 195.855 208.007H146.933L171.371 165.662ZM172.003 179.998C171.478 179.998 170.958 180.102 170.473 180.303C169.987 180.504 169.546 180.799 169.175 181.17C168.804 181.541 168.509 181.982 168.308 182.467C168.107 182.953 168.003 183.473 168.003 183.998C168.003 185.059 168.425 186.077 169.175 186.827C169.925 187.577 170.943 187.998 172.003 187.998C173.064 187.998 174.082 187.577 174.832 186.827C175.582 186.077 176.004 185.059 176.004 183.998C176.004 183.473 175.9 182.953 175.699 182.467C175.498 181.982 175.203 181.541 174.832 181.17C174.461 180.799 174.02 180.504 173.534 180.303C173.049 180.102 172.529 179.998 172.003 179.998ZM23.8053 183.998C18.3866 184.382 18.7849 192.154 24.0084 191.999H68.0092C73.4624 192.119 73.4624 183.877 68.0092 183.998H23.8053ZM83.8064 183.998C78.1413 184.16 78.5638 192.401 84.0096 191.999H100.018C105.471 192.119 105.471 183.877 100.018 183.998H83.8064ZM164.003 195.999C162.942 195.999 161.925 196.42 161.175 197.17C160.425 197.92 160.003 198.938 160.003 199.999C160.003 201.06 160.425 202.077 161.175 202.827C161.925 203.577 162.942 203.998 164.003 203.998C165.064 203.998 166.082 203.577 166.832 202.827C167.582 202.077 168.003 201.06 168.003 199.999C168.003 198.938 167.582 197.92 166.832 197.17C166.082 196.42 165.064 195.999 164.003 195.999ZM184.004 195.999C182.943 195.999 181.925 196.42 181.175 197.17C180.425 197.92 180.004 198.938 180.004 199.999C180.004 201.06 180.425 202.077 181.175 202.827C181.925 203.577 182.943 203.998 184.004 203.998C185.065 203.998 186.082 203.577 186.832 202.827C187.582 202.077 188.004 201.06 188.004 199.999C188.004 198.938 187.582 197.92 186.832 197.17C186.082 196.42 185.065 195.999 184.004 195.999ZM23.8053 208.006C18.3866 208.39 18.7849 216.162 24.0084 216.007H68.0093C73.4624 216.128 73.4624 207.886 68.0093 208.006H23.8053ZM83.8065 208.006C78.3878 208.39 78.7861 216.162 84.0096 216.007H100.018C105.471 216.128 105.471 207.886 100.018 208.006H83.8065Z" fill="black"/>
</g>
<defs>
<clipPath id="clip0_8_312">
<rect width="240" height="240" fill="white"/>
</clipPath>
</defs>
</svg>
