<svg width="240" height="240" viewBox="0 0 240 240" fill="none" xmlns="http://www.w3.org/2000/svg">
<g clip-path="url(#clip0_8_324)">
<path d="M208.004 159.998L16.7352 235.265C8.72873 238.416 1.58433 231.271 4.73499 223.265L80.0018 31.9956C80.0018 31.9956 151.253 32.9951 179.254 60.9964C207.254 88.9969 208.004 159.998 208.004 159.998Z" fill="#FDD5A6"/>
<path d="M220.005 171.998C211.168 171.998 204.004 164.835 204.004 155.998C204.004 89.7227 150.277 35.9958 84.0018 35.9958C75.165 35.9959 68.0013 28.8325 68.0013 19.9957C68.0013 11.1588 75.165 3.99481 84.0018 3.99512C167.951 3.99542 236.005 72.0492 236.005 155.998C236.005 164.835 228.841 171.998 220.005 171.998Z" fill="#FCB860"/>
<path d="M176.004 131.997C176.004 138.363 173.475 144.467 168.974 148.968C164.473 153.469 158.368 155.998 152.003 155.998C148.851 155.998 145.73 155.377 142.819 154.171C139.907 152.964 137.261 151.197 135.032 148.968C132.804 146.739 131.036 144.094 129.83 141.182C128.623 138.27 128.003 135.149 128.003 131.997C128.003 128.845 128.623 125.725 129.83 122.813C131.036 119.901 132.804 117.255 135.032 115.026C137.261 112.798 139.907 111.03 142.819 109.823C145.73 108.617 148.851 107.997 152.003 107.997C158.368 107.997 164.473 110.525 168.974 115.026C173.475 119.527 176.004 125.632 176.004 131.997ZM108.002 135.997C108.002 140.241 106.317 144.311 103.316 147.311C100.315 150.312 96.2455 151.998 92.002 151.998C87.7585 151.998 83.6887 150.312 80.6881 147.311C77.6874 144.311 76.0017 140.241 76.0017 135.997C76.0017 133.896 76.4155 131.816 77.2196 129.874C78.0237 127.933 79.2023 126.169 80.688 124.684C82.1738 123.198 83.9377 122.019 85.8789 121.215C87.8202 120.411 89.9008 119.997 92.002 119.997C94.1032 119.997 96.1838 120.411 98.1251 121.215C100.066 122.019 101.83 123.198 103.316 124.684C104.802 126.169 105.98 127.933 106.784 129.874C107.588 131.816 108.002 133.896 108.002 135.997ZM70.5016 56.1284L53.5793 99.1449C57.7333 102.284 62.7951 103.987 68.0015 103.997C74.3668 103.997 80.4714 101.468 84.9724 96.9672C89.4734 92.4663 92.002 86.3617 92.002 79.9964C92.0014 74.0643 89.804 68.3424 85.8336 63.9349C81.8633 59.5274 76.4014 56.7463 70.5016 56.1284Z" fill="#FC6067"/>
<path d="M207.41 148.021L6.88311 227.663C5.95486 228.028 5.01928 228.26 4.08618 228.421C4.86378 233.956 10.5292 237.707 16.7349 235.265L208.004 159.998C208.004 159.998 207.944 155.338 207.41 148.021Z" fill="#FDCC93"/>
<path d="M113.846 6.9404C177.605 26.5301 224.012 85.8504 224.012 156.006C224.013 162.3 221.028 167.897 216.434 171.561C217.586 171.824 218.773 171.998 220.005 171.998C228.841 171.998 236.005 164.834 236.005 155.998C236.005 82.2657 183.501 20.8111 113.846 6.9404Z" fill="#FBB04F"/>
<path d="M64.0014 183.999C57.6361 183.999 51.5315 186.527 47.0306 191.028C42.5296 195.529 40.001 201.634 40.001 207.999C40.0104 213.803 42.1226 219.407 45.9464 223.773L87.9707 207.233C87.7719 201.007 85.1601 195.102 80.6872 190.766C76.2144 186.43 70.2309 184.003 64.0014 183.999Z" fill="#FC6067"/>
<path d="M85.0722 196.608L40.8525 214.171C41.7939 217.719 43.5365 221.004 45.9464 223.773L87.9707 207.233C87.8412 203.515 86.8489 199.878 85.0722 196.608Z" fill="#FB4F56"/>
<path d="M84.0174 0.00244141C73.0187 0.00213905 63.9936 8.99666 63.9936 19.9953C63.9936 27.2234 67.9272 33.5223 73.7204 37.0344L1.0158 221.796C-1.08523 227.135 0.226922 232.789 3.71899 236.281C7.21098 239.773 12.8644 241.085 18.2036 238.984L202.949 166.287C206.462 172.072 212.761 175.991 219.989 175.991C230.987 175.991 240.013 167.004 240.013 156.006C240.013 69.8951 170.128 0.00274378 84.0174 0.00244141ZM96.0021 79.9965C96.0009 67.4397 87.6383 56.6217 75.9704 53.16L81.244 39.769C82.1523 39.89 83.0756 39.9882 84.0174 39.9882C125.456 39.9882 161.759 61.7043 182.285 94.3485C185.088 99.0759 192.12 94.6209 189.043 90.0674C167.102 55.1732 128.25 31.9799 84.0174 31.98C77.3425 31.9802 71.9938 26.6708 71.9938 19.9958C71.9938 13.3207 77.3425 8.01072 84.0174 8.01103C165.804 8.01118 232.012 74.2191 232.013 156.006C232.013 162.681 226.664 167.991 219.989 167.991C213.314 167.991 208.004 162.681 208.004 156.006C208.004 146.054 206.824 136.35 204.606 127.068C203.632 121.473 195.175 123.498 196.84 128.927C198.914 137.606 199.996 146.683 199.996 156.006C199.996 156.945 200.089 157.859 200.215 158.764L91.2442 201.648C88.3481 189.244 77.1841 180.017 63.9936 180.006C48.5767 180.006 36.0009 192.582 36.0009 207.999C36.0089 212.917 37.328 217.707 39.751 221.914L15.2739 231.547C12.6066 232.596 10.6773 231.911 9.38317 230.617C8.08904 229.323 7.40377 227.394 8.45339 224.726L55.5637 105.013C59.4037 106.927 63.6326 107.981 67.9936 107.99C83.4261 107.99 96.0021 95.4133 96.0021 79.9965ZM73.0172 60.6754C81.7267 62.9259 88.001 70.7424 88.0019 79.9965C88.0019 91.0898 79.1026 99.9889 68.0093 99.9889C64.6712 99.9809 61.4144 99.1225 58.5091 97.5436L73.0172 60.6754ZM120.003 83.9966C117.793 83.9966 116.002 85.787 116.002 87.9963C116.002 90.2054 117.793 91.9964 120.003 91.9964C122.212 91.9964 124.003 90.2054 124.003 87.9963C124.003 85.787 122.212 83.9966 120.003 83.9966ZM190.199 109.231C190.849 110.704 191.469 112.18 192.059 113.684C193.846 118.998 201.804 115.872 199.496 110.762C198.866 109.154 198.214 107.588 197.52 106.013C195.009 100.992 188.289 104.535 190.199 109.231ZM152.019 104.005C136.602 104.005 123.995 116.58 123.995 131.997C123.995 147.414 136.602 159.99 152.019 159.99C167.436 159.99 180.012 147.414 180.012 131.997C180.012 116.58 167.436 104.005 152.019 104.005ZM152.019 112.005C163.112 112.005 172.011 120.904 172.011 131.997C172.011 143.091 163.112 151.982 152.019 151.982C140.925 151.982 131.995 143.091 131.995 131.997C131.995 120.904 140.925 112.005 152.019 112.005ZM92.0176 115.989C81.0191 115.989 71.9938 125.015 71.9938 136.013C71.9938 147.012 81.0191 156.006 92.0176 156.006C103.016 156.006 112.01 147.012 112.01 136.013C112.01 125.015 103.016 115.989 92.0176 115.989ZM92.0176 123.989C98.6925 123.989 104.002 129.338 104.002 136.013C104.002 142.688 98.6925 147.997 92.0176 147.997C85.3427 147.997 79.9939 142.688 79.9939 136.013C79.9939 129.338 85.3427 123.989 92.0176 123.989ZM52.0012 155.998C49.792 155.998 48.0011 157.789 48.0011 159.998C48.0011 162.207 49.792 163.998 52.0012 163.998C54.2103 163.998 56.0013 162.207 56.0013 159.998C56.0013 157.789 54.2103 155.998 52.0012 155.998ZM112.002 167.998C109.793 167.998 108.002 169.789 108.002 171.998C108.002 174.207 109.793 175.998 112.002 175.998C114.212 175.998 116.002 174.207 116.002 171.998C116.002 169.789 114.212 167.998 112.002 167.998ZM63.9936 188.014C73.8981 188.022 82.0339 195.154 83.6346 204.647L47.3448 218.921C45.2151 215.685 44.0073 211.913 44.001 207.999C44.001 196.905 52.9003 188.014 63.9936 188.014Z" fill="black"/>
</g>
<defs>
<clipPath id="clip0_8_324">
<rect width="240" height="240" fill="white"/>
</clipPath>
</defs>
</svg>
