<svg width="224" height="240" viewBox="0 0 224 240" fill="none" xmlns="http://www.w3.org/2000/svg">
<g clip-path="url(#clip0_7_261)">
<path d="M152.003 59.9962L168.004 3.99512H176.004L192.004 59.9962H152.003Z" fill="#FCB860"/>
<path d="M168.004 3.99512L166.074 10.7372L179.84 58.8865H191.684L176.004 3.99512H168.004Z" fill="#FBB04F"/>
<path d="M32.0009 59.9962L48.0012 3.99512H56.0014L72.0016 59.9962H32.0009Z" fill="#FC6067"/>
<path d="M48.0012 3.99512L46.0793 10.7294L59.8452 58.8865H71.6814L56.0014 3.99512H48.0012Z" fill="#FB4F56"/>
<path d="M24.0007 59.9966C19.5687 59.9966 16.0007 63.5643 16.0007 67.9964V83.997H88.0021V67.9964C88.0021 63.5643 84.434 59.9966 80.0019 59.9966H24.0007ZM144.003 59.9966C139.571 59.9966 136.003 63.5643 136.003 67.9964V83.997H208.004V67.9964C208.004 63.5643 204.436 59.9966 200.004 59.9966H144.003Z" fill="#E7EBEF"/>
<path d="M72.8533 59.9966C74.7842 62.1361 75.994 64.9359 75.994 68.0121V83.9813H88.002V67.9964C88.002 63.5643 84.434 59.9966 80.0019 59.9966H72.8533ZM192.848 59.9966C194.779 62.1361 195.996 64.9359 195.996 68.0121V83.9813H208.004V67.9964C208.004 63.5643 204.436 59.9966 200.004 59.9966H192.848Z" fill="#DBE1E7"/>
<path d="M12.0005 83.9966H92.0021C96.4342 83.9966 100.002 87.5648 100.002 91.9969V227.999C100.002 232.431 96.4342 236 92.0021 236H12.0005C7.56849 236 4.00041 232.431 4.00041 227.999V91.9969C4.00041 87.5648 7.56849 83.9966 12.0005 83.9966Z" fill="#FC6067"/>
<path d="M80.0021 159.998C80.0021 163.675 79.2778 167.316 77.8707 170.714C76.4635 174.111 74.401 177.198 71.8009 179.798C69.2008 182.398 66.114 184.46 62.7168 185.867C59.3196 187.275 55.6785 187.999 52.0014 187.999C48.3243 187.999 44.6832 187.275 41.2859 185.867C37.8887 184.46 34.802 182.398 32.2019 179.798C29.6017 177.198 27.5392 174.111 26.1321 170.714C24.7249 167.316 24.0007 163.675 24.0007 159.998C24.0007 152.572 26.9508 145.45 32.2019 140.199C37.4531 134.948 44.5751 131.998 52.0014 131.998C59.4276 131.998 66.5497 134.948 71.8008 140.199C77.052 145.45 80.0021 152.572 80.0021 159.998Z" fill="#E7EBEF"/>
<path d="M84.8692 83.9966C86.8009 86.1251 88.0177 88.9124 88.0177 91.9812V227.991C88.0177 231.064 86.7974 233.863 84.8613 236H92.0021C96.4342 236 100.002 232.431 100.002 227.999V91.9969C100.002 87.5648 96.4342 83.9966 92.0021 83.9966H84.8692Z" fill="#FB4F56"/>
<path d="M132.003 83.9966H212.004C216.437 83.9966 220.005 87.5648 220.005 91.9969V227.999C220.005 232.431 216.437 236 212.004 236H132.003C127.571 236 124.003 232.431 124.003 227.999V91.9969C124.003 87.5648 127.571 83.9966 132.003 83.9966Z" fill="#FCB860"/>
<path d="M200.004 159.998C200.004 163.675 199.28 167.316 197.873 170.714C196.466 174.111 194.403 177.198 191.803 179.798C189.203 182.398 186.116 184.46 182.719 185.867C179.322 187.275 175.681 187.999 172.004 187.999C168.327 187.999 164.686 187.275 161.288 185.867C157.891 184.46 154.804 182.398 152.204 179.798C149.604 177.198 147.542 174.111 146.134 170.714C144.727 167.316 144.003 163.675 144.003 159.998C144.003 152.572 146.953 145.45 152.204 140.199C157.455 134.948 164.578 131.998 172.004 131.998C179.43 131.998 186.552 134.948 191.803 140.199C197.054 145.45 200.004 152.572 200.004 159.998Z" fill="#E7EBEF"/>
<path d="M204.872 83.9966C206.803 86.1251 208.02 88.9124 208.02 91.9812V227.991C208.02 231.064 206.8 233.863 204.864 236H212.005C216.437 236 220.005 232.431 220.005 227.999V91.9969C220.005 87.5648 216.437 83.9966 212.005 83.9966H204.872Z" fill="#FBB04F"/>
<path d="M44.1574 2.90127L28.9852 55.9883H23.993C17.414 55.9883 12.0083 61.4327 12.0083 68.0117V79.9965C5.42936 79.9965 -0.0153351 85.4023 -0.0153351 91.9812V227.992C-0.0153351 234.57 5.42936 240.008 12.0083 240.008H91.9943C98.5732 240.008 104.018 234.57 104.018 227.992V91.9812C104.018 85.4023 98.5732 79.9965 91.9943 79.9965V68.0117C91.9943 61.4327 86.5886 55.9883 80.0097 55.9883H75.0174L59.8374 2.90127C59.3467 1.18881 57.7828 0.00728712 56.0014 0.00290278H47.8098C45.9777 0.163158 44.6037 1.31354 44.1574 2.90127ZM164.16 2.90127L148.988 55.9883H143.995C137.416 55.9883 132.011 61.4327 132.011 68.0117V79.9965C131.188 79.9965 130.383 80.0719 129.604 80.2382C124.156 81.3631 119.987 86.2241 119.987 91.9808V227.992C119.987 234.57 125.432 240.007 132.011 240.007H211.997C218.893 240.007 224.02 234.434 224.02 227.992V91.9808C224.02 91.1583 223.933 90.3596 223.77 89.5821C222.639 84.1391 217.753 79.996 211.997 79.996V68.0113C211.997 61.4324 206.591 55.9878 200.012 55.9878H195.02L179.84 2.90081C179.349 1.18835 177.785 0.00667456 176.004 0.00244141H167.812C165.98 0.162697 164.606 1.31354 164.16 2.90127ZM51.0091 8.01057H52.9857L66.7047 55.9883H37.2979L51.0091 8.01057ZM171.011 8.01057H172.988L186.707 55.9883H157.3L171.011 8.01057ZM23.993 63.9885H80.0097C82.2947 63.9885 83.9942 65.7264 83.9942 68.0117V79.9965H20.0085V68.0117C20.0085 65.7264 21.7077 63.9885 23.993 63.9885ZM143.995 63.9885H200.012C202.297 63.9885 203.997 65.7264 203.997 68.0117V79.9965H200.012C194.833 79.9965 194.598 87.9968 200.012 87.9968H211.997C214.282 87.9968 216.012 89.6959 216.012 91.9812V227.992C216.012 230.277 214.282 232.007 211.997 232.007H132.011C129.726 232.007 127.987 230.277 127.987 227.992V91.9812C127.987 91.4097 128.102 90.8758 128.3 90.395C128.893 88.9527 130.297 87.9968 132.011 87.9968H164.019C164.152 87.9981 164.285 87.9929 164.417 87.9815C169.501 87.5038 169.125 79.966 164.019 79.9969H140.011V68.0122C140.011 65.7269 141.71 63.9885 143.995 63.9885ZM179.988 87.9968H184.004C189.457 88.1177 189.457 79.8755 184.004 79.9965H179.988C175.025 79.9965 174.557 87.9968 179.988 87.9968ZM12.0083 87.9968H91.9943C94.2793 87.9968 96.01 89.6959 96.01 91.9812V227.992C96.01 230.277 94.2794 232.007 91.9943 232.007H12.0083C9.72305 232.007 7.98483 230.277 7.98483 227.992V91.9812C7.98483 89.6959 9.7231 87.9968 12.0083 87.9968ZM52.017 128.013C34.3908 128.013 20.0085 142.364 20.0085 159.99C20.0085 177.616 34.3908 191.999 52.017 191.999C69.6431 191.999 83.9942 177.616 83.9942 159.99C83.9942 142.364 69.6431 128.013 52.017 128.013ZM172.019 128.013C154.393 128.013 140.011 142.364 140.011 159.99C140.011 177.616 154.393 191.999 172.019 191.999C189.645 191.999 203.997 177.616 203.997 159.99C203.997 142.364 189.645 128.013 172.019 128.013ZM52.017 136.013C65.3195 136.013 75.994 146.688 75.994 159.99C75.994 173.293 65.3195 183.991 52.017 183.991C38.7144 183.991 28.0087 173.293 28.0087 159.99C28.0087 146.688 38.7144 136.013 52.017 136.013ZM172.019 136.013C185.322 136.013 195.996 146.688 195.996 159.99C195.996 173.293 185.322 183.991 172.019 183.991C158.717 183.991 148.011 173.293 148.011 159.99C148.011 146.688 158.717 136.013 172.019 136.013Z" fill="black"/>
</g>
<defs>
<clipPath id="clip0_7_261">
<rect width="224" height="240" fill="white"/>
</clipPath>
</defs>
</svg>
