<svg width="244" height="240" viewBox="0 0 244 240" fill="none" xmlns="http://www.w3.org/2000/svg">
<g clip-path="url(#clip0_8_290)">
<path d="M141.118 172.356L200.105 231.022C203.097 233.997 207.93 234.014 210.942 231.059C213.954 228.104 213.97 223.33 210.979 220.355L151.993 161.689L141.118 172.356Z" fill="#FDD5A6"/>
<path d="M141.118 172.356L154.675 185.839C156.798 184.488 158.817 182.921 160.681 181.092C162.552 179.258 164.158 177.26 165.542 175.165L151.993 161.689L141.118 172.356Z" fill="#FDCC93"/>
<path d="M13.8853 81.6166C0.921616 68.723 0.992813 48.0354 14.0452 35.2317C27.0975 22.4281 48.0421 22.5001 61.0061 35.3937L153.222 127.109C166.186 140.003 166.115 160.691 153.062 173.494C140.01 186.298 119.065 186.226 106.101 173.332L13.8853 81.6166Z" fill="#FCB860"/>
<path d="M15.2445 34.1656C28.1601 29.7928 43.0347 32.7148 53.307 42.9314L145.517 134.648C155.797 144.872 158.645 159.605 154.115 172.345C166.066 159.481 165.81 139.635 153.22 127.113L61.0096 35.3966C48.4288 22.8841 28.3503 22.4789 15.2445 34.1656Z" fill="#FBB04F"/>
<path d="M0.612751 58.3881C0.58066 67.6951 4.16091 77.0074 11.326 84.1336L103.543 175.85C115.101 187.346 132.488 189.601 146.354 182.625L197.542 233.536C201.9 237.87 209.1 237.895 213.487 233.591C217.875 229.286 217.9 222.175 213.542 217.841L162.346 166.923C169.496 153.272 167.33 136.077 155.775 124.585L100.684 69.7929C100.353 69.4487 99.9564 69.1731 99.5165 68.9823C99.0766 68.7915 98.6025 68.6893 98.1221 68.6816C97.6418 68.674 97.1647 68.761 96.7188 68.9377C96.2729 69.1144 95.8671 69.3772 95.5253 69.7106C95.1835 70.0441 94.9123 70.4416 94.7279 70.8798C94.5435 71.318 94.4493 71.7881 94.4511 72.2627C94.4529 72.7372 94.5507 73.2067 94.7384 73.6435C94.9261 74.0804 95.2 74.4759 95.5444 74.8069L150.663 129.627C162.261 141.161 162.198 159.498 150.521 170.952C138.844 182.407 120.252 182.343 108.654 170.808L16.4375 79.0918C4.84008 67.5572 4.9029 49.2206 16.58 37.7662C28.2567 26.3119 46.8491 26.376 58.4468 37.9106L70.3509 49.7501C70.6828 50.0955 71.0812 50.3719 71.5227 50.5632C71.9642 50.7544 72.44 50.8567 72.9221 50.8639C73.4041 50.8711 73.8829 50.7831 74.33 50.6051C74.7772 50.4272 75.1837 50.1628 75.526 49.8275C75.8683 49.4921 76.1395 49.0927 76.3234 48.6525C76.5073 48.2123 76.6002 47.7403 76.5969 47.2641C76.5936 46.788 76.4938 46.3172 76.3038 45.8795C76.1138 45.4419 75.8377 45.0461 75.4907 44.7154L63.5583 32.8687C49.2281 18.6166 25.9313 18.536 11.5034 32.6892C4.28905 39.7657 0.644844 49.081 0.612751 58.3881ZM25.8808 57.7012C25.8367 58.6113 26.1762 59.5712 27.0785 60.4162C33.9361 67.2364 44.7447 63.6583 48.7211 67.6131C52.7129 71.5832 49.2392 82.4563 55.858 89.0394C62.4769 95.6224 73.5096 92.2669 77.5147 96.2504C81.5198 100.234 78.0479 111.108 84.6657 117.691C91.2847 124.274 102.317 120.918 106.322 124.902C110.328 128.885 106.855 139.759 113.473 146.335C120.185 153.004 131.08 149.518 135.13 153.546C138.514 157.146 143.871 151.905 140.262 148.525C133.405 141.705 122.599 145.285 118.613 141.307C114.733 137.449 118.048 126.418 111.462 119.867C104.875 113.316 93.6848 116.514 89.8051 112.656C85.9255 108.797 89.2407 97.7666 82.6541 91.2157C76.0673 84.6646 64.8771 87.8631 60.9974 84.0047C57.1178 80.1461 60.4293 69.1117 53.8538 62.5852C47.1531 55.9341 36.2607 59.4301 32.2108 55.4022C29.6732 52.7025 26.0243 54.9709 25.8808 57.7012ZM80.059 58.0269C80.0838 58.954 80.4731 59.8351 81.1443 60.4837L84.6248 63.9454C84.9525 64.3016 85.3498 64.5887 85.7927 64.7893C86.2357 64.9899 86.7149 65.1 87.202 65.1128C87.6891 65.1257 88.1739 65.041 88.627 64.8641C89.0802 64.6871 89.4924 64.4214 89.8389 64.0829C90.1853 63.7445 90.4588 63.3403 90.643 62.8948C90.8272 62.4492 90.9183 61.9714 90.9107 61.4901C90.9031 61.0089 90.7971 60.5341 90.5989 60.0944C90.4007 59.6547 90.1145 59.2592 89.7575 58.9315L86.2765 55.4699C85.7722 54.951 85.1208 54.5948 84.408 54.4479C83.6951 54.301 82.9541 54.3704 82.2819 54.6469C81.6096 54.9233 81.0376 55.394 80.641 55.9972C80.2443 56.6003 80.0414 57.3078 80.059 58.0269ZM152.562 178.673C153.606 177.85 154.628 176.979 155.598 176.028C156.572 175.073 157.467 174.065 158.31 173.034L208.416 222.868C210.042 224.485 210.033 226.921 208.397 228.527C206.76 230.132 204.293 230.124 202.668 228.507L152.562 178.673Z" fill="black"/>
<path d="M108.002 115.997L43.9852 180.014C42.1255 177.529 39.713 175.512 36.9386 174.12C34.1642 172.729 31.1042 172.003 28.0005 171.999C22.6961 171.999 17.609 174.106 13.8582 177.857C10.1074 181.607 8.00023 186.694 8.00024 191.999C8.00027 197.303 10.1074 202.39 13.8582 206.141C17.609 209.892 22.6961 211.999 28.0005 211.999C29.5296 211.991 31.0526 211.807 32.5398 211.452C32.1864 212.942 32.0054 214.467 32.0001 215.999C32.0001 221.303 34.1073 226.391 37.8581 230.141C41.6089 233.892 46.696 235.999 52.0004 235.999C57.3048 235.999 62.392 233.892 66.1428 230.141C69.8936 226.391 72.0008 221.303 72.0008 215.999C71.9966 212.895 71.2701 209.835 69.8789 207.061C68.4876 204.287 66.4698 201.874 63.9851 200.014L128.002 135.997L108.002 115.997Z" fill="#FDD5A6"/>
<path d="M119.541 127.537L58.4699 188.616C61.4341 191.73 63.3404 195.669 64.1888 199.811L128.003 135.998L119.541 127.537ZM64.2904 200.249C64.5628 201.714 64.7024 203.202 64.7044 204.687C64.7044 217.894 53.9039 228.695 40.6961 228.695C39.1561 228.695 37.6622 228.513 36.2039 228.226C38.0694 230.641 40.4629 232.598 43.2011 233.945C45.9392 235.292 48.9494 235.995 52.001 236C57.3055 236 62.3926 233.893 66.1434 230.142C69.8942 226.391 72.0014 221.304 72.0014 216C71.997 212.961 71.3003 209.963 69.9642 207.234C68.6281 204.505 66.6877 202.116 64.2904 200.249Z" fill="#FDCC93"/>
<path d="M100.002 168.001C103.534 171.53 109.246 171.55 112.649 167.895L120.002 159.998C128.003 171.998 145.594 169.877 149.776 157.154C160.781 163.596 174.574 159.574 178.746 146.935C190.165 156.82 207.928 152.081 211.692 135.505C225.775 138.817 236.754 121.15 229.161 109.763C241.086 103.766 244.691 86.0956 231.966 75.9967C243.255 67.2546 242.988 49.764 229.161 42.2225C233.846 34.366 232.605 24.3319 226.145 17.8548C219.668 11.3953 209.634 10.1536 201.778 14.8393C194.236 1.01167 176.745 0.745494 168.003 12.0346C157.904 -0.691057 140.234 2.91387 134.237 14.8393C122.85 7.24651 105.183 18.2254 108.495 32.3084C91.9192 36.0723 87.1794 53.8352 97.065 65.2544C84.4257 69.4265 80.4041 83.2184 86.846 94.2234C74.1228 98.4059 72.0014 115.998 84.0017 123.998L76.1047 131.351C72.4494 134.754 72.4696 140.466 75.9989 143.998L100.002 168.001Z" fill="#FCB860"/>
<path d="M222.77 15.2137C232.033 25.6164 227.476 40.1988 226.317 42.7381C236.577 49.577 237.909 64.5547 227.286 70.8715C237.072 81.86 233.514 91.9632 222.997 99.8561C228.059 112.873 217.586 129.016 203.254 128.545C200.457 136.21 194.657 141.507 187.973 143.638C181.844 145.593 175.02 144.907 169.081 141.584C163.206 151.503 151.025 155.114 140.37 151.107C137.061 156.563 131.399 159.873 125.44 160.498C123.739 160.677 122.005 160.619 120.284 160.362C128.402 171.924 145.64 169.734 149.776 157.151C160.781 163.593 174.574 159.571 178.746 146.932C190.165 156.817 207.928 152.078 211.692 135.502C225.775 138.814 236.754 121.146 229.161 109.76C241.086 103.763 244.691 86.0922 231.966 75.9932C243.255 67.2511 242.988 49.7605 229.161 42.219C233.846 34.3626 232.605 24.3284 226.145 17.8514C225.112 16.8203 223.961 15.9758 222.77 15.2137ZM108.572 154.662L104.268 159.287C101.839 161.895 98.5623 163.196 95.2597 163.256L100.002 167.998C103.534 171.528 109.247 171.552 112.651 167.893L119.745 160.267C115.719 159.569 111.793 157.722 108.572 154.662Z" fill="#FBB04F"/>
<path d="M31.61 207.562C30.4278 207.844 29.2163 207.991 28.0007 207.998C19.1166 207.998 12.0006 200.882 12.0003 191.998C12.0003 183.117 19.1124 176.002 27.9928 175.998C33.0303 176.005 37.7635 178.379 40.7821 182.412C42.2425 184.362 45.0916 184.565 46.8136 182.841L78.0016 151.653L97.1818 170.818C102.233 175.866 110.651 175.901 115.581 170.606L119.893 165.983C124.632 170.485 130.887 172.434 136.753 171.819C142.711 171.194 148.374 167.884 151.683 162.428C163.276 166.684 174.518 162.824 180.394 152.904C186.332 156.228 193.164 156.913 199.293 154.959C205.978 152.827 211.766 147.526 214.567 139.865C228.899 140.337 239.379 124.202 234.317 111.185C245.143 103.469 247.775 86.5587 237.724 76.0122C242.149 71.0694 244.342 64.7185 243.966 58.4338C243.57 51.8299 240.273 45.2989 234.286 40.8004C237.751 32.0393 235.783 21.8626 228.966 15.0265C225.086 11.158 220.137 8.845 214.973 8.20595C211.036 7.71914 206.981 8.20826 203.192 9.70589C198.699 3.71915 192.202 0.233012 185.59 0.0261922C177.596 -0.223262 172.111 2.67968 167.996 6.26032C156.907 -3.76485 140.599 -0.838526 132.815 9.67451C119.795 4.60743 103.651 15.0958 104.127 29.433C96.4713 32.2353 91.1639 38.0168 89.0331 44.6986C87.0807 50.8215 87.7888 57.6638 91.1113 63.6054C81.1915 69.4875 77.3417 81.1529 81.5641 92.3404C76.1197 95.6596 72.7968 101.323 72.1733 107.27C71.558 113.135 73.5083 119.368 78.0095 124.099L73.3843 128.411C68.386 133.065 68.1954 140.794 72.4319 145.912L44.1031 174.209C39.7421 170.276 33.9865 168.006 28.009 167.998C14.8012 167.998 4.00064 178.791 4.00079 191.998C4.00079 205.206 14.7935 215.999 28.0013 215.999C28.0013 229.207 38.794 239.999 52.0017 240C65.2093 240 76.0021 229.207 76.0022 215.999C75.9942 210.022 73.6997 204.234 69.7677 199.874L74.8302 194.827C78.7553 191.056 72.9441 185.245 69.174 189.17L61.1582 197.186C59.4352 198.908 59.6384 201.757 61.5876 203.217C65.6206 206.236 67.9954 210.97 68.0017 216.007C67.9978 224.887 60.8828 231.999 52.0014 231.999C43.1227 231.999 36.0096 224.891 36.001 216.011C36.005 214.785 36.1522 213.564 36.4304 212.374C37.1168 209.475 34.5075 206.871 31.61 207.562ZM164.863 14.5264C166.483 16.5616 169.585 16.5467 171.183 14.4964C174.758 9.88888 179.985 7.69802 185.09 8.00387C190.195 8.30926 195.104 10.988 198.27 16.7622C199.369 18.7465 201.889 19.4377 203.84 18.2778C210.143 14.5189 218.129 15.5177 223.325 20.6996C228.486 25.8961 229.469 33.8913 225.715 40.1845C224.287 42.4238 225.711 45.2206 227.942 46.169C233.225 49.3289 235.704 54.0157 235.997 58.9035C236.292 63.8355 234.261 68.8997 229.966 72.4583C227.445 73.8537 227.181 77.375 229.465 79.1302C240.123 87.5881 236.768 101.453 227.371 106.178C224.689 107.345 224.932 110.444 226.316 112.842C230.902 120.785 223.008 133.619 213.019 131.663C210.192 130.987 208.303 132.71 207.792 134.616C206.193 141.659 201.895 145.74 196.87 147.343C191.846 148.945 186.065 147.985 181.37 143.921C178.983 141.73 175.117 143.138 174.698 146.351C171.281 155.528 160.96 158.822 152.112 153.835C149.152 152.245 146.542 153.744 145.963 155.905C144.371 160.749 140.422 163.407 135.892 163.882C131.363 164.357 126.535 162.549 123.345 157.765C121.846 155.529 118.613 155.376 116.908 157.459L109.728 165.178C107.85 167.195 104.833 167.189 102.822 165.178L78.8141 141.17C76.8038 139.158 76.7976 136.173 78.8141 134.295L86.7284 126.935C88.8589 125.031 88.3629 121.571 85.7835 120.341C81.3535 117.153 79.6837 112.476 80.1427 108.099C80.6174 103.57 83.2445 99.6207 88.0882 98.0282C90.8225 97.2134 91.8501 93.8817 90.0492 91.6691C85.2628 82.9072 87.9925 72.9727 97.5493 69.356C100.863 69.04 102.364 65.0512 100.081 62.6291C96.0167 57.9347 95.08 52.1454 96.6821 47.1213C98.2842 42.0971 102.334 37.7983 109.378 36.1991C111.74 35.7017 113.127 33.2431 112.331 30.9648C110.329 20.6956 123.635 12.811 131.855 18.066C133.85 19.5476 136.699 18.8718 137.816 16.6524C140.474 11.3667 146.018 8.10308 151.871 8.05046C156.423 8.00511 161.162 9.86354 164.863 14.5264ZM161.847 30.1753C155.696 30.1753 149.571 32.5059 144.901 37.1754C140.526 40.9237 146.794 47.1919 150.542 42.8162C156.824 36.5345 166.909 36.5342 173.191 42.8162C176.939 47.1922 183.208 40.9237 178.832 37.1754C174.162 32.5057 167.998 30.1753 161.847 30.1753ZM129.885 71.3403C119.669 71.7621 110.413 78.7485 107.635 89.114C106.079 94.3734 114.1 96.5121 115.369 91.1763C117.669 82.5951 126.398 77.5722 134.979 79.8717C140.08 81.1567 142.11 73.5722 137.05 72.1371C134.658 71.4961 132.243 71.2436 129.885 71.3403ZM208.059 72.5196C206.305 72.6254 204.822 73.8531 204.403 75.5587C202.103 84.1399 193.374 89.1706 184.793 86.8712C179.357 84.945 177.053 93.5159 182.722 94.5744C195.48 97.9928 208.687 90.3864 212.106 77.6289C212.872 74.9874 210.806 72.3789 208.059 72.5196ZM152.058 123.911C150.968 123.921 149.93 124.375 149.183 125.169C142.901 131.451 132.816 131.451 126.534 125.169C125.781 124.395 124.747 123.958 123.667 123.958C120.075 123.966 118.312 128.335 120.893 130.833C130.233 140.172 145.484 140.172 154.823 130.833C157.485 128.343 155.703 123.881 152.058 123.911ZM83.0173 175.107L80.8064 177.279C76.6788 181.002 82.5929 187.04 86.4002 182.99L88.6111 180.826C92.6863 176.837 86.6803 171.509 83.0173 175.107Z" fill="black"/>
</g>
<defs>
<clipPath id="clip0_8_290">
<rect width="244" height="240" fill="white"/>
</clipPath>
</defs>
</svg>
