<svg width="128" height="240" viewBox="0 0 128 240" fill="none" xmlns="http://www.w3.org/2000/svg">
<g clip-path="url(#clip0_7_250)">
<path d="M124.004 43.9961C124.004 30.7407 113.258 19.9957 100.003 19.9957C96.6185 20.0076 93.2744 20.7333 90.1905 22.1282C86.0844 11.2239 75.6544 4.00192 64.0025 3.99512C52.3563 4.00706 41.9342 11.2292 37.8301 22.1282C34.7414 20.7312 31.3918 20.0043 28.0018 19.9957C14.7467 19.9957 4.00131 30.7407 4.00131 43.9961V79.9964H124.004V43.9961Z" fill="#59E78B"/>
<path d="M68.6354 4.40918C76.0052 7.10645 83.9063 12.1799 88.9405 23.9563C101.978 21.4594 112.003 37.4057 112.003 43.9958V79.9888H124.004V43.9958C124.004 30.7404 113.258 19.9954 100.003 19.9954C96.6185 20.0074 93.2744 20.7332 90.1905 22.1284C86.6385 12.6955 78.3492 6.04393 68.6354 4.40918Z" fill="#41E37A"/>
<path d="M92.003 63.9961C92.003 71.4223 89.053 78.5446 83.8018 83.7957C78.5507 89.0468 71.4287 91.9966 64.0025 91.9966C56.5763 91.9966 49.4542 89.0468 44.2031 83.7957C38.952 78.5446 36.0019 71.4223 36.0019 63.9961C36.0019 60.319 36.7262 56.6778 38.1333 53.2806C39.5405 49.8834 41.603 46.7967 44.2031 44.1966C46.8032 41.5965 49.8899 39.5343 53.2871 38.1272C56.6843 36.72 60.3254 35.9956 64.0025 35.9956C67.6796 35.9956 71.3207 36.72 74.7178 38.1272C78.115 39.5343 81.2018 41.5965 83.8019 44.1966C86.402 46.7967 88.4645 49.8834 89.8716 53.2806C91.2788 56.6778 92.003 60.319 92.003 63.9961Z" fill="#FC6067"/>
<path d="M124.004 179.998L124.004 227.999C124.004 232.431 120.436 236 116.003 236C76.0027 236 52.0023 236 12.0015 236C7.56939 236 4.00136 232.431 4.00132 227.999L4.00128 179.998H124.004Z" fill="#FBB04F"/>
<path d="M64.0025 35.9956C63.8123 36.0037 63.6222 36.014 63.4322 36.0261C73.2857 41.4814 79.9872 51.9723 79.9872 64.003C79.9872 76.0299 73.2882 86.5123 63.44 91.9722C63.6274 91.9842 63.8149 91.9945 64.0025 92.0026C71.4287 92.0027 78.5508 89.0528 83.8019 83.8017C89.053 78.5506 92.0031 71.4283 92.0031 64.0021C92.0031 60.325 91.2788 56.6838 89.8717 53.2866C88.4645 49.8894 86.402 46.8027 83.8019 44.2026C81.2018 41.6025 78.1151 39.5399 74.7179 38.1327C71.3207 36.7255 67.6796 35.9956 64.0025 35.9956Z" fill="#FB4F56"/>
<path d="M124.004 228L124.004 51.9959C124.004 47.5639 120.436 43.9956 116.004 43.9956C69.4666 43.9956 52.0023 93.4609 52.0023 139.998C52.0023 186.535 69.4666 236 116.004 236C120.436 236 124.004 232.432 124.004 228Z" fill="#FCB860"/>
<path d="M71.1198 67.3713C57.6682 86.0951 52.0023 113.514 52.0023 139.998C52.0023 166.481 57.6682 193.9 71.1198 212.624C71.3802 212.184 71.6746 211.765 71.9245 211.319C83.579 190.509 88.0186 164.757 88.0186 140.005C88.0186 115.253 83.579 89.5018 71.9245 68.6913C71.6721 68.2408 71.3822 67.8143 71.1198 67.3713ZM116.004 43.9956C114.642 43.9956 113.308 44.041 111.996 44.1317L112.004 228.003C112.004 230.884 110.935 233.524 109.207 235.596C111.405 235.841 113.659 236.003 116.004 236.003C120.436 236.003 124.004 232.435 124.004 228.003V51.9959C124.004 47.5639 120.436 43.9956 116.004 43.9956Z" fill="#FBB04F"/>
<path d="M4.00128 228V51.9959C4.00131 47.5639 7.56939 43.9956 12.0014 43.9956C58.5384 43.9956 76.0027 93.4609 76.0027 139.998C76.0027 186.535 58.5384 236 12.0014 236C7.56939 236 4.00131 232.432 4.00128 228Z" fill="#FCB860"/>
<path d="M128.003 228C128.011 166.675 127.995 105.329 127.995 44.0119C127.995 22.7352 106.806 12.144 92.3219 17.0975C86.8713 6.6135 76.028 -0.0134022 64.0095 -0.0205078C51.9965 -0.00856427 41.1681 6.63311 35.7207 17.1127C16.4572 11.8004 -0.0072937 26.4391 -0.0072937 44.0115V227.999C-0.00724683 234.578 5.43734 239.984 12.0164 239.984L115.796 239.992C122.582 240 128.003 234.579 128.003 228ZM64.0103 7.98762C74.0108 7.99155 82.9319 14.1916 86.4561 23.5503C87.2812 25.689 89.5832 26.7231 91.8234 25.7613C103.81 20.6155 117.178 27.2804 119.691 40.6444C113.548 38.4508 96.7456 41.9185 90.2336 45.6807C84.3121 37.1405 74.5816 31.9958 64.0025 31.9958C53.4363 31.9958 43.6833 37.154 37.7598 45.6757C30.0293 41.1154 11.6929 38.4829 8.29828 40.6522C10.9764 26.5915 25.4996 20.7119 36.166 25.7613C38.2084 26.7288 40.7484 25.7159 41.5724 23.5503C45.0948 14.196 54.0153 7.99759 64.0103 7.98762ZM64.0023 39.9957C71.7401 39.9957 78.8054 43.5862 83.2761 49.6993C75.4147 55.09 69.0411 62.4551 63.9945 70.9651C58.8978 62.3569 52.3541 54.9759 44.6972 49.7067C49.1697 43.6175 56.2813 39.9957 64.0023 39.9957ZM68.4479 200.459C76.5866 182.568 80.0185 160.978 80.0185 140.005C79.9036 134.789 72.1341 134.789 72.0183 140.005C72.0183 162.773 67.6436 186.191 57.9555 203.491C48.2673 220.79 33.8683 231.983 12.0171 231.983C9.73207 231.983 7.9936 230.284 7.9936 227.999V51.9799C7.9936 49.6946 9.73207 47.9958 12.017 47.9959C28.2221 47.9961 40.1817 54.1915 49.3926 64.4104C58.6035 74.629 64.8784 89.0578 68.4086 105.107C69.2719 110.731 77.7873 108.854 76.2057 103.388C74.3641 95.0157 71.8132 86.9615 68.4477 79.5435C78.0179 60.5527 93.2796 47.9959 116.003 47.9959C118.274 47.9959 119.975 49.6929 119.996 51.9569C120.015 110.616 120.004 169.325 120.004 227.999C120.004 230.282 118.292 231.996 115.789 231.992C93.5173 231.992 77.9564 219.324 68.4479 200.459ZM28.0018 75.9965C25.7926 75.9965 24.0017 77.7875 24.0017 79.9966C24.0017 82.2059 25.7926 83.9967 28.0018 83.9967C30.2109 83.9967 32.0019 82.2059 32.0019 79.9966C32.0019 77.7875 30.2109 75.9965 28.0018 75.9965ZM100.003 75.9965C97.794 75.9965 96.0031 77.7875 96.0031 79.9966C96.0031 82.2059 97.794 83.9967 100.003 83.9967C102.212 83.9967 104.003 82.2059 104.003 79.9966C104.003 77.7875 102.212 75.9965 100.003 75.9965ZM52.0023 95.9967C49.7931 95.9967 48.0022 97.7876 48.0022 99.9968C48.0022 102.206 49.7931 103.997 52.0023 103.997C54.2114 103.997 56.0023 102.206 56.0023 99.9968C56.0023 97.7876 54.2114 95.9967 52.0023 95.9967ZM28.0018 115.997C25.7926 115.997 24.0017 117.788 24.0017 119.998C24.0017 122.207 25.7926 123.998 28.0018 123.998C30.2109 123.998 32.0019 122.207 32.0019 119.998C32.0019 117.788 30.2109 115.997 28.0018 115.997ZM100.003 115.997C97.794 115.997 96.0031 117.788 96.0031 119.998C96.0031 122.207 97.794 123.998 100.003 123.998C102.212 123.998 104.003 122.207 104.003 119.998C104.003 117.788 102.212 115.997 100.003 115.997ZM70.9479 120.693C71.0901 121.972 71.2248 123.27 71.3383 124.56C71.9586 129.689 79.5945 129.015 79.3072 123.857C79.1878 122.51 79.0433 121.155 78.8931 119.81C77.8935 113.927 70.374 115.885 70.9479 120.693ZM52.0023 135.998C49.7931 135.998 48.0022 137.789 48.0022 139.998C48.0022 142.207 49.7931 143.998 52.0023 143.998C54.2114 143.998 56.0023 142.207 56.0023 139.998C56.0023 137.789 54.2114 135.998 52.0023 135.998ZM28.0018 155.998C25.7926 155.998 24.0017 157.789 24.0017 159.998C24.0017 162.207 25.7926 163.998 28.0018 163.998C30.2109 163.998 32.0019 162.207 32.0019 159.998C32.0019 157.789 30.2109 155.998 28.0018 155.998ZM100.003 155.998C97.794 155.998 96.0031 157.789 96.0031 159.998C96.0031 162.207 97.794 163.998 100.003 163.998C102.212 163.998 104.003 162.207 104.003 159.998C104.003 157.789 102.212 155.998 100.003 155.998ZM52.0023 175.999C49.7931 175.999 48.0022 177.79 48.0022 179.999C48.0022 182.208 49.7931 183.999 52.0023 183.999C54.2114 183.999 56.0023 182.208 56.0023 179.999C56.0023 177.79 54.2114 175.999 52.0023 175.999ZM28.0018 195.999C25.7926 195.999 24.0017 197.79 24.0017 199.999C24.0017 202.208 25.7926 203.999 28.0018 203.999C30.2109 203.999 32.0019 202.208 32.0019 199.999C32.0019 197.79 30.2109 195.999 28.0018 195.999ZM100.003 195.999C97.794 195.999 96.0031 197.79 96.0031 199.999C96.0031 202.208 97.794 203.999 100.003 203.999C102.212 203.999 104.003 202.208 104.003 199.999C104.003 197.79 102.212 195.999 100.003 195.999ZM64.0181 209.03C69.6242 218.663 76.7988 226.487 85.9482 231.984H42.0489C51.2246 226.489 58.4129 218.526 64.0181 209.03Z" fill="black"/>
</g>
<defs>
<clipPath id="clip0_7_250">
<rect width="128" height="240" fill="white"/>
</clipPath>
</defs>
</svg>
