<svg width="240" height="240" viewBox="0 0 240 240" fill="none" xmlns="http://www.w3.org/2000/svg">
<g clip-path="url(#clip0_8_297)">
<g clip-path="url(#clip1_8_297)">
<path d="M156.003 227.999C155.275 232.371 152.435 236 148.003 236H52.0012C47.5691 236 44.3906 232.415 44.001 228L24.0007 107.997H176.004L156.003 227.999Z" fill="#FC6067"/>
<path d="M236.005 35.9961V51.9962H44.001V35.9961H236.005Z" fill="#FCB860"/>
<path d="M128.003 187.999C128.003 195.425 125.053 202.547 119.802 207.799C114.551 213.05 107.428 216 100.002 216C92.576 216 85.4539 213.05 80.2028 207.799C74.9516 202.547 72.0015 195.425 72.0015 187.999C72.0015 180.573 74.9516 173.451 80.2028 168.2C85.4539 162.949 92.576 159.999 100.002 159.999C107.428 159.999 114.551 162.949 119.802 168.2C125.053 173.451 128.003 180.573 128.003 187.999Z" fill="#E7EBEF"/>
<path d="M236.005 3.99512V19.9952H44.001V3.99512H236.005Z" fill="#FCB860"/>
<path d="M60.0014 19.9956H140.003V107.997H60.0014V19.9956Z" fill="#FDD5A6"/>
<path d="M76.0017 19.9956H92.002V107.998H76.0017V19.9956ZM108.002 19.9956H124.003V107.998H108.002V19.9956Z" fill="#FDCC93"/>
<path d="M24.0007 107.997L27.3992 128.404L47.4699 148.49L47.5323 148.521C49.7948 150.752 52.8552 152.002 56.0325 151.982H143.909C147.087 151.997 150.147 150.753 152.409 148.521L152.471 148.49L172.612 128.349L176.003 107.997H24.0007Z" fill="#FB4F56"/>
<path d="M163.98 107.997C163.981 108.207 163.965 108.416 163.933 108.623L143.909 228.626C143.459 231.326 142.37 233.903 140.542 236.001H148.003C152.435 236.001 155.274 232.372 156.003 228L176.004 107.998L163.98 107.997Z" fill="#FB4F56"/>
<path d="M224.02 3.9955V4.02549V19.9942H236.005V3.99365L224.02 3.9955ZM224.02 35.9962V36.0414V52.0018H236.005V36.0012L224.02 35.9962Z" fill="#FBB04F"/>
<path d="M24.0007 107.998L56.0012 139.998H144.003L176.004 107.998H24.0007Z" fill="#FC6067"/>
<path d="M0.601743 137.873C-2.23683 142.404 4.56018 146.662 7.39877 142.131L21.7975 119.068L40.0556 228.648L40.0241 228.352C40.5645 234.475 45.4193 240.016 52.0087 240.016H148.011C151.318 240.016 154.302 238.504 156.308 236.352C158.313 234.2 159.467 231.489 159.94 228.649L178.214 119.092L192.629 142.131C195.359 147.081 202.673 142.473 199.387 137.874L179.394 105.865C178.613 104.578 177.176 103.839 175.456 103.978L143.995 104.008V55.9989H236.005C238.214 56.007 240.012 54.2236 240.021 52.0145V36.0066C240.029 33.7852 238.226 31.9823 236.005 31.9907H143.995V23.9904H236.005C238.214 23.9985 240.012 22.2152 240.021 20.006V3.99805C240.013 1.78698 238.214 0.00328246 236.005 0.0117488H43.8018C41.5486 0.217359 39.9912 1.93965 39.9932 3.9962V20.0041C40.0012 22.2132 41.7998 23.9969 44.0088 23.9886H56.0013V31.9884H44.0088C41.7876 31.9804 39.9847 33.7829 39.9932 36.0042V52.0126C40.0012 54.2218 41.7998 56.0056 44.0088 55.9971H56.0013V104.006L24.2702 103.975C22.4894 104.021 21.284 104.73 20.5943 105.862L0.601743 137.873ZM47.9933 7.97973H232.02V15.9796C170.381 15.904 109.268 15.9796 47.9933 15.9796V7.97973ZM64.0014 23.9877H72.0016V104.005H64.0014V23.9877ZM80.0096 23.9877H88.0097V104.005H80.0096V23.9877ZM96.0099 23.9877H104.01V104.005H96.0099V23.9877ZM112.018 23.9877H120.018V39.9882C119.496 45.7995 128.509 45.7995 127.987 39.9882V23.9877H135.987V104.005H127.987V75.9807C128.007 73.7381 126.183 71.9157 123.94 71.9418C121.746 71.9872 119.997 73.7866 120.018 75.9807V104.005H112.018V23.9877ZM47.9933 39.9882H56.0013V47.9885H47.9933V39.9882ZM143.995 39.9882H232.02V47.9885H143.995V39.9882ZM123.94 51.9494C121.743 51.9948 119.992 53.799 120.018 55.9962V60.012C119.496 65.8231 128.509 65.8231 127.987 60.012V55.9962C128.016 53.7503 126.186 51.9231 123.94 51.9494ZM33.6805 112.013C78.1055 112.268 122.146 112.013 166.316 112.013L142.339 135.982H57.6498L33.6805 112.013ZM29.9773 119.63L53.1653 142.834C53.9199 143.581 54.94 143.997 56.0013 143.991H143.995C145.057 143.998 146.077 143.581 146.831 142.834L170.004 119.662L152.058 227.343C151.803 228.875 151.16 230.166 150.456 230.921C149.752 231.677 149.135 232.014 148.011 232.014H52.0168C49.7419 232.014 48.2321 230.345 47.9933 227.64C47.9765 227.534 47.9617 227.442 47.9389 227.343L29.9773 119.63ZM99.9944 156.006C82.3682 156.006 67.9859 170.357 67.9859 187.983C67.9859 205.609 82.3682 219.992 99.9944 219.992C117.62 219.992 132.003 205.609 132.003 187.983C132.003 170.357 117.62 156.006 99.9944 156.006ZM99.9944 164.006C113.297 164.006 124.003 174.681 124.003 187.983C124.003 201.286 113.297 211.992 99.9944 211.992C86.6918 211.992 75.986 201.286 75.986 187.983C75.986 174.681 86.6918 164.006 99.9944 164.006Z" fill="black"/>
</g>
</g>
<defs>
<clipPath id="clip0_8_297">
<rect width="240" height="240" fill="white"/>
</clipPath>
<clipPath id="clip1_8_297">
<rect width="240" height="240" fill="white"/>
</clipPath>
</defs>
</svg>
