<svg width="256" height="256" viewBox="0 0 256 256" fill="none" xmlns="http://www.w3.org/2000/svg">
<g clip-path="url(#clip0_5_67)">
<path d="M232 136H224C232.8 136 240 128.8 240 120C240 111.2 232.8 104 224 104H216C220.243 104 224.313 102.314 227.314 99.3137C230.314 96.3131 232 92.2435 232 88V80C232 80 232 8 128 8C24 8 24 80 24 80V88C24 92.2435 25.6857 96.3131 28.6863 99.3137C31.6869 102.314 35.7565 104 40 104H32C23.2 104 16 111.2 16 120C16 128.8 23.2 136 32 136H24C15.2 136 8 143.2 8 152V168C8 176.8 15.2 184 24 184H40C35.7565 184 31.6869 185.686 28.6863 188.686C25.6857 191.687 24 195.757 24 200V216C24 233.6 38.4 248 56 248H200C217.6 248 232 233.6 232 216V200C232 195.757 230.314 191.687 227.314 188.686C224.313 185.686 220.243 184 216 184H232C240.8 184 248 176.8 248 168V152C248 143.2 240.8 136 232 136Z" fill="#FFC48C"/>
<path d="M248 168C248 176.8 240.8 184 232 184H24C15.2 184 8 176.8 8 168V152C8 143.2 15.2 136 24 136H232C240.8 136 248 143.2 248 152V168Z" fill="#FF6464"/>
<path d="M224 104H32C23.2 104 16 111.2 16 120C16 128.8 23.2 136 32 136H224C232.8 136 240 128.8 240 120C240 111.2 232.8 104 224 104Z" fill="#75B350"/>
<path d="M244.884 131.784C246.928 128.193 248.001 124.132 248 120C247.996 115.968 246.975 112.001 245.032 108.468C243.089 104.934 240.287 101.948 236.884 99.784C238.928 96.1929 240.001 92.1318 240 88V80C240 79.2 238.72 0 128 0C17.28 0 16 79.2 16 80V88C16 92.284 17.14 96.3 19.116 99.784C15.7131 101.948 12.9105 104.934 10.9676 108.468C9.02465 112.001 8.00399 115.968 8 120C8 124.284 9.14 128.3 11.116 131.784C7.71306 133.948 4.91054 136.934 2.9676 140.468C1.02465 144.001 0.00399169 147.968 0 152L0 168C0 179.056 7.524 188.364 17.716 191.136C16.5851 193.955 16.0027 196.963 16 200V216C16 238.056 33.944 256 56 256H200C222.056 256 240 238.056 240 216V200C240 196.868 239.38 193.884 238.284 191.136C248.476 188.364 256 179.056 256 168V152C255.996 147.968 254.975 144.001 253.032 140.468C251.089 136.934 248.287 133.948 244.884 131.784ZM184 128V112H200V128H184ZM152 128V112H168V128H152ZM120 128V112H136V128H120ZM88 128V112H104V128H88ZM56 128V112H72V128H56ZM32 128C27.588 128 24 124.412 24 120C24 115.588 27.588 112 32 112H40V128H32ZM216 112H224C228.412 112 232 115.588 232 120C232 124.412 228.412 128 224 128H216V112ZM32 80.04C32.028 77.424 33.74 16 128 16C222.26 16 223.972 77.424 224 80V88C224 92.412 220.412 96 216 96H40C35.588 96 32 92.412 32 88V80.04ZM224 216C224 229.236 213.236 240 200 240H56C42.764 240 32 229.236 32 216V200C32 195.588 35.588 192 40 192H216C220.412 192 224 195.588 224 200V216ZM232 176H24C19.588 176 16 172.412 16 168H72C74.1217 168 76.1566 167.157 77.6569 165.657C79.1571 164.157 80 162.122 80 160C80 157.878 79.1571 155.843 77.6569 154.343C76.1566 152.843 74.1217 152 72 152H16C16 147.588 19.588 144 24 144H232C236.412 144 240 147.588 240 152H136C133.878 152 131.843 152.843 130.343 154.343C128.843 155.843 128 157.878 128 160C128 162.122 128.843 164.157 130.343 165.657C131.843 167.157 133.878 168 136 168H240C240 172.412 236.412 176 232 176Z" fill="black"/>
<path d="M98.36 154.36C96.84 155.84 96 157.88 96 160C96 162.12 96.84 164.16 98.36 165.64C99.84 167.16 101.88 168 104 168C106.12 168 108.16 167.16 109.64 165.64C111.16 164.16 112 162.12 112 160C112 157.88 111.16 155.84 109.64 154.36C106.68 151.36 101.32 151.36 98.36 154.36ZM176 56C178.08 56 180.16 55.16 181.64 53.64C183.16 52.16 184 50.12 184 48C184 45.92 183.16 43.84 181.64 42.32C178.68 39.36 173.32 39.36 170.36 42.36C169.614 43.0977 169.022 43.976 168.618 44.9441C168.213 45.9122 168.005 46.9509 168.005 48C168.005 49.0491 168.213 50.0878 168.618 51.0559C169.022 52.024 169.614 52.9023 170.36 53.64C171.84 55.16 173.92 56 176 56ZM186.36 77.68C187.84 79.16 189.88 80 192 80C194.08 80 196.16 79.16 197.68 77.64C199.16 76.16 200 74.08 200 72C200 69.92 199.16 67.84 197.64 66.32C194.68 63.36 189.32 63.36 186.36 66.36C184.84 67.84 184 69.92 184 72C184 74.08 184.84 76.16 186.36 77.68ZM154.36 77.68C155.84 79.16 157.92 80 160 80C162.12 80 164.16 79.16 165.64 77.64C167.16 76.16 168 74.08 168 72C168 69.92 167.16 67.84 165.64 66.32C162.68 63.36 157.32 63.36 154.32 66.36C152.829 67.8689 151.996 69.9069 152.004 72.0283C152.011 74.1496 152.858 76.1816 154.36 77.68ZM144 56C145.051 56.0011 146.092 55.7949 147.063 55.3932C148.034 54.9915 148.916 54.4023 149.659 53.6592C150.402 52.9161 150.992 52.0338 151.393 51.0627C151.795 50.0916 152.001 49.0509 152 48C152 45.92 151.16 43.84 149.64 42.32C146.64 39.36 141.32 39.36 138.36 42.36C136.84 43.84 136 45.88 136 48C136 50.12 136.84 52.16 138.36 53.64C139.84 55.16 141.92 56 144 56Z" fill="black"/>
</g>
<defs>
<clipPath id="clip0_5_67">
<rect width="256" height="256" fill="white"/>
</clipPath>
</defs>
</svg>
