<svg width="401" height="299" viewBox="0 0 401 299" fill="none" xmlns="http://www.w3.org/2000/svg">
<g clip-path="url(#clip0_5_201)">
<path d="M136 83V59H104V43H72V59H40V83H8V139L22.232 267.096C23.204 275.844 31.2 283 40 283H136C144.8 283 152.796 275.844 153.768 267.096L168 139V83H136Z" fill="#FFC48C"/>
<path d="M8 139L22.232 267.096C23.204 275.844 31.2 283 40 283H136C144.8 283 152.796 275.844 153.768 267.096L168 139C168 139 136 187 88 187C40 187 8 139 8 139Z" fill="#FF6464"/>
<path d="M88 251C105.673 251 120 243.837 120 235C120 226.163 105.673 219 88 219C70.3269 219 56 226.163 56 235C56 243.837 70.3269 251 88 251Z" fill="#F0F0F0"/>
<path d="M48 235C48 248.684 65.196 259 88 259C110.804 259 128 248.684 128 235C128 221.316 110.804 211 88 211C65.196 211 48 221.316 48 235ZM112 235C112 236.992 103.488 243 88 243C72.512 243 64 236.992 64 235C64 233.008 72.512 227 88 227C103.488 227 112 233.008 112 235Z" fill="#644646"/>
<path d="M176 83C176 80.8783 175.157 78.8434 173.657 77.3431C172.157 75.8429 170.122 75 168 75H144V59C144 56.8783 143.157 54.8434 141.657 53.3431C140.157 51.8429 138.122 51 136 51H112V43C112 40.8783 111.157 38.8434 109.657 37.3431C108.157 35.8429 106.122 35 104 35H72C69.8783 35 67.8434 35.8429 66.3431 37.3431C64.8429 38.8434 64 40.8783 64 43V51H40C37.8783 51 35.8434 51.8429 34.3431 53.3431C32.8429 54.8434 32 56.8783 32 59V75H8C5.87827 75 3.84344 75.8429 2.34315 77.3431C0.842856 78.8434 0 80.8783 0 83V139H0.0239983C0.0239983 139.292 0.0160003 139.584 0.0480003 139.884L14.28 267.98C15.692 280.676 27.232 291 40 291H136C148.768 291 160.308 280.676 161.72 267.98L175.952 139.884C175.984 139.588 175.976 139.296 175.976 139H176V83ZM160 91V136.424C157.6 139.644 152.052 146.608 144 154.008V91H160ZM128 67V166.372C122.956 169.602 117.595 172.308 112 174.448V67H128ZM80 51H96V178.492C93.388 178.82 90.72 179 88 179C85.28 179 82.612 178.82 80 178.492V51ZM48 67H64V174.444C58.4047 172.306 53.0433 169.6 48 166.368V67ZM32 91V154.008C26.1456 148.643 20.7903 142.757 16 136.424V91H32ZM145.816 266.216C145.296 270.896 140.708 275 136 275H40C35.292 275 30.704 270.896 30.184 266.216L18.792 163.688C33.82 178.14 57.824 195 88 195C118.176 195 142.18 178.14 157.208 163.688L145.816 266.216Z" fill="#644646"/>
<g clip-path="url(#clip1_5_201)">
<path d="M361.228 39.1511C362.04 35.2729 361.878 31.2538 360.757 27.4535C359.636 23.6532 357.589 20.1902 354.802 17.3743C350.325 12.8495 344.234 10.2884 337.869 10.2545C331.504 10.2205 325.386 12.7165 320.861 17.1933C318.044 19.9787 315.96 23.4191 314.798 27.2067C313.636 30.9943 313.43 35.011 314.2 38.8974C310.322 38.0859 306.304 38.2483 302.504 39.3703C298.704 40.4922 295.242 42.5386 292.426 45.3263C287.902 49.8031 285.34 55.8941 285.307 62.2592C285.273 68.6243 287.769 74.7422 292.245 79.267L286.498 96.2071L285.59 288.657L387.294 289.081L388.32 96.7502L382.754 79.7497C387.279 75.2729 389.84 69.182 389.874 62.8169C389.908 56.4518 387.412 50.3339 382.935 45.8091C380.149 42.9915 376.708 40.9085 372.92 39.7466C369.132 38.5847 365.114 38.3801 361.228 39.1511Z" fill="#75B350"/>
<path d="M286.498 96.2071L285.59 288.657L387.294 289.081L388.32 96.7502L337.198 136.076L286.498 96.2071Z" fill="#FFC48C"/>
<path d="M336.594 249.211L285.472 288.537L387.294 289.08L336.594 249.211Z" fill="#FF6464"/>
<path d="M360.489 11.7478C348.079 -0.794784 327.777 -0.903069 315.234 11.5064C310.06 16.6156 306.786 23.3391 305.954 30.5632C298.722 31.3175 291.964 34.5197 286.8 39.6394C275.503 50.8167 274.294 68.392 283.231 80.9386L278.923 93.6353C278.9 93.6974 278.9 93.7596 278.88 93.8189C278.836 93.9629 278.816 94.1127 278.778 94.2624C278.643 94.7924 278.563 95.3352 278.54 95.8819C278.537 95.9808 278.5 96.0683 278.497 96.1673L278.155 169.262C278.145 169.411 278.105 169.553 278.107 169.703C278.106 169.855 278.142 170 278.15 170.15L278.019 197.373C278.004 197.579 277.957 197.777 277.956 197.986C277.955 198.201 278.002 198.397 278.015 198.609L277.889 225.484C277.862 225.747 277.807 225.999 277.805 226.27C277.801 226.545 277.856 226.805 277.88 227.068L277.592 288.62C277.587 289.671 277.789 290.712 278.187 291.685C278.585 292.657 279.171 293.542 279.911 294.288C280.65 295.035 281.53 295.628 282.499 296.034C283.468 296.44 284.508 296.651 285.559 296.656L387.263 297.079C389.469 297.091 391.468 296.205 392.921 294.767C394.377 293.327 395.281 291.335 395.293 289.123L396.319 96.7929C396.319 96.7476 396.302 96.708 396.302 96.6627C396.296 96.2865 396.205 95.9098 396.147 95.5277C396.09 95.1512 396.064 94.7777 395.955 94.4235C395.938 94.3669 395.947 94.3132 395.925 94.2621L391.753 81.5203C400.822 69.0697 399.799 51.4796 388.622 40.1825C383.428 34.9335 376.697 31.724 369.562 30.9053C368.81 23.6718 365.609 16.9125 360.489 11.7478ZM308.713 280.753L336.54 259.349L364.056 280.983L308.713 280.753ZM328.617 245.26L293.666 272.142L293.848 234.352L302.729 234.399C304.944 234.414 306.945 233.531 308.401 232.09C309.857 230.65 310.761 228.658 310.773 226.446C310.784 224.325 309.952 222.286 308.46 220.778C306.968 219.27 304.938 218.416 302.817 218.405L293.925 218.357L293.982 206.074L302.885 206.121C305.094 206.13 307.096 205.247 308.552 203.807C310.008 202.366 310.912 200.374 310.924 198.162C310.935 196.041 310.103 194.002 308.611 192.494C307.119 190.986 305.089 190.133 302.968 190.121L294.056 190.071L294.113 177.787L303.033 177.834C305.245 177.846 307.247 176.963 308.703 175.523C310.159 174.082 311.063 172.09 311.075 169.878C311.086 167.757 310.254 165.718 308.762 164.21C307.27 162.702 305.24 161.849 303.119 161.837L294.19 161.787L294.424 112.612L329.178 139.942L328.617 245.26ZM380.002 156.59L371.03 156.542C369.968 156.518 368.912 156.706 367.923 157.094C366.935 157.483 366.033 158.064 365.272 158.805C364.51 159.545 363.904 160.43 363.488 161.407C363.072 162.385 362.854 163.435 362.849 164.498C362.843 165.56 363.049 166.613 363.455 167.594C363.86 168.576 364.457 169.467 365.211 170.216C365.964 170.965 366.86 171.556 367.844 171.955C368.829 172.354 369.883 172.552 370.945 172.54L379.917 172.588L379.851 184.874L370.879 184.826C369.817 184.802 368.761 184.99 367.773 185.378C366.784 185.767 365.882 186.348 365.121 187.089C364.359 187.829 363.753 188.714 363.337 189.691C362.921 190.669 362.703 191.719 362.698 192.781C362.692 193.844 362.898 194.896 363.304 195.878C363.709 196.86 364.306 197.751 365.06 198.5C365.814 199.249 366.709 199.84 367.693 200.239C368.678 200.637 369.732 200.836 370.794 200.824L379.766 200.871L379.7 213.158L370.729 213.11C369.667 213.086 368.61 213.274 367.622 213.662C366.633 214.05 365.731 214.632 364.97 215.372C364.208 216.113 363.602 216.998 363.186 217.975C362.77 218.953 362.553 220.003 362.547 221.065C362.541 222.128 362.747 223.18 363.153 224.162C363.558 225.144 364.155 226.035 364.909 226.784C365.663 227.532 366.558 228.123 367.542 228.522C368.527 228.921 369.581 229.12 370.643 229.107L379.615 229.155L379.38 272.676L344.614 245.34L345.176 140.028L380.234 113.061L380.002 156.59ZM362.77 46.9998C365.362 46.4848 368.041 46.6205 370.567 47.3946C373.094 48.1687 375.389 49.5572 377.248 51.4357C383.454 57.7084 383.4 67.8567 377.127 74.0628C376.071 75.1074 375.326 76.4255 374.977 77.8693C374.628 79.3132 374.687 80.8259 375.149 82.2378L378.953 93.8577L368.002 102.285L368.092 85.3256C368.116 84.2636 367.929 83.2075 367.54 82.2188C367.152 81.2301 366.571 80.3286 365.83 79.567C365.089 78.8054 364.205 78.1989 363.227 77.7829C362.25 77.3669 361.199 77.1497 360.137 77.1441C359.075 77.1384 358.022 77.3444 357.04 77.7499C356.058 78.1555 355.167 78.7525 354.419 79.5061C353.67 80.2598 353.079 81.155 352.68 82.1395C352.281 83.124 352.082 84.1781 352.095 85.2403L351.938 114.639L345.281 119.757L345.526 73.8914C345.55 72.8294 345.362 71.7733 344.974 70.7845C344.585 69.7958 344.004 68.8944 343.263 68.1328C342.523 67.3712 341.638 66.7647 340.66 66.3487C339.683 65.9327 338.633 65.7155 337.57 65.7098C336.508 65.7042 335.455 65.9101 334.473 66.3157C333.492 66.7212 332.6 67.3182 331.852 68.0719C331.103 68.8255 330.512 69.7208 330.113 70.7053C329.714 71.6898 329.515 72.7439 329.528 73.8061L329.284 119.671L322.681 114.483L322.838 85.0843C322.862 84.0223 322.675 82.9661 322.286 81.9774C321.898 80.9887 321.316 80.0872 320.576 79.3256C319.835 78.564 318.95 77.9575 317.973 77.5415C316.996 77.1255 315.945 76.9084 314.883 76.9027C313.821 76.897 312.768 77.103 311.786 77.5085C310.804 77.9141 309.913 78.5111 309.164 79.2648C308.416 80.0184 307.825 80.9136 307.426 81.8981C307.027 82.8826 306.828 83.9368 306.841 84.999L306.753 101.955L295.892 93.4175L299.82 81.8389C300.298 80.4318 300.375 78.9195 300.041 77.4714C299.708 76.0233 298.977 74.6968 297.932 73.6404C291.726 67.3677 291.78 57.2194 298.053 51.0133C301.872 47.235 307.3 45.6348 312.575 46.7293C313.867 47.0003 315.206 46.9467 316.473 46.5733C317.739 46.1999 318.894 45.5184 319.832 44.5897C320.771 43.661 321.465 42.5141 321.851 41.2517C322.238 39.9892 322.306 38.6505 322.049 37.3553C321.534 34.7637 321.671 32.0849 322.445 29.5588C323.22 27.0327 324.609 24.738 326.488 22.8803C332.76 16.6742 342.909 16.7283 349.115 23.001C352.89 26.8169 354.49 32.2448 353.396 37.5254C353.127 38.8174 353.182 40.1559 353.556 41.4214C353.93 42.687 354.612 43.8403 355.54 44.7784C356.468 45.7166 357.614 46.4104 358.876 46.798C360.137 47.1856 361.475 47.2549 362.77 46.9998Z" fill="#644646"/>
</g>
<path d="M312 179H304C312.8 179 320 171.8 320 163C320 154.2 312.8 147 304 147H296C300.243 147 304.313 145.314 307.314 142.314C310.314 139.313 312 135.243 312 131V123C312 123 312 51 208 51C104 51 104 123 104 123V131C104 135.243 105.686 139.313 108.686 142.314C111.687 145.314 115.757 147 120 147H112C103.2 147 96 154.2 96 163C96 171.8 103.2 179 112 179H104C95.2 179 88 186.2 88 195V211C88 219.8 95.2 227 104 227H120C115.757 227 111.687 228.686 108.686 231.686C105.686 234.687 104 238.757 104 243V259C104 276.6 118.4 291 136 291H280C297.6 291 312 276.6 312 259V243C312 238.757 310.314 234.687 307.314 231.686C304.313 228.686 300.243 227 296 227H312C320.8 227 328 219.8 328 211V195C328 186.2 320.8 179 312 179Z" fill="#FFC48C"/>
<path d="M328 211C328 219.8 320.8 227 312 227H104C95.2 227 88 219.8 88 211V195C88 186.2 95.2 179 104 179H312C320.8 179 328 186.2 328 195V211Z" fill="#FF6464"/>
<path d="M304 147H112C103.2 147 96 154.2 96 163C96 171.8 103.2 179 112 179H304C312.8 179 320 171.8 320 163C320 154.2 312.8 147 304 147Z" fill="#75B350"/>
<path d="M324.884 174.784C326.928 171.193 328.001 167.132 328 163C327.996 158.968 326.975 155.001 325.032 151.468C323.089 147.934 320.287 144.948 316.884 142.784C318.928 139.193 320.001 135.132 320 131V123C320 122.2 318.72 43 208 43C97.28 43 96 122.2 96 123V131C96 135.284 97.14 139.3 99.116 142.784C95.7131 144.948 92.9105 147.934 90.9676 151.468C89.0246 155.001 88.004 158.968 88 163C88 167.284 89.14 171.3 91.116 174.784C87.7131 176.948 84.9105 179.934 82.9676 183.468C81.0246 187.001 80.004 190.968 80 195V211C80 222.056 87.524 231.364 97.716 234.136C96.5851 236.955 96.0027 239.963 96 243V259C96 281.056 113.944 299 136 299H280C302.056 299 320 281.056 320 259V243C320 239.868 319.38 236.884 318.284 234.136C328.476 231.364 336 222.056 336 211V195C335.996 190.968 334.975 187.001 333.032 183.468C331.089 179.934 328.287 176.948 324.884 174.784ZM264 171V155H280V171H264ZM232 171V155H248V171H232ZM200 171V155H216V171H200ZM168 171V155H184V171H168ZM136 171V155H152V171H136ZM112 171C107.588 171 104 167.412 104 163C104 158.588 107.588 155 112 155H120V171H112ZM296 155H304C308.412 155 312 158.588 312 163C312 167.412 308.412 171 304 171H296V155ZM112 123.04C112.028 120.424 113.74 59 208 59C302.26 59 303.972 120.424 304 123V131C304 135.412 300.412 139 296 139H120C115.588 139 112 135.412 112 131V123.04ZM304 259C304 272.236 293.236 283 280 283H136C122.764 283 112 272.236 112 259V243C112 238.588 115.588 235 120 235H296C300.412 235 304 238.588 304 243V259ZM312 219H104C99.588 219 96 215.412 96 211H152C154.122 211 156.157 210.157 157.657 208.657C159.157 207.157 160 205.122 160 203C160 200.878 159.157 198.843 157.657 197.343C156.157 195.843 154.122 195 152 195H96C96 190.588 99.588 187 104 187H312C316.412 187 320 190.588 320 195H216C213.878 195 211.843 195.843 210.343 197.343C208.843 198.843 208 200.878 208 203C208 205.122 208.843 207.157 210.343 208.657C211.843 210.157 213.878 211 216 211H320C320 215.412 316.412 219 312 219Z" fill="black"/>
<path d="M178.36 197.36C176.84 198.84 176 200.88 176 203C176 205.12 176.84 207.16 178.36 208.64C179.84 210.16 181.88 211 184 211C186.12 211 188.16 210.16 189.64 208.64C191.16 207.16 192 205.12 192 203C192 200.88 191.16 198.84 189.64 197.36C186.68 194.36 181.32 194.36 178.36 197.36ZM256 99C258.08 99 260.16 98.16 261.64 96.64C263.16 95.16 264 93.12 264 91C264 88.92 263.16 86.84 261.64 85.32C258.68 82.36 253.32 82.36 250.36 85.36C249.614 86.0977 249.022 86.976 248.618 87.9441C248.213 88.9122 248.005 89.9509 248.005 91C248.005 92.0491 248.213 93.0878 248.618 94.0559C249.022 95.024 249.614 95.9023 250.36 96.64C251.84 98.16 253.92 99 256 99ZM266.36 120.68C267.84 122.16 269.88 123 272 123C274.08 123 276.16 122.16 277.68 120.64C279.16 119.16 280 117.08 280 115C280 112.92 279.16 110.84 277.64 109.32C274.68 106.36 269.32 106.36 266.36 109.36C264.84 110.84 264 112.92 264 115C264 117.08 264.84 119.16 266.36 120.68ZM234.36 120.68C235.84 122.16 237.92 123 240 123C242.12 123 244.16 122.16 245.64 120.64C247.16 119.16 248 117.08 248 115C248 112.92 247.16 110.84 245.64 109.32C242.68 106.36 237.32 106.36 234.32 109.36C232.829 110.869 231.996 112.907 232.004 115.028C232.011 117.15 232.858 119.182 234.36 120.68ZM224 99C225.051 99.0011 226.092 98.7949 227.063 98.3932C228.034 97.9915 228.916 97.4023 229.659 96.6592C230.402 95.9161 230.992 95.0338 231.393 94.0627C231.795 93.0916 232.001 92.0509 232 91C232 88.92 231.16 86.84 229.64 85.32C226.64 82.36 221.32 82.36 218.36 85.36C216.84 86.84 216 88.88 216 91C216 93.12 216.84 95.16 218.36 96.64C219.84 98.16 221.92 99 224 99Z" fill="black"/>
</g>
<defs>
<clipPath id="clip0_5_201">
<rect width="401" height="299" fill="white"/>
</clipPath>
<clipPath id="clip1_5_201">
<rect width="256" height="256" fill="white" transform="translate(156 169.051) rotate(-44.6944)"/>
</clipPath>
</defs>
</svg>
