<svg width="256" height="256" viewBox="0 0 256 256" fill="none" xmlns="http://www.w3.org/2000/svg">
<g clip-path="url(#clip0_5_74)">
<path d="M237.648 120C239.203 114.809 239.995 109.419 240 104C240 74.212 216.72 49.92 187.368 48.172C177.912 24.636 154.916 8 128 8C101.084 8 78.088 24.636 68.632 48.172C39.28 49.92 16 74.212 16 104C16 109.564 16.84 114.924 18.352 120H8L43.228 232.728C45.852 241.128 55.2 248 64 248H192C200.8 248 210.148 241.128 212.772 232.728L248 120H237.648Z" fill="#8C6E6E"/>
<path d="M8 120L43.228 232.728C45.852 241.128 55.2 248 64 248H192C200.8 248 210.148 241.128 212.772 232.728L248 120H8Z" fill="#F0F0F0"/>
<path d="M184 88C200.968 88 214.82 74.776 215.896 58.08C207.479 52.2161 197.608 48.7877 187.368 48.172C184.018 39.8773 178.971 32.3742 172.552 26.144C160.544 30.756 152 42.368 152 56C152 64.487 155.371 72.6263 161.373 78.6275C167.374 84.6286 175.513 88 184 88ZM19.04 85.956C21.267 89.3492 24.303 92.1351 27.8746 94.063C31.4462 95.9909 35.4413 97.0002 39.5 97C45.9978 97 52.2295 94.4188 56.8241 89.8242C61.4187 85.2295 64 78.9978 64 72.5C63.9991 68.3166 62.9252 64.2033 60.881 60.5533C58.8368 56.9032 55.8906 53.8385 52.324 51.652C44.5897 54.5616 37.5947 59.146 31.8404 65.0767C26.0861 71.0074 21.7148 78.1375 19.04 85.956Z" fill="#FFC48C"/>
<path d="M254.443 115.26C253.7 114.249 252.73 113.428 251.61 112.862C250.491 112.295 249.254 112 247.999 112H247.455C247.806 109.348 247.988 106.676 247.999 104C247.999 82.532 237.291 63.424 220.847 51.808C220.783 51.756 220.719 51.712 220.651 51.664C212.375 45.833 202.824 42.0643 192.795 40.672C180.815 15.808 155.891 0 127.999 0C100.107 0 75.1835 15.808 63.2035 40.672C58.6014 41.3245 54.0849 42.4808 49.7355 44.12C49.441 44.2115 49.1525 44.321 48.8715 44.448C24.8915 53.764 7.99947 77.02 7.99947 104C7.99947 106.672 8.20347 109.344 8.54347 112H7.99947C6.74485 112 5.50783 112.295 4.38834 112.862C3.26885 113.428 2.29827 114.25 1.555 115.261C0.81173 116.271 0.316606 117.443 0.109622 118.68C-0.0973625 119.918 -0.0104039 121.186 0.363474 122.384L35.5915 235.112C39.1875 246.628 51.3235 255.644 63.3875 255.944C63.5915 255.96 63.7875 256 63.9875 256H192.011C192.215 256 192.411 255.96 192.611 255.944C204.679 255.644 216.811 246.628 220.407 235.112L255.635 122.384C256.01 121.186 256.097 119.917 255.89 118.68C255.683 117.442 255.187 116.271 254.443 115.26ZM186.891 56.156C194.012 56.5881 200.945 58.6125 207.179 62.08C204.475 72.424 195.043 80 183.999 80C170.763 80 159.999 69.236 159.999 56C159.999 47.888 164.247 40.404 170.887 36.02C174.681 40.56 177.738 45.6676 179.947 51.156C180.512 52.5619 181.465 53.7784 182.694 54.6636C183.923 55.5489 185.379 56.0664 186.891 56.156ZM51.1275 60.848C52.6715 62.3702 53.8974 64.1843 54.7338 66.1847C55.5702 68.185 56.0005 70.3318 55.9995 72.5C55.9942 76.8744 54.2541 81.0682 51.1609 84.1614C48.0677 87.2546 43.8739 88.9947 39.4995 89C35.2989 88.9973 31.2586 87.3872 28.2075 84.5C32.8299 74.167 40.9449 65.7929 51.1275 60.848ZM23.9995 104C23.9995 103.036 24.0835 102.092 24.1395 101.14C28.8611 103.678 34.1389 105.004 39.4995 105C57.4195 105 71.9995 90.42 71.9995 72.5C72.0058 66.8172 70.5129 61.2334 67.6715 56.312C68.1555 56.268 68.6235 56.184 69.1075 56.156C69.6155 56.124 70.0915 55.976 70.5715 55.856C71.0395 55.94 71.5115 56 71.9995 56C84.8235 56 96.8795 60.992 105.939 70.06C107.503 71.624 109.547 72.404 111.595 72.404C113.643 72.404 115.687 71.624 117.251 70.06C118.751 68.5598 119.594 66.5253 119.594 64.404C119.594 62.2827 118.751 60.2482 117.251 58.748C107.597 49.0709 95.0758 42.7703 81.5515 40.784C86.6477 33.1413 93.5561 26.8786 101.66 22.5542C109.765 18.2298 118.814 15.9781 127.999 16C139.199 16 149.767 19.3 158.671 25.132C149.599 32.62 143.999 43.916 143.999 56C143.999 78.056 161.943 96 183.999 96C199.975 96 213.911 86.488 220.275 72.712C227.828 81.3866 231.992 92.4982 231.999 104C231.999 106.672 231.743 109.348 231.287 112H24.7115C24.2475 109.358 24.0093 106.682 23.9995 104ZM184.935 240H168.515L175.515 128H198.935L184.935 240ZM71.0635 240L57.0635 128H80.4835L87.4835 240H71.0635ZM96.5155 128H119.999V240H103.515L96.5155 128ZM135.999 128H159.483L152.483 240H135.999V128ZM50.8635 230.34L18.8835 128H40.9395L54.3995 235.688C52.7515 234.12 51.4635 232.264 50.8635 230.34ZM205.135 230.34C204.535 232.264 203.247 234.12 201.599 235.688L215.063 128H237.119L205.135 230.34Z" fill="#644646"/>
</g>
<defs>
<clipPath id="clip0_5_74">
<rect width="256" height="256" fill="white"/>
</clipPath>
</defs>
</svg>
