<svg width="256" height="256" viewBox="0 0 256 256" fill="none" xmlns="http://www.w3.org/2000/svg">
<g clip-path="url(#clip0_4_55)">
<path d="M128 248C194.274 248 248 194.274 248 128C248 61.7258 194.274 8 128 8C61.7258 8 8 61.7258 8 128C8 194.274 61.7258 248 128 248Z" fill="#FFC48C"/>
<path d="M128 216C79.476 216 40 176.524 40 128C40 79.476 79.476 40 128 40C176.524 40 216 79.476 216 128C216 176.524 176.524 216 128 216Z" fill="#FF6464"/>
<path d="M128 0C57.42 0 0 57.42 0 128C0 198.58 57.42 256 128 256C198.58 256 256 198.58 256 128C256 57.42 198.58 0 128 0ZM128 240C66.244 240 16 189.756 16 128C16 66.244 66.244 16 128 16C189.756 16 240 66.244 240 128C240 189.756 189.756 240 128 240Z" fill="#644646"/>
<path d="M128 32C75.068 32 32 75.064 32 128C32 180.936 75.068 224 128 224C180.932 224 224 180.936 224 128C224 75.064 180.932 32 128 32ZM201.216 160.124C200.815 160.05 200.408 160.009 200 160H176V136H207.592C206.756 144.328 204.604 152.47 201.216 160.124ZM96 176H120V207.592C111.673 206.753 103.532 204.6 95.88 201.212C95.94 200.812 96 200.412 96 199.996V176ZM54.784 160.124C51.3965 152.47 49.2432 144.328 48.404 136H80V160H56C55.592 160.009 55.1854 160.05 54.784 160.124ZM54.784 95.876C55.184 95.94 55.584 96 56 96H80V120H48.408C49.2444 111.672 51.3964 103.53 54.784 95.876ZM160 80H136V48.408C144.508 49.256 152.604 51.476 160.12 54.788C160.064 55.184 160 55.584 160 56V80ZM160 96V120H136V96H160ZM120 80H96V56C96 55.584 95.936 55.184 95.88 54.784C103.532 51.3965 111.673 49.2431 120 48.404V80ZM120 96V120H96V96H120ZM96 136H120V160H96V136ZM136 176H160V200C160 200.416 160.064 200.816 160.12 201.216C152.468 204.604 144.327 206.757 136 207.596V176ZM136 160V136H160V160H136ZM176 120V96H200C200.416 96 200.816 95.94 201.216 95.876C204.603 103.53 206.757 111.672 207.596 120H176ZM191.848 80H176V64.152C181.996 68.6698 187.33 74.0042 191.848 80ZM80 64.152V80H64.152C68.6698 74.0042 74.0042 68.6698 80 64.152ZM64.152 176H80V191.848C74.0042 187.33 68.6698 181.996 64.152 176ZM176 191.848V176H191.848C187.33 181.996 181.996 187.33 176 191.848Z" fill="#644646"/>
</g>
<defs>
<clipPath id="clip0_4_55">
<rect width="256" height="256" fill="white"/>
</clipPath>
</defs>
</svg>
