<svg width="256" height="256" viewBox="0 0 256 256" fill="none" xmlns="http://www.w3.org/2000/svg">
<g clip-path="url(#clip0_5_110)">
<path d="M216 112C216 54.564 169.436 8 112 8C54.564 8 8 54.564 8 112C8 169.436 54.564 216 112 216V112H216Z" fill="#FFC48C"/>
<path d="M248 144H144V248C201.436 248 248 201.436 248 144Z" fill="#FFC48C"/>
<path d="M112 48C76.656 48 48 76.656 48 112C48 147.344 76.656 176 112 176V112H176C176 76.656 147.344 48 112 48Z" fill="#FF6464"/>
<path d="M208 144H144V208C179.344 208 208 179.344 208 144Z" fill="#FF6464"/>
<path d="M216 120C218.122 120 220.157 119.157 221.657 117.657C223.157 116.157 224 114.122 224 112C224 50.244 173.756 0 112 0C50.244 0 0 50.244 0 112C0 173.756 50.244 224 112 224C114.122 224 116.157 223.157 117.657 221.657C119.157 220.157 120 218.122 120 216V120H216ZM16 112C16 59.064 59.068 16 112 16C162.24 16 203.588 54.796 207.668 104H183.528C179.532 68.056 148.992 40 112 40C72.3 40 40 72.3 40 112C40 148.996 68.056 179.532 104 183.528V207.672C54.796 203.588 16 162.24 16 112ZM112 104C109.878 104 107.843 104.843 106.343 106.343C104.843 107.843 104 109.878 104 112V167.36C76.908 163.46 56 140.156 56 112C56 81.12 81.12 56 112 56C140.156 56 163.456 76.908 167.36 104H112Z" fill="#644646"/>
<path d="M248 136H144C141.878 136 139.843 136.843 138.343 138.343C136.843 139.843 136 141.878 136 144V248C136 250.122 136.843 252.157 138.343 253.657C139.843 255.157 141.878 256 144 256C205.756 256 256 205.756 256 144C256 141.878 255.157 139.843 253.657 138.343C252.157 136.843 250.122 136 248 136ZM199.36 152C195.836 176.472 176.472 195.836 152 199.36V152H199.36ZM152 239.668V215.524C185.316 211.824 211.824 185.316 215.528 152H239.668C235.808 198.568 198.568 235.808 152 239.668ZM130.36 82.36C128.84 83.84 128 85.88 128 88C128 90.12 128.84 92.16 130.36 93.64C131.84 95.16 133.88 96 136 96C138.12 96 140.16 95.16 141.64 93.64C143.16 92.16 144 90.12 144 88C144 85.88 143.16 83.84 141.64 82.36C138.68 79.36 133.32 79.36 130.36 82.36ZM98.36 74.36C96.84 75.84 96 77.88 96 80C96 82.12 96.84 84.16 98.36 85.64C99.84 87.16 101.88 88 104 88C106.12 88 108.16 87.16 109.64 85.64C110.386 84.9023 110.978 84.024 111.382 83.0559C111.787 82.0878 111.995 81.0491 111.995 80C111.995 78.9509 111.787 77.9122 111.382 76.9441C110.978 75.976 110.386 75.0977 109.64 74.36C106.68 71.36 101.32 71.36 98.36 74.36Z" fill="#644646"/>
<path d="M168 176C170.12 176 172.16 175.16 173.64 173.64C175.16 172.16 176 170.08 176 168C176 165.92 175.16 163.84 173.64 162.32C170.68 159.36 165.32 159.36 162.32 162.36C160.84 163.84 160 165.88 160 168C159.999 169.051 160.205 170.092 160.607 171.063C161.008 172.034 161.598 172.916 162.341 173.659C163.084 174.402 163.966 174.992 164.937 175.393C165.908 175.795 166.949 176.001 168 176ZM85.64 109.68C86.3869 108.935 86.9796 108.049 87.3839 107.075C87.7882 106.1 87.9964 105.055 87.9964 104C87.9964 102.945 87.7882 101.9 87.3839 100.925C86.9796 99.9507 86.3869 99.0653 85.64 98.32C82.68 95.36 77.32 95.36 74.36 98.36C72.84 99.84 72 101.88 72 104C72 106.12 72.84 108.16 74.36 109.68C75.84 111.16 77.916 112 80 112C82.08 112 84.16 111.16 85.64 109.68ZM82.36 130.36C80.84 131.84 80 133.88 80 136C80 138.12 80.84 140.16 82.36 141.68C83.84 143.16 85.916 144 88 144C90.08 144 92.16 143.16 93.64 141.68C95.16 140.16 96 138.12 96 136C96 133.92 95.16 131.84 93.64 130.36C90.68 127.36 85.32 127.36 82.36 130.36Z" fill="#644646"/>
</g>
<defs>
<clipPath id="clip0_5_110">
<rect width="256" height="256" fill="white"/>
</clipPath>
</defs>
</svg>
