<svg width="264" height="264" viewBox="0 0 264 264" fill="none" xmlns="http://www.w3.org/2000/svg">
<g clip-path="url(#clip0_5_118)" filter="url(#filter0_d_5_118)">
<path d="M236 168C232.9 168 229.8 167.096 227.124 165.312L131.124 101.312C128.931 99.8521 127.133 97.873 125.889 95.5507C124.645 93.2283 123.994 90.6346 123.994 88C123.994 85.3655 124.645 82.7718 125.889 80.4494C127.133 78.1271 128.931 76.148 131.124 74.688L227.124 10.688C229.534 9.08288 232.334 8.16159 235.226 8.02231C238.118 7.88304 240.994 8.53101 243.547 9.89718C246.1 11.2633 248.235 13.2965 249.723 15.7801C251.212 18.2637 251.999 21.1045 252 24V152C252.002 154.102 251.589 156.183 250.785 158.125C249.982 160.067 248.803 161.831 247.317 163.317C245.831 164.803 244.067 165.982 242.125 166.785C240.183 167.589 238.102 168.002 236 168ZM28 248C31.1 248 34.2 247.096 36.876 245.312L132.876 181.312C135.069 179.852 136.867 177.873 138.111 175.551C139.355 173.228 140.006 170.635 140.006 168C140.006 165.366 139.355 162.772 138.111 160.449C136.867 158.127 135.069 156.148 132.876 154.688L36.876 90.688C34.4661 89.0829 31.666 88.1616 28.7738 88.0223C25.8816 87.883 23.0059 88.531 20.4529 89.8972C17.9 91.2633 15.7655 93.2965 14.2769 95.7801C12.7883 98.2637 12.0014 101.105 12 104V232C11.9984 234.102 12.4112 236.183 13.2147 238.125C14.0182 240.067 15.1967 241.831 16.6828 243.317C18.1688 244.803 19.9333 245.982 21.8752 246.785C23.8171 247.589 25.8984 248.002 28 248Z" fill="#FFC48C"/>
<path d="M247.324 2.84C239.644 -1.264 229.908 -0.783998 222.688 4.032L126.688 68.032C119.996 72.492 116 79.956 116 88C116 96.044 119.996 103.508 126.688 107.968L222.684 171.968C226.626 174.601 231.26 176.004 236 176C239.932 176 243.848 175.02 247.32 173.16C251.154 171.115 254.36 168.065 256.594 164.338C258.827 160.61 260.005 156.345 260 152V24C260.004 19.6551 258.827 15.3908 256.594 11.6635C254.361 7.93622 251.157 4.88624 247.324 2.84ZM244 152C244 154.956 242.384 157.66 239.776 159.052C238.495 159.724 237.059 160.041 235.614 159.971C234.17 159.902 232.77 159.448 231.56 158.656L135.56 94.656C134.462 93.927 133.561 92.9376 132.939 91.776C132.316 90.6145 131.99 89.3169 131.991 87.9989C131.991 86.6809 132.317 85.3836 132.941 84.2224C133.564 83.0612 134.466 82.0724 135.564 81.344L231.568 17.344C232.884 16.464 234.416 16 236 16C237.051 15.9974 238.093 16.2025 239.065 16.6036C240.036 17.0047 240.919 17.5939 241.663 18.3373C242.406 19.0807 242.995 19.9636 243.396 20.9354C243.798 21.9072 244.003 22.9487 244 24V152ZM137.312 148.032L41.316 84.032C34.088 79.212 24.352 78.732 16.68 82.84C12.8458 84.885 9.64015 87.9346 7.40648 91.6621C5.17281 95.3896 3.99527 99.6545 4.00001 104V232C3.99576 236.345 5.17306 240.609 7.40591 244.336C9.63876 248.064 12.8431 251.114 16.676 253.16C20.1606 255.021 24.0495 255.997 28 256C32.7388 256.004 37.372 254.601 41.312 251.968L84 223.512V232C84 234.122 84.8429 236.157 86.3432 237.657C87.8435 239.157 89.8783 240 92 240C94.1217 240 96.1566 239.157 97.6569 237.657C99.1572 236.157 100 234.122 100 232V212.844L108 207.512V216C108 218.122 108.843 220.157 110.343 221.657C111.843 223.157 113.878 224 116 224C118.122 224 120.157 223.157 121.657 221.657C123.157 220.157 124 218.122 124 216V196.844L132 191.512V224C132 226.122 132.843 228.157 134.343 229.657C135.843 231.157 137.878 232 140 232C142.122 232 144.157 231.157 145.657 229.657C147.157 228.157 148 226.122 148 224V168C148.004 164.048 147.031 160.157 145.166 156.673C143.301 153.189 140.603 150.22 137.312 148.032ZM32.432 238.656C31.2212 239.446 29.8218 239.899 28.3777 239.969C26.9337 240.038 25.4972 239.722 24.216 239.052C22.9401 238.369 21.8739 237.352 21.1313 236.11C20.3887 234.868 19.9976 233.447 20 232V104C20 101.044 21.616 98.34 24.224 96.948C25.4995 96.2613 26.9381 95.9353 28.385 96.0051C29.832 96.0748 31.2325 96.5377 32.436 97.344L84 131.72V204.28L32.432 238.656ZM128.436 174.656L124 177.612V168C124 165.878 123.157 163.843 121.657 162.343C120.157 160.843 118.122 160 116 160C113.878 160 111.843 160.843 110.343 162.343C108.843 163.843 108 165.878 108 168V188.28L100 193.612V142.388L128.436 161.344C130.668 162.832 132 165.32 132 168C132 170.68 130.668 173.168 128.436 174.656Z" fill="#644646"/>
<path d="M214.32 50.36C212.84 51.84 212 53.88 212 56C212 58.08 212.84 60.16 214.32 61.64C215.065 62.3869 215.951 62.9795 216.925 63.3839C217.9 63.7882 218.945 63.9963 220 63.9963C221.055 63.9963 222.1 63.7882 223.075 63.3839C224.049 62.9795 224.935 62.3869 225.68 61.64C227.16 60.16 228 58.08 228 56C228 53.88 227.16 51.84 225.64 50.36C222.68 47.36 217.32 47.36 214.32 50.36ZM174.32 74.36C172.829 75.8689 171.996 77.9069 172.004 80.0282C172.011 82.1496 172.858 84.1816 174.36 85.68C175.84 87.16 177.916 88 180 88C182.08 88 184.16 87.16 185.64 85.68C186.387 84.9347 186.98 84.0493 187.384 83.0747C187.788 82.1 187.996 81.0552 187.996 80C187.996 78.9448 187.788 77.9 187.384 76.9253C186.98 75.9506 186.387 75.0653 185.64 74.32C182.68 71.36 177.32 71.36 174.32 74.36ZM206.36 82.32C204.84 83.84 204 85.88 204 88C204 90.12 204.84 92.16 206.36 93.64C207.84 95.16 209.88 96 212 96C214.12 96 216.16 95.16 217.68 93.64C219.16 92.16 220 90.08 220 88C220 85.916 219.16 83.84 217.64 82.32C214.68 79.36 209.32 79.36 206.36 82.32ZM44 144C46.12 144 48.16 143.16 49.64 141.64C51.16 140.16 52 138.12 52 136C52 133.88 51.16 131.84 49.64 130.36C46.68 127.36 41.32 127.36 38.32 130.36C36.84 131.84 36 133.88 36 136C35.999 137.051 36.2052 138.092 36.6068 139.063C37.0085 140.034 37.5977 140.916 38.3408 141.659C39.0839 142.402 39.9662 142.991 40.9373 143.393C41.9084 143.795 42.9491 144.001 44 144ZM65.64 154.36C62.72 151.36 57.32 151.36 54.32 154.36C52.84 155.84 52 157.88 52 160C52 162.08 52.84 164.16 54.36 165.68C55.84 167.16 57.916 168 60 168C62.08 168 64.16 167.16 65.64 165.64C66.386 164.902 66.9782 164.024 67.3823 163.056C67.7865 162.088 67.9946 161.049 67.9946 160C67.9946 158.951 67.7865 157.912 67.3823 156.944C66.9782 155.976 66.386 155.098 65.64 154.36ZM38.32 178.36C36.829 179.869 35.9961 181.907 36.0036 184.028C36.0111 186.15 36.8583 188.182 38.36 189.68C39.84 191.16 41.88 192 44 192C46.08 192 48.16 191.16 49.64 189.64C50.386 188.902 50.9782 188.024 51.3823 187.056C51.7865 186.088 51.9946 185.049 51.9946 184C51.9946 182.951 51.7865 181.912 51.3823 180.944C50.9782 179.976 50.386 179.098 49.64 178.36C46.68 175.36 41.32 175.36 38.32 178.36Z" fill="#644646"/>
</g>
<defs>
<filter id="filter0_d_5_118" x="0" y="0" width="264" height="264" filterUnits="userSpaceOnUse" color-interpolation-filters="sRGB">
<feFlood flood-opacity="0" result="BackgroundImageFix"/>
<feColorMatrix in="SourceAlpha" type="matrix" values="0 0 0 0 0 0 0 0 0 0 0 0 0 0 0 0 0 0 127 0" result="hardAlpha"/>
<feOffset dy="4"/>
<feGaussianBlur stdDeviation="2"/>
<feComposite in2="hardAlpha" operator="out"/>
<feColorMatrix type="matrix" values="0 0 0 0 0 0 0 0 0 0 0 0 0 0 0 0 0 0 0.25 0"/>
<feBlend mode="normal" in2="BackgroundImageFix" result="effect1_dropShadow_5_118"/>
<feBlend mode="normal" in="SourceGraphic" in2="effect1_dropShadow_5_118" result="shape"/>
</filter>
<clipPath id="clip0_5_118">
<rect width="256" height="256" fill="white" transform="translate(4)"/>
</clipPath>
</defs>
</svg>
