<svg width="256" height="256" viewBox="0 0 256 256" fill="none" xmlns="http://www.w3.org/2000/svg">
<g clip-path="url(#clip0_5_132)">
<path d="M237.252 52C240.557 49.8145 243.269 46.8437 245.144 43.3534C247.02 39.8632 248.001 35.9623 248 32C248 25.6348 245.471 19.5303 240.971 15.0294C236.47 10.5286 230.365 8 224 8C220.038 7.99831 216.137 8.97881 212.647 10.8538C209.157 12.7287 206.186 15.4396 204 18.744C201.814 15.4396 198.843 12.7287 195.353 10.8538C191.863 8.97881 187.962 7.99831 184 8C177.635 8 171.53 10.5286 167.029 15.0294C162.529 19.5303 160 25.6348 160 32L144 40L8 176.168L80 248L216 112L224 96C230.365 96 236.47 93.4714 240.971 88.9706C245.471 84.4697 248 78.3652 248 72C248.001 68.0377 247.02 64.1368 245.144 60.6466C243.269 57.1563 240.557 54.1855 237.252 52Z" fill="#75B350"/>
<path d="M144 40L8 176.168L80 248L216 112L152 104L144 40Z" fill="#FFC48C"/>
<path d="M72 184L8 176L80 248L72 184Z" fill="#FF6464"/>
<path d="M256 32C256 14.356 241.644 1.63693e-05 224 1.63693e-05C216.728 -0.00734656 209.672 2.46938 204 7.02002C198.328 2.46938 191.272 -0.00734656 184 1.63693e-05C168.108 1.63693e-05 154.888 11.644 152.416 26.848L140.424 32.844C140.364 32.872 140.32 32.916 140.264 32.944C140.132 33.016 140.012 33.108 139.88 33.188C139.411 33.4694 138.972 33.7992 138.572 34.172C138.5 34.24 138.412 34.276 138.34 34.344L86.688 86.064C86.576 86.164 86.448 86.236 86.344 86.344C86.236 86.452 86.16 86.58 86.06 86.692L66.82 105.952C66.664 106.088 66.492 106.196 66.344 106.344C66.192 106.496 66.088 106.668 65.948 106.828L46.956 125.844C46.752 126.012 46.536 126.152 46.344 126.344C46.148 126.536 46.004 126.76 45.836 126.964L2.34001 170.516C1.59758 171.26 1.00895 172.142 0.607741 173.114C0.206529 174.085 0.000599116 175.126 0.00171348 176.176C0.00282785 177.227 0.210965 178.268 0.614235 179.238C1.01751 180.208 1.60801 181.09 2.35201 181.832L74.352 253.664C75.912 255.224 77.956 256 80 256C82.048 256 84.092 255.22 85.656 253.656L221.656 117.656C221.688 117.624 221.704 117.584 221.736 117.552C221.996 117.28 222.196 116.948 222.424 116.636C222.648 116.328 222.892 116.044 223.064 115.716C223.092 115.664 223.136 115.632 223.156 115.58L229.152 103.588C244.356 101.116 256 87.892 256 72C256 64.616 253.472 57.6 248.976 52C253.529 46.3291 256.007 39.2725 256 32ZM29.996 186.812L64.832 191.168L69.176 225.9L29.996 186.812ZM69.108 175.58L25.356 170.108L52.064 143.372L58.344 149.652C59.908 151.22 61.952 152 64 152C66.048 152 68.092 151.22 69.656 149.656C71.1558 148.156 71.9983 146.121 71.9983 144C71.9983 141.879 71.1558 139.844 69.656 138.344L63.368 132.056L72.048 123.364L78.344 129.66C79.908 131.22 81.952 132 84 132C86.048 132 88.092 131.22 89.656 129.656C91.1558 128.156 91.9983 126.121 91.9983 124C91.9983 121.879 91.1558 119.844 89.656 118.344L83.356 112.04L92.036 103.348L98.344 109.656C99.908 111.22 101.952 112 104 112C106.048 112 108.092 111.22 109.656 109.656C111.156 108.156 111.998 106.121 111.998 104C111.998 101.879 111.156 99.8442 109.656 98.344L103.344 92.028L138.096 57.236L143.58 101.108L69.108 175.58ZM168 148.688L161.656 142.344C160.918 141.58 160.035 140.97 159.059 140.551C158.083 140.132 157.033 139.911 155.971 139.902C154.909 139.893 153.856 140.095 152.872 140.497C151.889 140.9 150.996 141.494 150.245 142.245C149.494 142.996 148.9 143.889 148.497 144.872C148.095 145.856 147.893 146.909 147.902 147.971C147.911 149.033 148.132 150.083 148.551 151.059C148.97 152.035 149.58 152.918 150.344 153.656L156.688 160L148 168.688L141.656 162.344C140.918 161.58 140.035 160.97 139.059 160.551C138.083 160.132 137.033 159.911 135.971 159.902C134.909 159.893 133.856 160.095 132.872 160.497C131.889 160.9 130.996 161.494 130.245 162.245C129.494 162.996 128.9 163.889 128.497 164.872C128.095 165.856 127.893 166.909 127.902 167.971C127.911 169.033 128.132 170.083 128.551 171.059C128.97 172.035 129.58 172.918 130.344 173.656L136.688 180L128 188.688L121.656 182.344C120.918 181.58 120.035 180.97 119.059 180.551C118.083 180.132 117.033 179.911 115.971 179.902C114.909 179.893 113.856 180.095 112.872 180.497C111.889 180.9 110.996 181.494 110.245 182.245C109.494 182.996 108.9 183.889 108.497 184.872C108.095 185.856 107.893 186.909 107.902 187.971C107.911 189.033 108.132 190.083 108.551 191.059C108.97 192.035 109.58 192.918 110.344 193.656L116.688 200L85.912 230.772L80.424 186.888L154.892 112.42L198.78 117.908L168 148.688ZM232.828 58.664C235.033 60.1208 236.842 62.1015 238.093 64.4289C239.345 66.7562 240 69.3575 240 72C240 80.824 232.824 88 224 88C222.514 87.9997 221.058 88.413 219.794 89.1937C218.53 89.9743 217.509 91.0915 216.844 92.42L211.376 103.356L197.664 101.644L209.656 89.652C210.42 88.914 211.03 88.0313 211.449 87.0553C211.868 86.0792 212.089 85.0295 212.098 83.9672C212.107 82.905 211.905 81.8516 211.503 80.8684C211.1 79.8852 210.506 78.992 209.755 78.2409C209.004 77.4897 208.111 76.8957 207.128 76.4934C206.144 76.0912 205.091 75.8888 204.029 75.898C202.967 75.9072 201.917 76.1279 200.941 76.5472C199.965 76.9665 199.082 77.5759 198.344 78.34L177.556 99.128L169.224 98.084L201.656 65.652C202.42 64.914 203.03 64.0313 203.449 63.0553C203.868 62.0792 204.089 61.0295 204.098 59.9672C204.107 58.905 203.905 57.8516 203.503 56.8684C203.1 55.8852 202.506 54.992 201.755 54.2409C201.004 53.4897 200.111 52.8957 199.128 52.4934C198.144 52.0912 197.091 51.8888 196.029 51.898C194.967 51.9072 193.917 52.1279 192.941 52.5472C191.965 52.9665 191.082 53.5759 190.344 54.34L157.912 86.772L156.868 78.44L177.656 57.652C178.42 56.914 179.03 56.0313 179.449 55.0553C179.868 54.0792 180.089 53.0295 180.098 51.9672C180.107 50.905 179.905 49.8516 179.503 48.8684C179.1 47.8852 178.506 46.992 177.755 46.2409C177.004 45.4897 176.111 44.8957 175.128 44.4934C174.144 44.0912 173.091 43.8888 172.029 43.898C170.967 43.9072 169.917 44.1279 168.941 44.5472C167.965 44.9665 167.082 45.5759 166.344 46.34L154.356 58.332L152.64 44.624L163.576 39.156C164.905 38.4918 166.023 37.4705 166.805 36.2065C167.586 34.9426 168 33.486 168 32C168 23.176 175.176 16 184 16C189.372 16 194.356 18.68 197.336 23.168C198.064 24.2696 199.054 25.1735 200.217 25.7989C201.38 26.4242 202.68 26.7516 204 26.7516C205.32 26.7516 206.62 26.4242 207.783 25.7989C208.946 25.1735 209.936 24.2696 210.664 23.168C212.121 20.9638 214.102 19.1553 216.429 17.9044C218.757 16.6535 221.358 15.9992 224 16C232.824 16 240 23.176 240 32C240 37.368 237.32 42.352 232.828 45.336C231.728 46.0653 230.826 47.0556 230.202 48.2183C229.578 49.3811 229.251 50.6803 229.251 52C229.251 53.3197 229.578 54.6189 230.202 55.7817C230.826 56.9445 231.728 57.9347 232.828 58.664Z" fill="#644646"/>
</g>
<defs>
<clipPath id="clip0_5_132">
<rect width="256" height="256" fill="white"/>
</clipPath>
</defs>
</svg>
