<svg width="256" height="309" viewBox="0 0 256 309" fill="none" xmlns="http://www.w3.org/2000/svg">
<g clip-path="url(#clip0_5_184)">
<path d="M192 301H64L40 117H216L192 301Z" fill="#FF6464"/>
<path d="M176 165H80L40 117H216L176 165Z" fill="white"/>
<path d="M128 261C145.673 261 160 246.673 160 229C160 211.327 145.673 197 128 197C110.327 197 96 211.327 96 229C96 246.673 110.327 261 128 261Z" fill="#F0F0F0"/>
<path fill-rule="evenodd" clip-rule="evenodd" d="M255.156 97.4201C254.206 95.5228 252.542 94.08 250.529 93.4088C248.516 92.7376 246.319 92.8927 244.42 93.8401L215.924 108.088C211.5 108.5 206.5 109 200 109H56.0004C50.5 109 48 108.5 40.0764 108.092L11.5804 93.8441C9.68203 92.8952 7.4844 92.7392 5.471 93.4106C3.45761 94.082 1.79339 95.5257 0.844447 97.4241C-0.104497 99.3225 -0.260431 101.52 0.410949 103.534C1.08233 105.547 2.52603 107.211 4.42445 108.16L32.6204 122.256L56.0684 302.036C56.32 303.962 57.2635 305.731 58.723 307.012C60.1825 308.293 62.0583 309 64.0005 309H192C193.943 309 195.818 308.293 197.278 307.012C198.737 305.731 199.681 303.962 199.932 302.036L223.38 122.256L251.576 108.16C253.475 107.21 254.918 105.545 255.59 103.531C256.261 101.517 256.105 99.3192 255.156 97.4201ZM172.252 157L198.92 125H57.0804L83.7485 157H172.252ZM71.0245 293H184.976L204.504 143.292L182.148 170.12C180.624 171.944 178.376 173 176 173H80.0005C77.6245 173 75.3765 171.944 73.8565 170.12L51.5004 143.292L71.0245 293Z" fill="#644646"/>
<path d="M128 189C105.944 189 88 206.944 88 229C88 251.056 105.944 269 128 269C150.056 269 168 251.056 168 229C168 206.944 150.056 189 128 189ZM128 253C114.764 253 104 242.236 104 229C104 215.764 114.764 205 128 205C141.236 205 152 215.764 152 229C152 242.236 141.236 253 128 253Z" fill="#644646"/>
<path d="M175 80C175 80 167 72 167 64C167 56 175 48 175 48H79C79 48 71 56 71 64C71 72 79 80 79 80C79 80 87 88 87 96C87 104 79 112 79 112H175C175 112 183 104 183 96C183 88 175 80 175 80Z" fill="#FFC48C"/>
<path fill-rule="evenodd" clip-rule="evenodd" d="M178.676 119L189.476 104C190.392 101.5 191 98.8 191 96C191 85.004 181.716 75.404 180.68 74.364C178.392 72.036 175 67.132 175 64C175 61.708 176.816 58.476 178.676 56H223C225.122 56 227.157 55.1571 228.657 53.6568C230.157 52.1565 231 50.1217 231 48C231 45.8782 230.157 43.8434 228.657 42.3431C227.157 40.8428 225.122 40 223 40H63C60.8783 40 58.8434 40.8428 57.3431 42.3431C55.8429 43.8434 55 45.8782 55 48C55 50.1217 55.8429 52.1565 57.3431 53.6568C58.8434 55.1571 60.8783 56 63 56H64.524C63.5504 58.5565 63.0345 61.2645 63 64C63 74.996 72.284 84.596 73.32 85.636C75.608 87.964 79 92.868 79 96C79 98.288 77.188 101.516 75.32 104C68.6338 109.985 73.0159 117.798 73.4893 119H178.676ZM175 96C175 92.868 171.608 87.964 169.32 85.636C168.284 84.596 159 74.996 159 64C159.035 61.2645 159.55 58.5565 160.524 56H146.676C144.816 58.476 143 61.708 143 64C143 67.132 146.392 72.036 148.68 74.364C149.716 75.404 159 85.004 159 96C159 98.8 158.392 101.5 157.476 104H171.32C173.188 101.516 175 98.288 175 96ZM127 96C127 98.8 126.392 101.5 125.476 104H139.32C141.188 101.516 143 98.288 143 96C143 92.868 139.608 87.964 137.32 85.636C136.284 84.596 127 74.996 127 64C127.035 61.2645 127.55 58.5565 128.524 56H114.676C112.816 58.476 111 61.708 111 64C111 67.132 114.392 72.036 116.68 74.364C117.716 75.404 127 85.004 127 96ZM79 64C79 67.132 82.392 72.036 84.68 74.364C85.716 75.404 95 85.004 95 96C95 98.8 94.392 101.5 93.476 104H107.32C109.188 101.516 111 98.288 111 96C111 92.868 107.608 87.964 105.32 85.636C104.284 84.596 95 74.996 95 64C95.0345 61.2645 95.5504 58.5565 96.524 56H82.676C80.816 58.476 79 61.708 79 64Z" fill="#644646"/>
<path fill-rule="evenodd" clip-rule="evenodd" d="M63.796 31.96C63.528 31.988 63.256 32 62.992 32C60.9405 31.9972 58.9684 31.2063 57.4834 29.7909C55.9983 28.3754 55.1138 26.4435 55.0127 24.3945C54.9115 22.3454 55.6014 20.3358 56.9398 18.781C58.2781 17.2261 60.1627 16.2449 62.204 16.04L222.204 0.0399756C224.305 -0.151795 226.397 0.494136 228.024 1.83716C229.651 3.18018 230.682 5.11155 230.891 7.21083C231.101 9.31011 230.474 11.4073 229.145 13.0459C227.816 14.6846 225.893 15.7319 223.796 15.96L63.796 31.96Z" fill="#644646"/>
</g>
<defs>
<clipPath id="clip0_5_184">
<rect width="256" height="309" fill="white"/>
</clipPath>
</defs>
</svg>
